<?xml version="1.0" encoding="UTF-8"?>
<svg width="64px" height="77px" viewBox="0 0 64 77" version="1.1" xmlns="http://www.w3.org/2000/svg" xmlns:xlink="http://www.w3.org/1999/xlink">
    <title>Group 19</title>
    <g id="Page-1" stroke="none" stroke-width="1" fill="none" fill-rule="evenodd">
        <g id="Desktop" transform="translate(-411.000000, -2211.000000)">
            <g id="Group" transform="translate(405.000000, 2209.000000)">
                <g id="Group-19" transform="translate(6.000000, 2.000000)">
                    <polygon id="Fill-16" fill="#CABB9F" points="3.6782 73.9965 3.8022 75.4205 3.8022 76.3035 5.7362 75.9655 5.4582 73.8725 3.7402 73.8725"></polygon>
                    <polygon id="Fill-17" fill="#CABB9F" points="60.7051 74.1822 60.5811 75.6062 60.5811 76.4892 58.6471 76.1512 58.9251 74.0582 60.6431 74.0582"></polygon>
                    <g id="Group-22" transform="translate(49.000000, 53.000000)" fill="#CABB9F">
                        <path d="M1.9309,0.7522 L0.4239,1.3242 L0.7029,2.5942 C0.7029,2.5942 1.2979,2.0342 1.8109,2.1922 L1.9309,0.7522 Z" id="Fill-18"></path>
                        <path d="M14.1919,18.8411 L12.6979,19.5301 L13.0059,20.7721 C13.0059,20.7721 13.8369,20.3081 14.0989,20.3211 L14.1919,18.8411 Z" id="Fill-20"></path>
                    </g>
                    <polygon id="Fill-23" fill="#CABB9F" points="5.043 43.3392 5.737 43.2172 5.534 41.6952"></polygon>
                    <g id="Group-52" transform="translate(1.000000, 23.000000)">
                        <path d="M8.4858,12.4879 L7.4648,13.8789 L8.9908,14.0649 C8.9908,14.0649 9.9658,13.3339 10.2908,12.5789 L8.4858,12.4879 Z" id="Fill-24" fill="#CABB9F"></path>
                        <path d="M43.9628,27.7483 C43.9628,27.7483 45.6458,29.8473 47.5328,32.8033 C49.4188,35.7593 59.6428,51.0583 59.6428,51.0583 L57.9248,51.0583 C57.9248,51.0583 54.2478,45.7883 52.4968,43.0923 C50.7468,40.3973 43.9488,30.0503 42.7868,27.9343 L43.9628,27.7483 Z" id="Fill-26" fill="#B07E49"></path>
                        <path d="M42.7867,27.934 L48.6657,37.241 L57.9257,51.058 L57.6467,53.078 C57.6467,53.078 51.6347,44.082 49.7697,41.174 C47.9057,38.266 42.7867,30.07 42.7867,30.07 L42.7867,27.934 Z" id="Fill-28" fill="#7D4E24"></path>
                        <path d="M53.7702,13.9983 L53.0762,14.0653 L52.9552,19.9053 L52.7782,37.4883 L52.5352,47.6343 L52.6582,51.4403 C52.6582,51.4403 53.3702,51.9143 54.2372,51.6203 C54.2372,51.6203 54.2382,46.4413 54.1912,45.7723 C54.1442,45.1033 54.2062,39.3613 54.2442,38.4363 C54.2832,37.5103 54.4272,33.3773 54.4082,31.8403 C54.3902,30.3043 54.3392,23.0623 54.3392,23.0623 L54.5902,15.0953" id="Fill-30" fill="#7D4E24"></path>
                        <path d="M42.5742,0.9889 C42.5742,0.9889 43.1562,1.4939 43.6672,1.8709 L43.6652,1.9489 C43.6652,1.9489 43.5382,19.4299 43.4882,21.3529 C43.4392,23.2769 43.2922,29.3749 43.2922,29.3749 L43.3902,34.1249 L42.7712,33.5579 C42.7712,33.5579 42.4272,32.4049 42.3212,29.2799 C42.2142,26.1559 42.3522,18.9119 42.3522,18.9119 L42.4002,10.0279 L42.5742,0.9889 Z" id="Fill-32" fill="#B07E49"></path>
                        <path d="M43.8919,1.7751 L43.8729,2.6911 L43.6969,20.2741 L43.4529,30.4211 L43.5759,34.2271 C43.5759,34.2271 44.2879,34.7011 45.1549,34.4061 C45.1549,34.4061 45.1569,29.2281 45.1089,28.5591 C45.0619,27.8901 45.1239,22.1481 45.1629,21.2221 C45.2009,20.2971 45.3449,16.1631 45.3259,14.6271 C45.3079,13.0911 45.2569,5.8481 45.2569,5.8481 L45.3319,3.4701" id="Fill-34" fill="#7D4E24"></path>
                        <path d="M51.7763,12.5791 C51.7763,12.5791 52.5653,13.7691 53.0763,14.1461 L52.9333,19.1621 C52.9333,19.1621 52.8063,36.6431 52.7563,38.5671 C52.7073,40.4901 52.5603,46.5881 52.5603,46.5881 L52.6583,51.3391 L52.0393,50.7721 C52.0393,50.7721 51.6953,49.6181 51.5893,46.4941 C51.4823,43.3691 51.6203,36.1251 51.6203,36.1251 L51.6683,27.2411 L51.7763,12.5791 Z" id="Fill-36" fill="#B07E49"></path>
                        <path d="M52.4438,12.3952 L53.6658,13.8682 L52.8908,13.8792 C52.8908,13.8792 51.9158,13.1482 51.5908,12.3932 L52.4438,12.3952 Z" id="Fill-38" fill="#CABB9F"></path>
                        <path d="M54.6594,16.0495 L48.4234,16.1135 L28.9374,16.0725 C28.9374,16.0725 15.4404,16.0855 14.3354,16.0885 C13.7834,16.0895 10.5254,16.1125 7.4084,16.1355 L6.9534,16.8205 L15.4714,16.8945 L35.8714,16.8415 C35.8714,16.8415 47.8834,16.5955 50.3354,16.7655 C51.3394,16.8345 53.2614,16.8475 55.1794,16.8375" id="Fill-40" fill="#B07E49"></path>
                        <path d="M55.1792,16.8353 L54.3182,16.8463 L48.6552,16.7873 L37.6972,16.7963 L26.0272,16.8743 L9.6042,16.8943 L5.3432,16.8513 L4.4582,18.1083 C5.5482,18.1083 6.6622,18.1263 7.4522,18.1863 C9.5902,18.3453 14.4032,18.2503 14.4032,18.2503 L20.5792,18.1253 L25.2842,18.1243 L33.4562,18.1213 L42.6812,18.1813 L55.6582,18.1793 L56.0632,18.1683" id="Fill-42" fill="#7D4E24"></path>
                        <path d="M6.9681,49.6156 L9.6051,49.6426 L26.0271,49.6226 L37.6971,49.5456 L48.6561,49.5356 L54.3181,49.5946 L55.1771,49.5836 L56.6321,49.5656 L56.8081,49.5736 L57.7741,50.8526 L56.9611,50.8926 L56.0631,50.9166 L55.6581,50.9286 L42.6811,50.9296 L33.4561,50.8696 L25.2841,50.8726 L20.5791,50.8746 L14.4031,50.9986 C14.4031,50.9986 9.5901,51.0936 7.4521,50.9336 C7.0611,50.9056 6.5911,50.8856 6.0841,50.8736" id="Fill-44" fill="#7D4E24"></path>
                        <path d="M3.5349,49.5784 L0.6559,49.5784 L0.8039,50.9094 C0.8039,50.9094 1.6289,50.8844 2.7399,50.8694" id="Fill-46" fill="#7D4E24"></path>
                        <path d="M3.5493,49.5392 L0.6493,49.5142 L1.3243,48.9292 C1.3243,48.9292 2.4383,48.9212 4.0173,48.9092" id="Fill-48" fill="#B07E49"></path>
                        <path d="M6.968,49.6158 L7.409,48.8848 C10.526,48.8608 13.783,48.8378 14.336,48.8368 C15.44,48.8348 28.937,48.8208 28.937,48.8208 L48.424,48.8628 L54.675,48.7978 L55.177,49.5838 L55.147,49.5868 C54.608,49.5928 55.708,49.5838 55.147,49.5868 C53.239,49.5958 51.334,49.5828 50.335,49.5138 C47.883,49.3448 35.872,49.5888 35.872,49.5888 L15.472,49.6428 L6.968,49.6158 Z" id="Fill-50" fill="#B07E49"></path>
                    </g>
                    <polygon id="Fill-53" fill="#B07E49" points="59.6172 72.5946 61.6492 72.5356 63.0992 71.7926 61.9242 71.7596 60.2672 71.7376 59.0092 71.6876"></polygon>
                    <polyline id="Fill-54" fill="#7D4E24" points="61.9239 73.7832 61.6499 72.5362 59.6169 72.5942 60.4379 73.8532 61.9079 73.7912"></polyline>
                    <polygon id="Fill-55" fill="#7D4E24" points="14.1457 30.4027 12.4087 33.0107 11.3097 38.1437 11.2677 39.1327 12.7087 39.1127 14.9317 29.9867"></polygon>
                    <polygon id="Fill-56" fill="#7D4E24" points="11.361 44.9655 12.208 41.3095 11.267 41.2735"></polygon>
                    <polygon id="Fill-57" fill="#7D4E24" points="8.6078 49.4494 8.6078 55.5264 7.1438 60.9094 5.3568 68.2734 4.6688 71.8144 2.8658 71.8144 3.0448 70.6344 4.1998 65.8714 6.0548 59.0324"></polygon>
                    <polygon id="Fill-58" fill="#7D4E24" points="49.2152 30.5053 51.2142 39.0283 52.6392 39.0003 52.5812 38.1693 51.3982 32.4973"></polygon>
                    <polygon id="Fill-59" fill="#7D4E24" points="52.6026 45.141 52.6876 41.185 51.7156 41.138"></polygon>
                    <path d="M55.3462,49.5664 L55.3462,55.8414 L58.0772,66.1214 L59.2542,71.6874 L61.0522,71.6874 C61.0522,71.6874 60.6062,69.1994 60.0892,67.2264 C59.5722,65.2544 55.3462,49.5664 55.3462,49.5664" id="Fill-60" fill="#7D4E24"></path>
                    <polygon id="Fill-62" fill="#B07E49" points="14.9014 29.9797 12.7254 39.0437 14.2784 39.1127 16.5644 28.9587"></polygon>
                    <polygon id="Fill-63" fill="#B07E49" points="12.2075 41.3099 11.3605 44.9659 11.4235 51.2179 12.5815 46.6119 13.7745 41.2719"></polygon>
                    <polygon id="Fill-64" fill="#B07E49" points="8.5802 55.6282 7.5092 59.5642 5.9682 65.5722 4.9652 70.2932 4.6692 71.8142 5.0172 71.8212 6.6382 69.4912 6.9022 68.1192 8.1482 63.3202 8.8072 61.0412"></polygon>
                    <polygon id="Fill-65" fill="#B07E49" points="55.1908 61.0876 55.8508 63.6196 56.4758 66.0526 57.2438 68.9636 59.0368 71.7926 59.2458 71.7556 58.3408 67.3676 57.0408 62.2186 55.3458 55.8416"></polygon>
                    <polygon id="Fill-66" fill="#B07E49" points="52.5338 51.3463 52.6598 45.1413 51.7158 41.1373 50.1488 41.2503 51.2138 45.9213"></polygon>
                    <polygon id="Fill-67" fill="#B07E49" points="49.6445 39.0434 51.2145 39.0284 49.8305 32.8904 49.1625 30.3024 47.2465 28.0704 47.2875 28.5024 48.7985 35.1424"></polygon>
                    <polygon id="Fill-68" fill="#7D4E24" points="56.9916 40.2888 57.0686 41.1378 58.7866 43.4078 57.0566 40.2888"></polygon>
                    <polygon id="Fill-69" fill="#7D4E24" points="32.824 15.2882 30.844 17.4972 26.915 21.3152 21.945 26.2052 16.632 31.6342 12.207 36.1072 7.953 40.2472 6.955 41.1792 8.051 42.0562 9.604 40.3472 13.596 36.5712 18.372 31.8322 22.483 27.5782 27.053 23.0492 32.003 18.0432 33.919 15.9882"></polygon>
                    <polygon id="Fill-70" fill="#B07E49" points="32.824 15.2882 33.178 14.1252 32.019 15.0042 29.823 17.2712 25.978 21.1922 22.817 24.3542 19.829 27.3422 17.184 29.9882 13.028 34.2102 11.043 36.2762 8.532 38.6792 7.019 40.2882 6.955 41.1382 8.661 39.5692 13.382 34.9332 17.321 30.9302 20.673 27.5502 26.509 21.7152"></polygon>
                    <polygon id="Fill-71" fill="#CABB9F" points="33.3109 14.1247 34.3379 14.8227 33.7979 16.0137 32.7029 15.3137"></polygon>
                    <polygon id="Fill-72" fill="#7D4E24" points="31.3894 15.5198 31.1164 15.3308 30.0884 15.9888 30.5454 16.5078"></polygon>
                    <polygon id="Fill-73" fill="#7D4E24" points="32.7493 17.2024 31.9283 18.0824 36.7983 23.0014 42.9363 29.1034 48.3493 34.6814 53.0313 39.1244 55.8813 42.0964 56.9883 41.2084 53.8193 38.2094 49.1423 33.5504 43.9693 28.2644 37.4913 21.8144"></polygon>
                    <polygon id="Fill-74" fill="#B07E49" points="33.3081 16.603 32.8141 17.132 37.8411 22.152 44.6851 28.996 50.4841 34.906 55.1381 39.457 56.9131 41.117 56.9051 40.227 54.9261 38.209 50.4841 33.815 45.7741 29.076 40.4371 23.715"></polygon>
                    <g id="Group-79" transform="translate(30.000000, 14.000000)">
                        <path d="M0.5598,1.3498 L0.5428,2.1308 L1.6158,2.1698 C1.6158,2.1698 1.6318,1.4218 1.6518,0.4058" id="Fill-75" fill="#7D4E24"></path>
                        <path d="M1.5875,0.2855 C1.5685,1.4125 1.5555,2.2205 1.5555,2.2205 L1.9705,2.8875 C1.9705,2.8875 2.0225,1.6875 2.0805,0.1775" id="Fill-77" fill="#B07E49"></path>
                    </g>
                    <polygon id="Fill-80" fill="#CABB9F" points="30.5315 16.0667 31.5905 16.1997 32.0055 16.8667 30.9505 17.1037"></polygon>
                    <g id="Group-89" transform="translate(4.000000, 36.000000)" fill="#212348">
                        <path d="M2.2338,3.3123 C2.2338,3.3123 2.9088,3.8903 3.1058,4.2473 L3.5958,3.6163 C3.5958,3.6163 3.9688,3.7353 2.9618,2.9013 C2.9618,2.9013 3.1448,2.7273 3.6568,2.7413 C4.1688,2.7543 4.4598,2.7563 4.4598,2.7563 L5.1758,2.0683 C4.7428,1.9813 4.1618,2.0913 3.5218,2.1443 L4.4218,1.4063 L4.3838,0.8373 L2.8348,1.9073" id="Fill-81"></path>
                        <path d="M7.4237,34.9594 L6.5047,34.8934 L5.0887,34.7264 L4.3447,34.7094 L2.2297,34.8934 L1.9187,34.5674 L1.1487,35.6284 L2.0307,35.4284 L0.7847,36.1914 L0.2817,36.9324 L2.1937,36.1264 C2.1937,36.1264 2.4257,36.1564 2.5617,36.3804 C2.6967,36.6024 3.3527,37.2414 3.4307,37.8724 L4.1607,37.8724 C4.1607,37.8724 3.8067,36.5264 2.9607,35.6504 C2.9607,35.6504 3.1397,35.3414 3.8887,35.3814 C4.6367,35.4224 5.5597,35.5244 5.5597,35.5244 L6.7047,35.8624 L7.3627,35.8684 L7.4237,34.9594 Z" id="Fill-83"></path>
                        <path d="M48.5485,34.7076 C48.5485,34.7076 50.4545,34.5666 51.0125,34.5226 C51.5685,34.4796 53.3105,34.5936 53.5885,34.6376 C53.8675,34.6806 54.4465,34.8586 54.4465,34.8586 L54.7625,35.3846 L54.4035,35.6396 L55.2365,36.0896 L55.8095,36.9356 L53.9625,36.0266 C53.9625,36.0266 52.7755,37.3586 52.7255,37.8226 L51.9635,37.8756 C51.9635,37.8756 52.3305,36.7936 53.1645,35.6876 C53.1645,35.6876 52.5205,35.0476 51.5335,35.6066 L51.3095,35.2656 L50.3955,35.4486 L49.3445,35.6876 L48.5795,35.7926 L48.5485,34.7076 Z" id="Fill-85"></path>
                        <path d="M50.5495,1.801 C50.7585,1.766 50.7645,1.734 51.3605,1.801 L52.1115,2.649 C51.6865,2.773 51.5315,2.891 51.5315,2.891 L51.4165,2.508 L50.5495,1.801 Z" id="Fill-87"></path>
                    </g>
                    <polygon id="Fill-90" fill="#212348" points="17.9229 52.4321 18.5169 52.7801 18.4779 54.2251 19.5309 55.0211 20.1719 54.5471 20.7579 53.4461 21.0489 52.6601 21.0189 54.0701 20.6789 54.7221 20.1839 55.4301 20.5969 55.6101 20.9839 55.6101 20.9699 56.2521 20.3169 56.3551 19.7059 56.2411 19.5059 56.1271 18.4479 56.9541 18.4479 55.9451 18.7899 55.6771 18.1339 55.1401 17.5299 54.4891 17.3799 54.2791 16.7949 54.6931 16.2839 54.8831 17.0599 53.7191 17.5039 53.0541 17.6759 53.4461 18.1679 53.9061 17.6409 52.9031"></polygon>
                    <polygon id="Fill-91" fill="#212348" points="45.9651 52.8108 46.3811 52.6368 45.9981 52.1108"></polygon>
                    <polyline id="Fill-92" fill="#212348" points="46.7601 53.1899 46.1441 53.7069 45.3971 54.3559 45.0021 54.6469 44.4441 54.2359 43.9791 53.5729 43.3961 52.4609 43.4121 53.6589 44.3201 55.0319 44.0441 55.2619 43.4121 55.2619 43.4121 56.0039 44.3581 56.0039 45.0011 55.8389 45.8561 56.7499 46.1041 56.9899 46.6341 57.8459 46.6841 56.9819 46.1041 55.6639 45.8351 55.2429 46.3821 54.8229 46.8081 54.3249 47.5791 54.9159 48.0151 55.0859 46.7761 53.1899"></polyline>
                    <g id="Group-103">
                        <path d="M30.5386,16.0457 C30.7186,16.5847 30.9616,17.1247 30.9616,17.1247 L31.9986,16.9237 M32.1616,14.1617 C32.1026,15.1777 32.0436,16.1897 32.0756,16.9707 L31.6116,16.1807 M30.5446,15.1997 C30.5406,15.5437 30.5386,15.8407 30.5386,16.0457 L31.6116,16.1807 C31.6116,16.1807 31.6396,15.2267 31.6566,14.2227 M47.3206,28.3397 C47.3986,28.8067 47.5776,29.6207 47.9036,31.0697 M48.7966,35.0037 C49.1016,36.3427 49.4146,37.7167 49.7186,39.0437 M50.2226,41.2497 C50.9226,44.3157 51.4936,46.8147 51.6506,47.5417 C51.8416,48.4207 52.1876,49.7717 52.6076,51.3467 M49.2346,30.5047 C49.2346,30.6807 49.5226,31.6237 49.7476,32.4277 C49.8016,32.6197 49.8556,32.8517 49.9206,33.1157 M50.8166,36.9557 C50.9686,37.6187 51.1266,38.3157 51.2876,39.0277 M51.7896,41.2427 C52.0956,42.5957 52.3996,43.9357 52.6766,45.1407 M51.5726,32.9127 C51.9176,34.3277 52.0526,34.8607 52.1266,35.4017 M55.4196,49.5667 C56.3496,53.0767 57.2106,56.1977 57.9666,59.2197 C58.8326,62.1927 61.1256,70.4487 61.1256,71.6867 M16.6706,28.8247 C16.5946,29.2837 16.8026,28.2507 16.1986,30.9297 M15.2906,34.9327 C14.9796,36.2947 14.6606,37.6937 14.3526,39.0437 M13.8476,41.2497 C13.1476,44.3157 12.5766,46.8147 12.4186,47.5417 C12.2296,48.4207 11.8836,49.7717 11.4626,51.3467 M13.2366,36.9877 C13.2366,36.9877 13.0346,37.7647 12.6736,39.0437 M14.9966,29.9487 C14.6546,31.2787 14.5106,31.7317 14.1496,33.0107 M12.2806,41.2427 C11.9746,42.5957 11.6706,43.9357 11.3936,45.1407 M12.4826,33.0107 C12.1366,34.4267 12.0196,34.8007 11.9456,35.3417 M8.7366,49.2427 C7.8066,52.7527 6.8596,56.1977 6.1036,59.2197 C5.2376,62.1927 2.9396,70.5767 2.9396,71.8147 M43.4696,53.5937 C43.7256,54.0537 43.6236,53.9877 43.8416,54.3327 C44.4156,55.2487 45.4296,56.1617 46.1776,57.0297 M43.4346,52.4167 C43.7246,52.9437 43.7436,53.0127 44.0346,53.5397 C44.2906,54.0077 44.5826,54.4087 45.0756,54.6477 C45.4886,54.8427 46.8986,56.0247 46.7846,57.7567 M47.2576,53.5937 C46.8336,54.4187 46.7186,54.5627 45.9086,55.2427 M44.9866,55.8397 C44.7816,55.9477 44.7756,55.9287 44.6006,55.9747 C44.3396,56.0347 43.9686,56.0377 43.6786,55.9997 M46.8336,53.1897 C46.5486,53.4527 46.0126,53.9507 45.5306,54.3087 C45.4336,54.3837 45.2956,54.4997 45.1346,54.6257 M44.3766,55.1377 C44.0406,55.3257 43.7846,55.3877 43.5326,55.2517 M21.1036,53.9067 C21.1036,53.9067 20.9676,54.3417 20.7666,54.6977 C20.2406,55.6417 19.4266,56.2567 18.6366,56.9537 M21.1566,52.5897 C20.8936,53.1317 20.9116,53.3397 20.6486,53.8817 C20.4166,54.3617 20.1446,54.7757 19.6656,55.0397 C19.2626,55.2567 18.8486,55.6267 18.5696,55.9837 M17.1336,53.7187 C17.5416,54.5467 18.0206,55.0387 18.8636,55.6767 M19.6046,56.1277 C19.8156,56.2257 20.0296,56.3047 20.2076,56.3417 C20.4706,56.3877 20.7566,56.3057 21.0436,56.2517 M17.5776,53.0537 C17.7016,53.3627 17.7546,53.5327 18.0176,53.7647 C18.3886,54.0747 18.7756,54.4467 19.1936,54.7247 C19.2946,54.7947 19.4376,54.9037 19.6046,55.0217 M20.3026,55.4537 C20.6476,55.6247 20.8126,55.6967 21.0566,55.5477 M55.3386,38.5497 C55.7166,38.4907 55.5206,38.4477 55.9196,38.4827 M55.3796,37.8017 C55.0586,37.7937 54.9266,37.8157 54.6026,37.8477 M52.6916,71.7917 C54.0146,71.6757 55.1766,71.1047 56.4996,71.2217 C57.3126,71.2677 58.1376,71.1157 58.9046,71.4637 M58.5196,70.8917 C58.1946,70.8227 57.8236,70.6637 57.4976,70.6637 C56.8476,70.6637 56.2216,70.5477 55.5706,70.5247 C54.6196,70.5017 53.5816,70.7347 52.6536,70.7577 M11.4366,71.8687 C10.1136,71.7527 8.9936,71.2907 7.6696,71.4077 C6.8576,71.4537 6.0316,71.3017 5.2656,71.6497 M5.6496,71.0777 C5.9746,71.0077 6.3466,70.8497 6.6716,70.8497 C7.3216,70.8497 7.9486,70.7337 8.5986,70.7107 C9.5506,70.6877 10.4326,70.9427 11.3616,70.9657 M8.4396,38.7797 C7.6266,38.8257 7.3236,38.7097 6.5256,38.7797 M6.7686,38.2067 C7.4186,38.2067 8.6966,38.0907 9.3466,38.0667 M8.4576,37.4057 C8.2076,37.6187 7.9366,37.8887 7.6566,38.1367 M8.4576,36.8367 C7.7736,37.2717 7.6386,37.3527 6.9586,37.7917 M44.4996,57.2277 L43.5556,56.2517 C43.5556,54.2087 43.2816,50.1617 43.3386,48.0177 C43.4266,44.7507 43.4196,43.0147 43.4176,41.1807 M43.4206,39.0847 C43.4256,38.2137 43.4376,37.2257 43.4626,36.0087 C43.4996,34.2247 43.5276,31.9447 43.5506,29.6207 M43.5746,26.7347 C43.5816,25.7947 43.5876,24.8797 43.5926,24.0197 M46.0786,57.4067 C46.0786,57.4067 46.0756,57.2247 46.0716,56.9027 M46.0446,53.8957 C46.0206,50.4217 46.0096,45.3367 46.1246,43.2967 C46.1696,42.4957 46.2006,41.8067 46.2226,41.1857 M46.2586,39.0847 C46.2606,37.5917 46.2186,36.1877 46.2186,33.8257 C46.2186,33.3797 46.2186,32.9127 46.2206,32.4307 M46.2426,29.3497 C46.2616,27.5057 46.2186,28.4497 46.2586,26.7927 M44.7956,24.9937 C44.7596,26.4087 44.7316,26.8977 44.7316,27.9287 M44.7546,30.9077 C44.7566,33.2857 44.7316,36.2277 44.6906,39.0847 M44.6586,41.1837 C44.6006,44.6427 44.5236,47.7207 44.4526,49.1627 C44.3916,50.4237 44.3616,52.3007 44.3846,54.0807 M44.4326,56.0037 C44.4496,56.4437 44.4726,56.8567 44.4996,57.2277 C44.4996,57.2277 44.7786,57.6857 46.0786,57.4067 M20.0996,57.2277 L21.0436,56.2517 C21.0436,54.2087 21.3176,50.1617 21.2606,48.0177 C21.1716,44.7187 21.1796,42.9817 21.1826,41.1277 M21.1786,39.0847 C21.1736,38.2137 21.1616,37.2257 21.1366,36.0087 C21.0966,34.0717 21.0666,31.5477 21.0436,29.0187 M21.0206,26.1537 C21.0156,25.4177 21.0156,25.3827 21.0116,24.7017 M18.5216,57.4067 C18.5216,57.4067 18.5306,56.6277 18.5416,55.4247 M18.5516,54.2247 C18.5776,50.7517 18.5936,45.4027 18.4746,43.2967 C18.4286,42.4917 18.3976,41.8007 18.3766,41.1767 M18.3406,39.0847 C18.3376,37.5917 18.3816,36.1877 18.3816,33.8257 C18.3816,33.1967 18.3796,32.5267 18.3756,31.8317 M18.3506,28.8247 C18.3456,28.3937 18.3406,27.9637 18.3336,27.5357 M19.8756,25.9877 C19.9046,27.1457 19.8556,26.3047 19.8646,27.3107 M19.8446,30.2837 C19.8376,32.7597 19.8636,35.9727 19.9076,39.0847 M19.9396,41.1377 C19.9986,44.6157 20.0756,47.7147 20.1466,49.1627 C20.2136,50.5457 20.2436,52.6687 20.2066,54.5927 M20.1526,56.3277 C20.1366,56.6477 20.1196,56.9497 20.0996,57.2277 C20.0996,57.2277 19.8216,57.6857 18.5216,57.4067 M53.4436,35.3957 C53.2326,35.4087 52.9916,35.4287 52.7266,35.4577 M53.6696,74.4407 L53.2176,73.9747 M52.6916,71.7917 C52.6196,69.6577 52.4636,66.8267 52.5076,65.1547 C52.6626,59.3657 52.5236,58.3857 52.6316,53.1457 C52.6986,49.8877 52.7386,44.9717 52.7616,41.1567 M52.7126,36.0167 L52.7266,35.4577 C53.0056,36.0147 53.4696,36.6647 54.0266,36.9437 M55.2476,74.6197 C55.2476,74.6197 55.2446,74.3707 55.2396,73.9347 M55.2206,71.8417 C55.2186,71.6647 55.2176,71.4807 55.2166,71.2927 M55.2106,70.5277 C55.1896,67.0827 55.1836,62.3767 55.2936,60.4337 C55.5246,56.3507 55.3876,55.1887 55.3876,50.9627 C55.3876,48.0187 55.4176,44.5677 55.4916,41.4967 M54.6656,36.8677 L54.0266,36.9437 L54.0266,37.3037 M53.9656,41.1377 C53.9306,42.5517 53.9016,44.0347 53.9016,45.0657 C53.9946,50.0807 53.7906,62.8567 53.6226,66.2997 C53.5536,67.7007 53.5076,68.7447 53.5456,70.6887 M53.6386,73.9677 C53.6476,74.1317 53.6586,74.2897 53.6696,74.4407 C53.6696,74.4407 53.9476,74.8987 55.2476,74.6197 M8.4626,36.8797 C8.9396,36.2727 9.6236,35.4897 9.6236,35.4897 C9.6236,35.4897 10.2886,35.4667 11.3416,35.5787 M10.4586,74.4407 L10.9106,73.9747 M11.4366,71.8687 C11.5076,69.7347 11.6646,66.9027 11.6196,65.2317 C11.5126,61.2067 11.5466,59.5057 11.5416,57.0827 C11.5386,56.0197 11.5286,54.8187 11.4956,53.2217 C11.4286,49.9637 11.3886,45.0487 11.3666,41.2327 M11.3666,35.9497 L11.3416,35.5787 C11.0626,36.1367 10.5986,36.7867 10.0416,37.0647 M8.8806,74.6197 C8.8806,74.6197 8.8836,74.3707 8.8886,73.9347 M8.9076,71.9187 C8.9086,71.7647 8.9096,71.6077 8.9106,71.4457 M8.9166,70.7127 C8.9386,67.2587 8.9456,62.4737 8.8346,60.5107 C8.6036,56.4267 8.7406,55.2647 8.7406,51.0387 C8.7406,48.0947 8.7056,44.4467 8.6316,41.3737 M8.5276,38.0677 C8.5076,37.6057 8.4856,37.2047 8.4626,36.8797 L10.0416,37.0647 M10.1626,41.2137 C10.1976,42.6287 10.2266,44.1107 10.2266,45.1427 C10.1336,50.1577 10.3376,62.9327 10.5056,66.3757 C10.5746,67.7767 10.6166,68.9497 10.5786,70.8937 M10.4896,73.9677 C10.4806,74.1317 10.4696,74.2897 10.4586,74.4407 C10.4586,74.4407 10.1806,74.8987 8.8806,74.6197 M7.6136,39.6377 C7.4416,39.3777 7.2326,39.0257 7.0226,38.7907 M7.1036,40.1927 C6.8736,39.8607 6.5716,39.5537 6.2676,39.2757 M58.6576,43.3297 C58.5756,43.2967 58.1436,42.6827 57.1476,41.1857 M5.5796,41.7177 C5.7426,42.1527 5.5856,42.5197 5.7476,43.1437 M5.1136,43.2937 C5.4556,43.2117 5.7476,43.1437 5.7476,43.1437 C5.8266,43.1127 6.4736,42.1767 7.4116,40.7697 M10.8476,35.5327 C12.0036,33.7547 13.1706,31.9477 14.1256,30.4607 M8.5356,36.7227 C9.7116,35.0117 10.8356,33.2977 11.6966,31.9627 M22.5166,23.0177 C23.5446,23.0447 23.1076,23.0347 24.1256,23.0497 M27.1006,23.0667 C28.7196,23.0627 30.3316,23.0337 31.9406,22.9717 C33.5956,22.9077 35.2346,22.9337 36.8766,22.9617 M39.8356,22.9967 C40.4626,22.9967 42.3546,22.9797 41.7226,22.9717 C41.2426,22.9657 41.8976,22.9337 41.8976,22.9337 M24.5486,20.9177 C26.4276,20.8687 24.5486,20.9177 26.2676,20.9067 M29.1946,20.8967 C29.9356,20.8957 30.7126,20.8957 31.5436,20.8957 L34.8506,20.8957 M37.7346,20.8957 L39.1566,20.9177 M39.8986,21.6317 C39.8986,21.6317 39.1386,21.5767 38.4156,21.5767 M35.5396,21.5867 C33.0276,21.6057 30.7206,21.6467 28.3846,21.6767 M25.4686,21.7067 C24.0386,21.7167 25.2646,21.7287 23.6976,21.7147 M8.7876,41.1557 C12.4636,41.2527 16.1486,41.2947 19.7466,41.1557 C23.0216,41.0297 48.6856,41.2527 51.9746,41.1557 C53.2886,41.1037 52.8336,41.1247 55.1576,41.1267 M10.8426,39.1437 C13.3096,39.1067 16.1886,39.0847 19.1506,39.0847 L53.1106,39.0847 M53.8976,39.8407 C50.3236,39.8317 49.0106,39.7657 48.2836,39.7657 C41.5576,39.7657 22.1276,39.9837 10.0626,39.8947 M56.0696,73.8757 C56.2486,72.9587 56.7076,72.2777 57.2686,71.6527 M56.7986,73.8757 C56.9056,73.1717 57.4656,72.5487 58.0366,72.0267 M58.4776,71.6397 C58.5816,71.5507 58.6816,71.4657 58.7746,71.3847 M59.8016,72.9357 C58.9656,72.4397 58.2366,72.1477 57.3876,71.6977 C56.7556,71.3627 56.2956,71.2637 55.6646,71.5637 M59.3416,72.1597 C58.9596,71.9247 58.3166,71.5037 57.6126,71.2137 M8.2346,73.8727 C8.0546,72.9557 7.5956,72.2747 7.0346,71.6497 M6.3096,70.8997 C6.1136,70.7007 6.2446,70.8357 6.0416,70.6337 M7.5046,73.8727 C7.3976,73.1687 6.8386,72.5457 6.2676,72.0237 M4.5016,72.9327 C5.3376,72.4367 6.0676,72.1447 6.9166,71.6947 C7.5476,71.3587 8.0076,71.2607 8.6386,71.5607 M4.9616,72.1567 C5.2636,71.9707 5.7196,71.6807 6.2386,71.4287 M48.0966,55.0987 C47.4326,54.9037 47.3916,54.6497 46.8816,54.3247 M46.3966,52.6717 C46.2646,52.7347 46.1456,52.8057 46.0386,52.8837 M58.9366,74.0577 C58.7736,74.4927 58.8196,75.4537 58.6576,76.0777 M60.6546,74.0577 C60.6546,74.5537 60.6546,75.1727 60.5926,75.6067 C60.4686,76.7207 60.7166,76.5347 59.7876,76.3497 C59.2916,76.2257 58.6576,76.0777 58.6576,76.0777 C58.5756,76.0457 57.8816,75.0377 56.8856,73.5407 M56.4236,72.8457 C56.1916,72.4947 55.9476,72.1247 55.6956,71.7407 C55.5386,71.5007 55.5466,71.5147 55.3836,71.2657 M52.5126,66.8567 C50.5116,63.7667 48.6836,60.9117 48.2196,60.1657 C47.5166,59.0067 47.0526,58.4087 46.1256,56.9477 M46.0386,52.0827 C47.9166,54.6187 48.6966,56.1807 50.6706,59.1187 C51.0746,59.7217 51.7516,60.7407 52.5736,61.9767 M55.1996,65.9317 C57.4086,69.2567 59.7246,72.7297 60.6546,74.0577 L59.0296,74.0577 C58.7636,73.7797 58.2946,73.1567 57.7126,72.3377 M56.5086,70.6007 C56.0176,69.8837 55.7286,69.4487 55.2016,68.6587 M52.5226,64.5807 C51.8326,63.5157 51.3266,62.7267 51.1806,62.4927 C50.5526,61.4907 47.3536,56.9097 46.2586,54.9427 M16.3086,54.9137 C16.9726,54.7187 16.9476,54.6117 17.4586,54.2867 M17.7146,52.9037 C18.1556,53.5997 17.9316,53.2277 18.2786,53.9887 M18.0086,52.4857 C18.3176,52.5437 18.5486,52.8357 18.5486,52.8357 M5.4686,73.8727 C5.6316,74.3067 5.5856,75.2677 5.7476,75.8927 M3.6886,73.9967 C3.6886,74.4917 3.7506,74.9867 3.8126,75.4207 C3.9366,76.5347 3.6886,76.3497 4.6176,76.1637 C5.1136,76.0397 5.7476,75.8927 5.7476,75.8927 C5.8266,75.8607 6.4736,74.9247 7.4116,73.5177 M7.8716,72.8257 C8.2016,72.3277 8.4206,71.9957 8.7926,71.4287 M11.6116,67.1057 C13.7196,63.8527 15.7006,60.7607 16.1846,59.9797 C16.8886,58.8207 17.5936,57.7427 18.5216,56.2817 M18.5696,51.6287 C16.6396,54.2887 15.7086,55.9957 13.7356,58.9337 C13.2856,59.6017 12.5006,60.7827 11.5576,62.2047 M8.9286,66.1627 C6.8056,69.3577 4.6426,72.5987 3.7506,73.8727 L5.3756,73.8727 C5.6236,73.6127 6.0476,73.0557 6.5746,72.3177 M7.6416,70.7887 C8.0836,70.1457 8.4466,69.6057 8.9256,68.8887 M11.6086,64.8147 C12.4386,63.5397 13.0596,62.5707 13.2246,62.3067 C13.8526,61.3047 16.9526,56.9557 18.0476,54.9887 M49.7136,55.5937 C50.8016,54.9287 50.8206,55.1917 50.8206,55.1917 L50.9506,53.6447 M14.0536,54.3247 L14.2086,55.7207 C14.6626,55.6637 15.2376,55.6317 15.8616,55.6177 M21.0566,55.7447 C24.7326,55.8417 27.6056,55.8587 31.2036,55.7207 C34.4786,55.5937 37.6966,55.8167 40.9856,55.7207 C42.0646,55.6767 42.0976,55.6747 43.5156,55.6797 M48.4276,55.6637 C48.8926,55.6487 49.3266,55.6257 49.7136,55.5937 L49.4346,54.3247 M14.7286,53.7407 C15.4746,53.6727 16.2836,53.6657 17.1126,53.6787 M21.1036,53.7557 C24.7526,53.6587 27.5446,53.6587 31.6306,53.6587 L43.4856,53.6587 M47.1036,53.5837 C48.3626,53.5417 49.5966,53.5137 50.9506,53.6447 L49.4346,54.3247 C48.8886,54.3597 48.2946,54.3837 47.6736,54.4007 M43.5156,54.4427 C40.6196,54.4317 38.9526,54.3247 38.2306,54.3247 C31.9166,54.3247 27.2956,54.5047 21.1036,54.4517 M16.6396,54.3977 C15.7826,54.3797 14.9206,54.3547 14.0536,54.3247 C14.5096,53.7857 14.3946,54.1427 14.7286,53.7407 M61.9976,73.7837 C63.0856,73.1177 63.1056,73.3807 63.1056,73.3807 L63.2346,71.8337 M1.6596,72.5137 L1.8146,73.9097 C2.3486,73.8427 3.0496,73.8107 3.8006,73.8007 M7.1756,73.8717 C7.4206,73.8847 7.6476,73.8967 7.8506,73.9097 C11.5276,74.0067 15.2126,74.0487 18.8096,73.9097 C22.0856,73.7837 47.7496,74.0067 51.0386,73.9097 C52.3526,73.8567 54.7896,73.8817 57.1136,73.8837 M60.5486,73.8527 C61.1456,73.8377 61.5946,73.8167 61.9976,73.7837 L61.7186,72.5137 M2.3346,71.9297 C3.1996,71.8507 4.1466,71.8537 5.1136,71.8757 M8.4626,71.9297 C12.1126,71.8337 15.0636,71.8337 19.1506,71.8337 L54.6286,71.8337 C54.9636,71.8337 55.3406,71.8287 55.7476,71.8207 M59.0816,71.7497 C60.6236,71.7257 62.1526,71.7287 63.2346,71.8337 L61.7186,72.5137 C61.1256,72.5517 60.4226,72.5777 59.6516,72.5947 M56.2756,72.6217 C52.7016,72.6127 49.0106,72.5137 48.2836,72.5137 C41.5576,72.5137 20.0736,72.7087 8.0076,72.6197 M4.6356,72.5827 C3.4636,72.5647 2.4586,72.5417 1.6596,72.5137 C2.1156,71.9747 2.0016,72.3317 2.3346,71.9297 M57.0566,41.1787 L55.9596,42.0567 C55.0026,40.8257 52.8546,38.8137 51.6916,37.7877 C49.0236,35.2577 46.3886,32.6817 43.9426,30.0397 C41.7156,27.6337 39.2826,25.5167 37.0256,23.1227 C35.8896,21.8927 33.7296,19.8027 32.0066,18.0427 M30.5486,16.5077 C30.3806,16.3217 30.2266,16.1477 30.0926,15.9887 L30.5026,15.7257 M56.9916,40.2887 C55.7586,38.8067 53.9496,37.3237 52.5456,35.8427 C50.0336,33.1937 48.0596,31.2197 45.1696,28.3307 C42.0646,25.2247 39.0846,22.2457 35.9546,19.1147 C35.2396,18.3997 34.2486,17.4427 33.4146,16.5627 M32.8926,17.1247 C35.6166,19.9507 39.3056,23.4277 39.9596,24.0837 C45.7656,29.8877 51.0366,35.5707 57.0566,41.1787 C57.1146,40.4747 56.9436,40.8087 56.9916,40.2887 M33.9226,15.9887 C34.2216,14.7487 34.4216,14.9207 34.4216,14.9207 L33.9856,14.4057 M6.9586,41.1787 L8.0546,42.0567 C9.0126,40.8257 11.1606,38.8137 12.3226,37.7877 C14.9906,35.2577 17.6266,32.6817 20.0716,30.0397 C22.2986,27.6337 24.7316,25.5167 26.9896,23.1227 C28.4686,21.5187 31.6916,18.4547 33.4146,16.5627 C33.6036,16.3567 33.7736,16.1637 33.9226,15.9887 L32.8276,15.2887 M7.0226,40.2887 C8.2566,38.8067 10.0656,37.3237 11.4686,35.8427 C13.9816,33.1937 15.9556,31.2197 18.8446,28.3307 C21.9496,25.2247 24.9296,22.2457 28.0596,19.1147 C28.8436,18.3307 29.7426,17.3517 30.6606,16.3897 M32.1196,14.9107 C32.3946,14.6437 32.6666,14.3887 32.9336,14.1517 M33.2406,14.2037 L32.8276,15.2887 C32.6066,15.5397 32.3636,15.8077 32.1026,16.0887 M31.1306,17.1147 C28.4066,19.9427 24.7096,23.4277 24.0546,24.0837 C18.2496,29.8877 12.9786,35.5707 6.9586,41.1787 C6.8996,40.4747 7.0716,40.8087 7.0226,40.2887 M55.2646,61.0877 C55.7166,62.7727 56.0316,64.0007 56.2016,64.8167 C56.5736,66.1787 57.0696,67.7517 57.3176,69.1137 M55.4196,55.7497 C56.9426,61.2457 58.4356,66.6437 59.3276,71.8147 M8.8536,60.9097 C8.4016,62.5937 8.0386,64.0007 7.8686,64.8167 C7.4966,66.1787 6.9556,67.9887 6.7076,69.3517 M8.6816,55.5267 C7.1596,61.0227 5.6346,66.6437 4.7426,71.8147" id="Stroke-93" stroke="#212348" stroke-width="0.186" stroke-linecap="round" stroke-linejoin="round"></path>
                        <path d="M21.4608,48.9101 C26.0498,47.4351 29.4538,47.0641 31.9728,46.7281 C34.4488,46.3561 36.3718,47.0861 37.2178,47.6321 C39.0928,48.8421 41.1018,48.6671 43.3308,48.6671 M11.6278,57.4971 C13.7328,54.8961 14.9968,52.6711 18.5488,50.2571 M4.3728,64.5121 C3.6298,65.2551 2.1128,66.6079699 1.5258,65.7501 C1.6498,63.5211 2.1438,61.5401 2.2678,59.1881 C2.3918,56.3391 2.3918,52.8721 3.1348,50.0251 C4.0018,47.0531 4.8688,43.7091 5.8588,40.7381 C6.4788,38.6321 7.3448,36.6511 8.5838,34.9181 C11.0598,31.4511 15.0218,30.4601 17.9938,27.8601 C20.4408,25.5701 23.1948,22.0401 25.6708,19.6871 C27.0328,18.3251 28.7668,17.3351 30.0048,15.8491 C31.3668,14.3631 31.8628,13.7441 33.8438,14.3631 C37.3108,15.3531 37.3108,19.9351 40.2828,21.9161 C42.2638,23.2781 43.9978,23.8981 45.4838,25.7551 C46.7208,27.3651 47.8358,29.0981 49.1978,30.4601 C49.6928,31.0801 50.1888,31.5741 50.9318,32.0701 C53.0368,35.2891 54.6468,36.4041 56.5038,39.4991 C57.9898,41.8521 60.0068,44.6441 60.5898,47.4241 C60.8378,49.2811 60.5898,51.0151 60.7138,52.7491 C60.8378,54.7301 61.5808,56.2161 61.9518,58.0731 C62.3228,60.6741 62.9428,63.7691 62.6948,66.2461 C61.7048,67.1121 60.5898,66.2461 59.8468,65.5031 M46.1018,49.0341 C48.3308,51.2631 50.8168,53.4461 52.5418,56.2161" id="Stroke-95" stroke="#212348" stroke-width="0.371" stroke-linecap="round" stroke-linejoin="round"></path>
                        <path d="M56.2911,49.5666 C57.0561,50.5206 58.6581,52.0826 59.8771,52.4166 M47.1041,41.7186 C47.3281,42.3216 49.3911,43.9416 50.3321,43.9416 M32.2951,41.4966 C32.3881,42.2386 32.2021,44.1736 32.2951,44.9176 M12.6741,49.7466 C13.1511,50.8816 13.5591,53.0506 12.9551,54.4186 M13.2361,45.5206 C14.8361,45.1406 16.8841,43.7096 17.4361,42.9666 M3.8771,52.4396 C5.5491,51.6966 7.1041,50.3966 8.0561,49.2816 M34.8501,37.3146 C36.0561,37.9916 39.4461,37.7356 41.1641,37.0866 M22.5171,37.3146 C24.1261,37.8236 27.8901,37.8926 29.4631,37.4066 M34.6631,30.7656 C35.8081,31.2846 39.8351,31.4796 41.1641,30.6156 M22.4511,30.8936 C23.9621,31.2236 27.8901,31.4236 29.4631,30.9296 M32.1091,31.4796 C32.6861,33.0686 32.8931,35.5336 32.1091,37.0646 M32.1611,23.6806 C31.2681,25.4276 31.6111,27.5356 32.0161,29.5006 M8.4281,28.8506 C8.2421,29.8726 8.3351,30.8936 8.3351,31.9156 M43.3311,6.9336 C43.6871,7.5526 43.1611,9.3946 42.6341,9.9986 M42.0151,12.3816 C42.6341,14.1616 42.1051,17.6756 40.8661,19.0996 M34.7101,6.3146 C36.5051,6.5006 39.9381,8.2646 40.8661,9.9986 M25.7941,10.0906 C26.2901,9.2246 27.0941,8.2336 27.8991,7.6146 C28.7661,6.9336 29.7411,6.5006 30.6231,6.5006 M32.0481,8.5436 C32.3571,9.6576 32.2331,11.0196 32.2331,12.1346 M24.6801,14.4866 C24.6181,15.3536 24.8041,16.2206 25.1131,16.9636 M22.5131,8.7286 C22.6371,9.6576 22.6371,10.4006 22.9471,11.2676 M14.3401,23.7126 C14.4021,24.8886 14.2791,26.0026 14.8361,27.1176 M13.1641,18.5116 C13.2261,19.2546 13.1021,19.9356 13.4121,20.6156 M16.0121,18.6356 C16.1981,18.0426 17.1471,16.1656 18.3341,15.2876 C19.9081,14.1246 22.4511,13.6196 22.4511,13.6196 M9.3251,25.8786 C9.9451,24.3926 10.9971,23.4646 12.4211,22.8446 M1.5251,65.7506 C1.0601,64.8146 0.6661,61.3236 0.9061,59.2186 C1.1221,57.3236 2.4841,52.9966 2.4841,52.9966 C2.2981,51.8826 1.9811,47.4556 3.0731,44.2356 C4.0321,41.4046 5.3631,39.0276 5.3631,39.0276 C5.3631,39.0276 5.1461,35.1226 5.5791,32.8936 C6.2671,29.3496 8.0581,27.5356 8.0581,27.5356 C8.0581,27.5356 7.7281,24.4346 8.9301,21.7206 C10.3781,18.4496 12.6741,17.5486 12.6741,17.5486 C12.6741,17.5486 14.1261,14.0616 16.4341,11.9016 C19.8441,8.7126 22.2191,7.9556 22.2191,7.9556 C22.2191,7.9556 22.9161,4.5196 25.9851,2.0346 C28.5681,-0.0564 31.9861,0.5566 31.9861,0.5566 C31.9861,0.5566 35.8541,-0.0864 38.4461,1.7206 C41.9861,4.1886 43.4341,6.5006 43.4341,6.5006 C46.1281,8.1716 47.4791,10.2766 48.5941,12.5986 C48.9651,13.4346 49.7481,17.6406 49.7331,17.3826 C49.7331,17.3826 52.7941,19.5226 53.7491,22.1176 C54.3291,23.6966 54.6651,28.1796 54.6651,28.1796 C54.6651,28.1796 56.9921,30.5056 58.2721,34.0516 C59.0721,36.2646 59.3281,40.3666 59.3281,40.3666 C59.3281,40.3666 60.8711,42.4026 61.5181,45.8556 C61.9071,47.9316 61.7201,53.1156 61.7201,53.1156 C61.7201,53.1156 62.8011,56.9356 63.2351,58.9406 C63.6021,60.6356 63.1591,64.6666 62.6951,66.2456 M59.1341,41.2026 C59.0411,41.3886 58.8551,41.5736 58.6701,41.6666 M54.4911,28.7576 C54.5841,29.7796 54.2121,30.8936 53.5621,31.6366 M50.2191,23.0676 C51.0521,23.4646 53.3641,26.2506 53.0851,27.4576 M44.2441,14.6876 C45.4821,15.2446 47.0731,17.7996 47.3211,19.0996 M48.3301,21.5446 C48.5161,22.9066 48.3921,24.6406 47.6501,25.8166 M49.2351,17.4136 C49.3581,17.9716 49.2351,19.0996 48.5161,19.5636 M31.9861,1.2996 C32.1091,2.3526 32.1711,3.4046 32.1711,4.4576" id="Stroke-97" stroke="#878786" stroke-width="0.139" stroke-linecap="round" stroke-linejoin="round"></path>
                        <path d="M15.376,52.3684 C15.118,50.4174 14.889,48.0894 14.576,46.8564 C14.09,44.9404 14.133,44.9884 16.663,45.2114 C18.392,45.3644 20.144,45.3064 21.934,45.1304 C23.725,44.9794 25.463,44.7194 27.143,44.2554 C29.602,43.5774 29.637,43.5224 29.456,45.4994 C29.34,46.7704 29.477,49.1074 29.527,51.0774 C29.785,53.0284 30.014,55.3574 30.326,56.5894 C30.812,58.5054 30.769,58.4574 28.239,58.2344 C26.511,58.0824 24.757,58.1404 22.968,58.3154 C21.177,58.4664 19.439,58.7274 17.76,59.1904 C15.301,59.8694 15.265,59.9244 15.446,57.9474 C15.562,56.6764 15.425,54.3384 15.376,52.3684" id="Fill-99" fill="#FEFEFE"></path>
                        <path d="M15.376,52.3684 C15.118,50.4174 14.889,48.0894 14.576,46.8564 C14.09,44.9404 14.133,44.9884 16.663,45.2114 C18.392,45.3644 20.144,45.3064 21.934,45.1304 C23.725,44.9794 25.463,44.7194 27.143,44.2554 C29.602,43.5774 29.637,43.5224 29.456,45.4994 C29.34,46.7704 29.477,49.1074 29.527,51.0774 C29.785,53.0284 30.014,55.3574 30.326,56.5894 C30.812,58.5054 30.769,58.4574 28.239,58.2344 C26.511,58.0824 24.757,58.1404 22.968,58.3154 C21.177,58.4664 19.439,58.7274 17.76,59.1904 C15.301,59.8694 15.265,59.9244 15.446,57.9474 C15.562,56.6764 15.425,54.3384 15.376,52.3684 Z" id="Stroke-101" stroke="#212348" stroke-width="0.18" stroke-linecap="round" stroke-linejoin="round"></path>
                    </g>
                    <polygon id="Fill-104" fill="#212348" points="27.3478 44.1989 29.4378 45.7399 29.3738 47.2259 26.0028 44.5389"></polygon>
                    <g id="Group-119" transform="translate(27.000000, 44.000000)">
                        <path d="M1.2201,1.4883 C1.2201,1.4923 1.2141,1.5123 1.2081,1.5313 C1.1981,1.5653 1.1871,1.5993 1.1771,1.6323 C1.1681,1.6653 1.1621,1.6983 1.1481,1.7283 C1.1391,1.7473 1.1201,1.7633 1.1041,1.7723 L1.1041,1.7723 L1.0931,1.7783 C1.0771,1.7893 1.0621,1.7963 1.0431,1.8023 C1.0361,1.8043 1.0301,1.8043 1.0231,1.8003 C1.0091,1.7933 0.9951,1.7843 0.9821,1.7743 C0.9801,1.7723 0.9771,1.7703 0.9751,1.7693 C0.9681,1.7653 0.9451,1.7453 0.9381,1.7413" id="Stroke-105" stroke="#FEFEFE" stroke-width="0.008" stroke-linecap="round"></path>
                        <path d="M1.3557,1.7792 C1.3447,1.8002 1.3467,1.7992 1.3397,1.8082 C1.3327,1.8142 1.3207,1.8142 1.3137,1.8132 C1.2837,1.8112 1.2527,1.8082 1.2227,1.8022 C1.1837,1.7942 1.1617,1.7882 1.1357,1.7832 L1.1047,1.7752" id="Stroke-107" stroke="#FEFEFE" stroke-width="0.013" stroke-linecap="round" stroke-linejoin="bevel"></path>
                        <path d="M0.9619,1.0928 C0.9599,1.0768 0.9529,1.0598 0.9529,1.0428 C0.9539,1.0258 0.9569,1.0128 0.9719,1.0068 C0.9889,0.9998 1.0059,0.9938 1.0249,1.0018 C1.0339,1.0068 1.0399,1.0118 1.0399,1.0228 C1.0409,1.0358 1.0439,1.0458 1.0549,1.0548 C1.0719,1.0668 1.0869,1.0798 1.1029,1.0918 C1.1299,1.1138 1.1579,1.1368 1.1839,1.1588 C1.2129,1.1808 1.3339,1.2728 1.3619,1.2968 M1.3619,1.2968 C1.3889,1.3148 1.4099,1.3348 1.4339,1.3568 C1.4429,1.3648 1.4539,1.3778 1.4629,1.3888 C1.4639,1.3908 1.4679,1.3938 1.4689,1.3988 C1.4779,1.3978 1.4859,1.3938 1.4949,1.3928 C1.5049,1.3918 1.5129,1.3958 1.5189,1.4048 C1.5239,1.4148 1.5289,1.4248 1.5299,1.4368 C1.5309,1.4478 1.5259,1.4558 1.5219,1.4638 C1.5139,1.4768 1.5039,1.4868 1.4909,1.4888 C1.4809,1.4908 1.4719,1.4938 1.4609,1.4958 C1.4569,1.4968 1.4559,1.4988 1.4549,1.5018 C1.4489,1.5358 1.4219,1.6318 1.3559,1.7798" id="Stroke-109" stroke="#FEFEFE" stroke-width="0.013" stroke-linecap="round"></path>
                        <path d="M1.2201,1.4883 C1.2211,1.4773 1.2221,1.4663 1.2181,1.4563 C1.2131,1.4433 1.2041,1.4353 1.1961,1.4263 C1.1741,1.4033 1.1471,1.3873 1.1211,1.3703 C1.1131,1.3633 1.1041,1.3643 1.0931,1.3673 C1.0661,1.3763 1.0491,1.3983 1.0301,1.4173 C1.0111,1.4353 0.9921,1.4533 0.9741,1.4713 C0.9571,1.4903 0.9371,1.5063 0.9191,1.5263 C0.9111,1.5373 0.9031,1.5503 0.9011,1.5663 C0.8971,1.5873 0.8951,1.6103 0.8951,1.6323 C0.8951,1.6383 0.8951,1.6433 0.8951,1.6483 C0.8971,1.6603 0.9001,1.6823 0.9041,1.6923 C0.9041,1.6963 0.9071,1.7013 0.9101,1.7053 C0.9171,1.7203 0.9261,1.7333 0.9381,1.7413" id="Stroke-111" stroke="#FEFEFE" stroke-width="0.008"></path>
                        <path d="M0.9796,1.7239 C1.0006,1.7409 0.9976,1.7439 1.0086,1.7429 C1.0296,1.7419 1.0516,1.7339 1.0716,1.7279 C1.0786,1.7269 1.0936,1.7229 1.0986,1.7139 C1.1066,1.6959 1.1136,1.6899 1.1216,1.6719 C1.1276,1.6599 1.1266,1.6569 1.1176,1.6469 C1.0996,1.6289 1.0816,1.6119 1.0626,1.5959 C1.0346,1.5729 1.0506,1.5829 1.0166,1.5619 C1.0086,1.5559 1.0016,1.5479 0.9916,1.5439 C0.9846,1.5409 0.9796,1.5429 0.9756,1.5489 C0.9626,1.5639 0.9506,1.5809 0.9406,1.5989 C0.9366,1.6049 0.9376,1.6119 0.9396,1.6179 C0.9466,1.6449 0.9546,1.6729 0.9626,1.6999 C0.9646,1.7049 0.9646,1.7129 0.9796,1.7239 Z M0.9616,1.0929 C0.9496,1.1049 0.9376,1.1169 0.9266,1.1289 C0.9146,1.1429 0.9016,1.1569 0.8896,1.1709 L0.9616,1.0929 Z M0.8896,1.1709 C0.8786,1.1809 0.7896,1.2859 0.7796,1.2969 C0.7666,1.3109 0.7556,1.3249 0.7466,1.3409 C0.7366,1.3579 0.7346,1.3729 0.7426,1.3919 C0.7596,1.4319 0.7856,1.4809 0.7996,1.5029 C0.8276,1.5469 0.8746,1.6119 0.8916,1.6319 L0.8896,1.1709 Z" id="Stroke-113" stroke="#FEFEFE" stroke-width="0.013" stroke-linecap="round"></path>
                        <path d="M1.2357,1.4947 C1.2267,1.4977 1.2197,1.4997 1.2157,1.5107 L1.2207,1.4947 C1.2237,1.4927 1.2357,1.4907 1.2377,1.4877 C1.2477,1.4727 1.2647,1.4757 1.2707,1.4917 C1.2737,1.4997 1.2707,1.5077 1.2667,1.5147 C1.2627,1.5217 1.2557,1.5247 1.2477,1.5207 C1.2387,1.5157 1.2357,1.5067 1.2357,1.4947" id="Fill-115" fill="#FEFEFE"></path>
                        <path d="M1.0712,1.3596 C1.0672,1.3666 1.0602,1.3666 1.0552,1.3656 C1.0482,1.3626 1.0412,1.3586 1.0382,1.3506 C1.0362,1.3436 1.0392,1.3356 1.0432,1.3306 C1.0582,1.3096 1.0842,1.3376 1.0752,1.3526 C1.0722,1.3586 1.0782,1.3606 1.0802,1.3716 L1.0762,1.3736 C1.0762,1.3716 1.0742,1.3636 1.0712,1.3596" id="Fill-117" fill="#FEFEFE"></path>
                    </g>
                    <polygon id="Fill-120" fill="#212348" points="16.2993 53.4571 15.4173 53.5381 15.2443 51.3311 16.1263 51.2511"></polygon>
                    <g id="Group-139" transform="translate(15.000000, 45.000000)">
                        <path d="M0.8209,7.4511 C0.8179,7.4541 0.8009,7.4611 0.7839,7.4681 C0.7539,7.4791 0.7239,7.4901 0.6939,7.5031 C0.6669,7.5151 0.6399,7.5301 0.6099,7.5361 C0.5929,7.5401 0.5689,7.5321 0.5529,7.5241 L0.5519,7.5241 L0.5419,7.5191 C0.5239,7.5101 0.5099,7.5021 0.4939,7.4891 C0.4879,7.4851 0.4829,7.4781 0.4819,7.4691 C0.4779,7.4531 0.4749,7.4351 0.4739,7.4181 C0.4729,7.4141 0.4729,7.4111 0.4729,7.4081 C0.4719,7.4001 0.4699,7.3671 0.4689,7.3581" id="Stroke-121" stroke="#FEFEFE" stroke-width="0.008" stroke-linecap="round"></path>
                        <path d="M0.7069,7.7515 C0.6859,7.7555 0.6879,7.7555 0.6769,7.7545 C0.6699,7.7525 0.6609,7.7425 0.6569,7.7355 C0.6399,7.7075 0.6219,7.6785 0.6069,7.6475 C0.5879,7.6085 0.5779,7.5855 0.5659,7.5585 L0.5509,7.5265" id="Stroke-123" stroke="#FEFEFE" stroke-width="0.013" stroke-linecap="round" stroke-linejoin="bevel"></path>
                        <path d="M0.9276,6.9768 C0.9376,6.9648 0.9446,6.9498 0.9566,6.9388 C0.9686,6.9278 0.9796,6.9228 0.9926,6.9328 C1.0096,6.9428 1.0236,6.9548 1.0296,6.9768 C1.0326,6.9878 1.0316,6.9958 1.0246,7.0038 C1.0166,7.0118 1.0116,7.0208 1.0126,7.0368 C1.0156,7.0588 1.0166,7.0798 1.0186,7.1008 C1.0196,7.1388 1.0226,7.1778 1.0246,7.2148 C1.0276,7.2538 1.0406,7.4188 1.0426,7.4578 M1.0426,7.4578 C1.0466,7.4928 1.0466,7.5238 1.0466,7.5588 C1.0466,7.5718 1.0446,7.5898 1.0436,7.6038 C1.0426,7.6078 1.0416,7.6108 1.0396,7.6158 C1.0456,7.6228 1.0546,7.6278 1.0606,7.6348 C1.0676,7.6438 1.0696,7.6528 1.0666,7.6638 C1.0646,7.6748 1.0596,7.6858 1.0526,7.6928 C1.0456,7.7008 1.0376,7.7018 1.0276,7.7028 C1.0146,7.7048 1.0026,7.7008 0.9926,7.6918 C0.9846,7.6838 0.9766,7.6768 0.9686,7.6688 C0.9656,7.6658 0.9626,7.6668 0.9606,7.6678 C0.9336,7.6828 0.8496,7.7178 0.7076,7.7518" id="Stroke-125" stroke="#FEFEFE" stroke-width="0.013" stroke-linecap="round"></path>
                        <path d="M0.8209,7.4511 C0.8279,7.4451 0.8369,7.4391 0.8419,7.4291 C0.8479,7.4171 0.8469,7.4041 0.8479,7.3911 C0.8499,7.3581 0.8439,7.3241 0.8399,7.2901 C0.8379,7.2781 0.8319,7.2701 0.8229,7.2631 C0.7999,7.2461 0.7739,7.2431 0.7489,7.2381 C0.7249,7.2331 0.7009,7.2281 0.6769,7.2231 C0.6529,7.2181 0.6289,7.2121 0.6039,7.2081 C0.5909,7.2071 0.5769,7.2101 0.5649,7.2171 C0.5479,7.2271 0.5309,7.2391 0.5159,7.2521 C0.5119,7.2551 0.5089,7.2591 0.5049,7.2621 C0.4979,7.2711 0.4849,7.2881 0.4809,7.2971 C0.4779,7.3011 0.4769,7.3061 0.4759,7.3111 C0.4689,7.3271 0.4669,7.3431 0.4689,7.3591" id="Stroke-127" stroke="#FEFEFE" stroke-width="0.008"></path>
                        <path d="M0.5067,7.3846 C0.5087,7.4136 0.5057,7.4126 0.5117,7.4216 C0.5257,7.4386 0.5457,7.4536 0.5617,7.4676 C0.5677,7.4736 0.5797,7.4846 0.5887,7.4826 C0.6057,7.4786 0.6147,7.4816 0.6327,7.4776 C0.6447,7.4756 0.6467,7.4736 0.6467,7.4586 C0.6477,7.4316 0.6487,7.4046 0.6467,7.3786 C0.6457,7.3386 0.6487,7.3606 0.6417,7.3166 C0.6407,7.3056 0.6417,7.2956 0.6377,7.2836 C0.6357,7.2746 0.6307,7.2716 0.6237,7.2716 C0.6057,7.2696 0.5867,7.2696 0.5677,7.2716 C0.5607,7.2726 0.5567,7.2766 0.5537,7.2836 C0.5397,7.3066 0.5257,7.3306 0.5127,7.3546 C0.5107,7.3586 0.5047,7.3646 0.5067,7.3846 Z M0.9277,6.9766 C0.9117,6.9746 0.8967,6.9706 0.8807,6.9686 C0.8627,6.9666 0.8457,6.9636 0.8277,6.9616 L0.9277,6.9766 Z M0.8277,6.9616 C0.8147,6.9576 0.6857,6.9436 0.6727,6.9426 C0.6547,6.9406 0.6387,6.9386 0.6217,6.9406 C0.6037,6.9426 0.5917,6.9496 0.5837,6.9676 C0.5677,7.0086 0.5507,7.0606 0.5437,7.0876 C0.5317,7.1406 0.5167,7.2216 0.5137,7.2496 L0.8277,6.9616 Z" id="Stroke-129" stroke="#FEFEFE" stroke-width="0.013" stroke-linecap="round"></path>
                        <path d="M0.8165,7.4957 C0.8145,7.4847 0.8175,7.4767 0.8265,7.4687 C0.8195,7.4627 0.8125,7.4577 0.8035,7.4617 L0.8165,7.4547 C0.8205,7.4567 0.8295,7.4657 0.8325,7.4657 C0.8485,7.4657 0.8575,7.4817 0.8505,7.4987 C0.8465,7.5057 0.8395,7.5077 0.8325,7.5087 C0.8245,7.5087 0.8185,7.5047 0.8165,7.4957" id="Fill-131" fill="#FEFEFE"></path>
                        <path d="M0.8085,7.2527 C0.8095,7.2507 0.8135,7.2437 0.8145,7.2397 C0.8075,7.2397 0.8025,7.2337 0.8005,7.2287 C0.7975,7.2197 0.7965,7.2127 0.8005,7.2047 C0.8035,7.1977 0.8105,7.1957 0.8175,7.1957 C0.8415,7.1977 0.8375,7.2377 0.8225,7.2387 C0.8165,7.2397 0.8185,7.2457 0.8125,7.2547 L0.8085,7.2527 Z" id="Fill-133" fill="#FEFEFE"></path>
                        <g id="Group-138" transform="translate(20.000000, 0.000000)">
                            <path d="M6.5584,13.8439 C8.1804,14.2769 8.6004,14.4819 10.1054,15.1689 C12.3084,16.1759 12.3374,16.2309 12.2734,14.4669 C12.2314,13.3329 12.4734,11.3069 12.6184,9.5889 C12.9514,7.9219 13.2784,5.9189 13.6244,4.8909 C14.1644,3.2929 14.1224,3.3279 11.8094,3.0989 C10.2294,2.9439 9.7794,2.9499 8.1604,2.4959 C6.5384,2.0639 6.0454,1.7999 4.5404,1.1119 C2.3374,0.1059 2.3074,0.0519 2.3724,1.8149 C2.4144,2.9489 2.1714,4.9749 2.0264,6.6929 C1.6934,8.3599 1.3674,10.3629 1.0204,11.3899 C0.4814,12.9889 0.5234,12.9549 2.8364,13.1819 C4.4164,13.3379 5.1434,13.4459 6.7624,13.8999" id="Fill-135" fill="#FEFEFE"></path>
                            <path d="M6.5584,13.8439 C8.1804,14.2769 8.6004,14.4819 10.1054,15.1689 C12.3084,16.1759 12.3374,16.2309 12.2734,14.4669 C12.2314,13.3329 12.4734,11.3069 12.6184,9.5889 C12.9514,7.9219 13.2784,5.9189 13.6244,4.8909 C14.1644,3.2929 14.1224,3.3279 11.8094,3.0989 C10.2294,2.9439 9.7794,2.9499 8.1604,2.4959 C6.5384,2.0639 6.0454,1.7999 4.5404,1.1119 C2.3374,0.1059 2.3074,0.0519 2.3724,1.8149 C2.4144,2.9489 2.1714,4.9749 2.0264,6.6929 C1.6934,8.3599 1.3674,10.3629 1.0204,11.3899 C0.4814,12.9889 0.5234,12.9549 2.8364,13.1819 C4.4164,13.3379 5.1434,13.4459 6.7624,13.8999" id="Stroke-137" stroke="#212348" stroke-width="0.16" stroke-linecap="round" stroke-linejoin="round"></path>
                        </g>
                    </g>
                    <polygon id="Fill-140" fill="#212348" points="47.0015 48.1184 48.5615 50.0874 48.2205 51.3114 45.7425 47.9674"></polygon>
                    <g id="Group-155" transform="translate(47.000000, 48.000000)">
                        <path d="M0.5294,1.4815 C0.5284,1.4855 0.5194,1.4995 0.5104,1.5135 C0.4954,1.5395 0.4794,1.5635 0.4634,1.5885 C0.4494,1.6125 0.4374,1.6385 0.4194,1.6595 C0.4084,1.6715 0.3874,1.6795 0.3724,1.6815 L0.3714,1.6825 L0.3614,1.6825 C0.3444,1.6865 0.3304,1.6885 0.3124,1.6865 C0.3054,1.6865 0.2994,1.6845 0.2944,1.6785 C0.2834,1.6685 0.2724,1.6565 0.2634,1.6445 C0.2614,1.6415 0.2594,1.6395 0.2574,1.6375 C0.2524,1.6315 0.2364,1.6075 0.2304,1.6025" id="Stroke-141" stroke="#FEFEFE" stroke-width="0.008" stroke-linecap="round"></path>
                        <path d="M0.5938,1.769 C0.5808,1.784 0.5818,1.783 0.5738,1.788 C0.5668,1.791 0.5568,1.787 0.5498,1.785 C0.5238,1.773 0.4968,1.76 0.4708,1.745 C0.4388,1.726 0.4198,1.714 0.3978,1.701 L0.3718,1.684" id="Stroke-143" stroke="#FEFEFE" stroke-width="0.012" stroke-linecap="round" stroke-linejoin="bevel"></path>
                        <path d="M0.3755,1.0661 C0.3765,1.0521 0.3745,1.0361 0.3775,1.0221 C0.3805,1.0081 0.3865,0.9981 0.4005,0.9971 C0.4175,0.9971 0.4335,0.9981 0.4485,1.0101 C0.4565,1.0171 0.4595,1.0241 0.4585,1.0331 C0.4565,1.0441 0.4565,1.0541 0.4665,1.0651 C0.4785,1.0801 0.4895,1.0961 0.5005,1.1111 C0.5215,1.1381 0.5415,1.1661 0.5605,1.1931 C0.5815,1.2211 0.6715,1.3371 0.6915,1.3671 M0.6915,1.3671 C0.7115,1.3901 0.7265,1.4141 0.7445,1.4401 C0.7505,1.4501 0.7575,1.4641 0.7635,1.4761 C0.7655,1.4791 0.7665,1.4821 0.7675,1.4871 C0.7755,1.4891 0.7835,1.4881 0.7915,1.4901 C0.8005,1.4931 0.8065,1.4991 0.8105,1.5081 C0.8135,1.5181 0.8155,1.5281 0.8135,1.5381 C0.8135,1.5481 0.8065,1.5531 0.8015,1.5591 C0.7925,1.5671 0.7815,1.5721 0.7695,1.5691 C0.7595,1.5681 0.7505,1.5681 0.7415,1.5661 C0.7385,1.5651 0.7365,1.5661 0.7345,1.5681 C0.7225,1.5951 0.6805,1.6671 0.5935,1.7691" id="Stroke-145" stroke="#FEFEFE" stroke-width="0.012" stroke-linecap="round"></path>
                        <path d="M0.5294,1.4815 C0.5314,1.4725 0.5344,1.4635 0.5334,1.4535 C0.5314,1.4415 0.5254,1.4315 0.5194,1.4225 C0.5044,1.3955 0.4834,1.3735 0.4644,1.3505 C0.4584,1.3425 0.4494,1.3395 0.4404,1.3385 C0.4144,1.3385 0.3944,1.3505 0.3744,1.3595 C0.3534,1.3695 0.3344,1.3785 0.3144,1.3875 C0.2944,1.3975 0.2744,1.4045 0.2554,1.4155 C0.2454,1.4225 0.2364,1.4315 0.2314,1.4435 C0.2244,1.4605 0.2164,1.4785 0.2124,1.4965 C0.2114,1.5005 0.2104,1.5055 0.2094,1.5105 C0.2094,1.5205 0.2084,1.5405 0.2094,1.5495 C0.2094,1.5535 0.2104,1.5585 0.2124,1.5625 C0.2154,1.5775 0.2214,1.5905 0.2304,1.6025" id="Stroke-147" stroke="#FEFEFE" stroke-width="0.008"></path>
                        <path d="M0.2702,1.601 C0.2862,1.622 0.2832,1.623 0.2922,1.626 C0.3112,1.632 0.3322,1.633 0.3512,1.634 C0.3582,1.636 0.3712,1.637 0.3782,1.631 C0.3882,1.619 0.3952,1.616 0.4072,1.604 C0.4142,1.596 0.4142,1.593 0.4072,1.581 C0.3952,1.561 0.3822,1.54 0.3682,1.52 C0.3482,1.492 0.3612,1.506 0.3352,1.477 C0.3282,1.47 0.3242,1.461 0.3162,1.454 C0.3102,1.449 0.3052,1.449 0.3002,1.453 C0.2862,1.462 0.2722,1.472 0.2592,1.484 C0.2552,1.488 0.2542,1.493 0.2552,1.499 C0.2562,1.525 0.2582,1.55 0.2602,1.576 C0.2612,1.58 0.2592,1.587 0.2702,1.601 Z M0.3752,1.066 C0.3632,1.073 0.3502,1.079 0.3372,1.086 C0.3242,1.093 0.3092,1.1 0.2962,1.108 L0.3752,1.066 Z M0.2962,1.108 C0.2842,1.113 0.1852,1.172 0.1742,1.178 C0.1612,1.186 0.1482,1.194 0.1372,1.204 C0.1252,1.216 0.1202,1.228 0.1242,1.246 C0.1312,1.285 0.1442,1.335 0.1522,1.358 C0.1702,1.404 0.1982,1.473 0.2102,1.496 L0.2962,1.108 Z" id="Stroke-149" stroke="#FEFEFE" stroke-width="0.012" stroke-linecap="round"></path>
                        <path d="M0.5283,1.4865 C0.5323,1.4865 0.5423,1.4875 0.5443,1.4865 C0.5563,1.4775 0.5703,1.4845 0.5733,1.5015 C0.5743,1.5085 0.5703,1.5135 0.5653,1.5185 C0.5603,1.5225 0.5543,1.5235 0.5473,1.5175 C0.5403,1.5095 0.5393,1.5025 0.5413,1.4915 C0.5333,1.4915 0.5253,1.4905 0.5203,1.5005 L0.5283,1.4865 Z" id="Fill-151" fill="#FEFEFE"></path>
                        <path d="M0.4214,1.3253 C0.4164,1.3293 0.4104,1.3273 0.4064,1.3253 C0.4004,1.3203 0.3954,1.3153 0.3944,1.3073 C0.3924,1.2993 0.3974,1.2943 0.4024,1.2913 C0.4194,1.2793 0.4374,1.3113 0.4264,1.3203 C0.4234,1.3243 0.4274,1.3283 0.4274,1.3383 L0.4234,1.3383 C0.4234,1.3363 0.4224,1.3293 0.4214,1.3253" id="Fill-153" fill="#FEFEFE"></path>
                    </g>
                    <polygon id="Fill-156" fill="#212348" points="37.6382 52.9041 36.8402 52.6861 37.1092 50.7811 37.9072 50.9991"></polygon>
                    <g id="Group-171" transform="translate(37.000000, 51.000000)">
                        <path d="M0.4061,0.906 C0.4021,0.907 0.3861,0.908 0.3701,0.908 C0.3411,0.909 0.3121,0.908 0.2841,0.909 C0.2571,0.91 0.2311,0.914 0.2031,0.909 C0.1861,0.907 0.1661,0.892 0.1541,0.881 L0.1531,0.88 L0.1451,0.873 C0.1311,0.859 0.1201,0.848 0.1081,0.832 C0.1041,0.826 0.1011,0.819 0.1011,0.812 C0.1011,0.797 0.1021,0.781 0.1041,0.766 C0.1051,0.763 0.1051,0.76 0.1051,0.757 C0.1051,0.75 0.1111,0.722 0.1111,0.714" id="Stroke-157" stroke="#FEFEFE" stroke-width="0.008" stroke-linecap="round"></path>
                        <path d="M0.2472,1.1212 C0.2282,1.1172 0.2292,1.1182 0.2202,1.1142 C0.2142,1.1102 0.2092,1.0982 0.2062,1.0912 C0.1962,1.0622 0.1852,1.0322 0.1782,1.0022 C0.1692,0.9632 0.1652,0.9402 0.1582,0.9132 L0.1522,0.8812" id="Stroke-159" stroke="#FEFEFE" stroke-width="0.012" stroke-linecap="round" stroke-linejoin="bevel"></path>
                        <path d="M0.5919,0.5435 C0.6029,0.5365 0.6119,0.5255 0.6249,0.5205 C0.6369,0.5155 0.6479,0.5155 0.6579,0.5275 C0.6699,0.5415 0.6809,0.5555 0.6829,0.5765 C0.6829,0.5865 0.6809,0.5935 0.6729,0.5965 C0.6639,0.6015 0.6579,0.6075 0.6559,0.6205 C0.6539,0.6395 0.6509,0.6585 0.6479,0.6765 C0.6429,0.7085 0.6379,0.7415 0.6319,0.7735 C0.6269,0.8075 0.6079,0.9495 0.6009,0.9835 M0.6009,0.9835 C0.5979,1.0135 0.5919,1.0395 0.5859,1.0695 C0.5839,1.0805 0.5789,1.0945 0.5739,1.1065 C0.5729,1.1095 0.5709,1.1115 0.5689,1.1145 C0.5729,1.1235 0.5789,1.1295 0.5829,1.1375 C0.5879,1.1475 0.5879,1.1565 0.5839,1.1645 C0.5789,1.1725 0.5729,1.1805 0.5649,1.1845 C0.5579,1.1885 0.5499,1.1865 0.5419,1.1845 C0.5299,1.1815 0.5189,1.1745 0.5119,1.1635 C0.5069,1.1535 0.4999,1.1455 0.4949,1.1365 C0.4929,1.1335 0.4909,1.1325 0.4889,1.1325 C0.4609,1.1365 0.3799,1.1395 0.2469,1.1215" id="Stroke-161" stroke="#FEFEFE" stroke-width="0.012" stroke-linecap="round"></path>
                        <path d="M0.4061,0.906 C0.4141,0.903 0.4221,0.901 0.4291,0.895 C0.4361,0.886 0.4381,0.875 0.4411,0.865 C0.4491,0.837 0.4501,0.807 0.4531,0.777 C0.4551,0.767 0.4501,0.759 0.4441,0.75 C0.4261,0.727 0.4041,0.717 0.3831,0.704 C0.3621,0.692 0.3421,0.68 0.3221,0.668 C0.3011,0.657 0.2811,0.643 0.2601,0.633 C0.2481,0.628 0.2361,0.625 0.2231,0.627 C0.2071,0.63 0.1891,0.634 0.1731,0.641 C0.1691,0.642 0.1651,0.644 0.1621,0.646 C0.1541,0.651 0.1391,0.661 0.1331,0.667 C0.1311,0.669 0.1281,0.673 0.1261,0.677 C0.1181,0.688 0.1131,0.7 0.1111,0.714" id="Stroke-163" stroke="#FEFEFE" stroke-width="0.008"></path>
                        <path d="M0.1396,0.7484 C0.1356,0.7734 0.1326,0.7714 0.1376,0.7814 C0.1466,0.8004 0.1616,0.8194 0.1726,0.8364 C0.1776,0.8434 0.1856,0.8564 0.1936,0.8574 C0.2106,0.8604 0.2166,0.8644 0.2336,0.8684 C0.2446,0.8704 0.2466,0.8684 0.2506,0.8564 C0.2556,0.8334 0.2616,0.8114 0.2656,0.7884 C0.2716,0.7554 0.2706,0.7744 0.2726,0.7354 C0.2736,0.7254 0.2766,0.7174 0.2756,0.7064 C0.2756,0.6984 0.2716,0.6944 0.2656,0.6914 C0.2496,0.6844 0.2326,0.6784 0.2156,0.6734 C0.2096,0.6724 0.2056,0.6754 0.2016,0.6784 C0.1846,0.6944 0.1676,0.7104 0.1516,0.7254 C0.1486,0.7284 0.1416,0.7304 0.1396,0.7484 Z M0.5916,0.5434 C0.5786,0.5364 0.5656,0.5284 0.5506,0.5214 C0.5366,0.5134 0.5216,0.5054 0.5066,0.4984 L0.5916,0.5434 Z M0.5066,0.4984 C0.4956,0.4904 0.3826,0.4364 0.3716,0.4314 C0.3566,0.4244 0.3426,0.4174 0.3266,0.4134 C0.3106,0.4094 0.2986,0.4124 0.2886,0.4244 C0.2656,0.4524 0.2406,0.4914 0.2296,0.5114 C0.2096,0.5514 0.1796,0.6154 0.1716,0.6384 L0.5066,0.4984 Z" id="Stroke-165" stroke="#FEFEFE" stroke-width="0.012" stroke-linecap="round"></path>
                        <path d="M0.4018,0.908 C0.4048,0.911 0.4108,0.921 0.4138,0.922 C0.4278,0.927 0.4328,0.944 0.4238,0.955 C0.4188,0.961 0.4118,0.96 0.4048,0.958 C0.3978,0.956 0.3938,0.951 0.3938,0.942 C0.3938,0.932 0.3978,0.926 0.4078,0.923 C0.4018,0.915 0.3978,0.908 0.3878,0.908 L0.4018,0.908 Z" id="Fill-167" fill="#FEFEFE"></path>
                        <path d="M0.4517,0.6911 C0.4727,0.7001 0.4617,0.7331 0.4477,0.7291 C0.4427,0.7271 0.4427,0.7331 0.4357,0.7391 L0.4327,0.7361 C0.4347,0.7351 0.4397,0.7301 0.4407,0.7261 C0.4347,0.7251 0.4317,0.7181 0.4307,0.7131 C0.4297,0.7051 0.4307,0.6981 0.4347,0.6931 C0.4387,0.6871 0.4457,0.6891 0.4517,0.6911" id="Fill-169" fill="#FEFEFE"></path>
                    </g>
                </g>
            </g>
        </g>
    </g>
</svg>