<?xml version="1.0" encoding="UTF-8"?>
<svg width="72px" height="58px" viewBox="0 0 72 58" version="1.1" xmlns="http://www.w3.org/2000/svg" xmlns:xlink="http://www.w3.org/1999/xlink">
    <title>Group</title>
    <g id="Page-1" stroke="none" stroke-width="1" fill="none" fill-rule="evenodd">
        <g id="Desktop" transform="translate(-529.000000, -833.000000)">
            <g id="Group" transform="translate(525.000000, 823.000000)">
                <g id="Group-5" transform="translate(5.000000, 28.000000)">
                    <path d="M0.4824,2.2442 C0.9994,2.7802 1.2834,3.7992 1.2314,4.2082 C1.1324,4.9572 1.1714,5.7022 1.1324,6.4422 C1.0074,8.8072 0.8954,11.1712 0.7364,13.5312 C0.5434,16.4582 0.4184,19.4102 0.6674,22.3152 C1.0074,26.2172 0.8184,30.1102 0.8224,33.9982 C0.8224,35.1612 0.9564,36.3802 0.6164,37.5432 L14.2354,36.6242 C14.7694,35.5532 14.4474,34.4302 14.3474,33.3452 C13.9134,28.6292 13.5514,23.9132 13.4394,19.1712 C13.3494,15.4082 13.0694,11.6502 12.9524,7.8882 C12.8884,5.7282 12.5094,3.4502 14.6744,1.7172 C14.2224,1.3912 14.1024,1.0512 13.5984,0.8942 C12.4584,2.6272 9.8794,1.9172 7.9344,1.9132 C6.2204,2.0612 4.6884,1.5692 2.9444,2.0962 C2.4024,2.2612 2.2214,2.0792 0.9044,0.8422 C0.4824,1.0902 -0.2406,1.4342 0.4824,2.2442" id="Fill-3" fill="#FEFEFE"></path>
                    <path d="M0.4824,2.2442 C0.9994,2.7802 1.2834,3.7992 1.2314,4.2082 C1.1324,4.9572 1.1714,5.7022 1.1324,6.4422 C1.0074,8.8072 0.8954,11.1712 0.7364,13.5312 C0.5434,16.4582 0.4184,19.4102 0.6674,22.3152 C1.0074,26.2172 0.8184,30.1102 0.8224,33.9982 C0.8224,35.1612 0.9564,36.3802 0.6164,37.5432 L14.2354,36.6242 C14.7694,35.5532 14.4474,34.4302 14.3474,33.3452 C13.9134,28.6292 13.5514,23.9132 13.4394,19.1712 C13.3494,15.4082 13.0694,11.6502 12.9524,7.8882 C12.8884,5.7282 12.5094,3.4502 14.6744,1.7172 C14.2224,1.3912 14.1024,1.0512 13.5984,0.8942 C12.4584,2.6272 9.8794,1.9172 7.9344,1.9132 C6.2204,2.0612 4.6884,1.5692 2.9444,2.0962 C2.4024,2.2612 2.2214,2.0792 0.9044,0.8422 C0.4824,1.0902 -0.2406,1.4342 0.4824,2.2442" id="Stroke-4" stroke="#1F2548" stroke-width="0.5" stroke-linecap="round" stroke-linejoin="round"></path>
                </g>
                <g id="Group-8" transform="translate(49.000000, 30.000000)">
                    <path d="M0.8269,2.3702 C1.3439,2.9062 1.6279,3.9252 1.5759,4.3342 C1.4769,5.0832 1.5159,5.8282 1.4769,6.5682 C1.3519,8.9332 1.2399,11.2972 1.0809,13.6572 C0.8879,16.5842 0.7629,19.5362 1.0119,22.4412 C1.3519,26.3432 1.1629,30.2362 1.1669,34.1242 C1.1669,35.2872 1.3009,36.5062 0.9609,37.6692 L14.5799,36.7502 C15.1139,35.6792 14.7919,34.5562 14.6919,33.4712 C14.2579,28.7552 13.8959,24.0392 13.7839,19.2972 C13.6939,15.5342 13.4139,11.7762 13.2969,8.0142 C13.2329,5.8542 12.8539,3.5762 15.0189,1.8432 C14.5669,1.5172 14.4469,1.1772 13.9429,1.0202 C12.8029,2.7532 10.2239,2.0432 8.2789,2.0392 C6.5649,2.1872 5.0329,1.6952 3.2889,2.2222 C2.7469,2.3872 2.5659,2.2052 1.2489,0.9682 C0.8269,1.2162 0.1039,1.5602 0.8269,2.3702" id="Fill-6" fill="#FEFEFE"></path>
                    <path d="M0.8269,2.3702 C1.3439,2.9062 1.6279,3.9252 1.5759,4.3342 C1.4769,5.0832 1.5159,5.8282 1.4769,6.5682 C1.3519,8.9332 1.2399,11.2972 1.0809,13.6572 C0.8879,16.5842 0.7629,19.5362 1.0119,22.4412 C1.3519,26.3432 1.1629,30.2362 1.1669,34.1242 C1.1669,35.2872 1.3009,36.5062 0.9609,37.6692 L14.5799,36.7502 C15.1139,35.6792 14.7919,34.5562 14.6919,33.4712 C14.2579,28.7552 13.8959,24.0392 13.7839,19.2972 C13.6939,15.5342 13.4139,11.7762 13.2969,8.0142 C13.2329,5.8542 12.8539,3.5762 15.0189,1.8432 C14.5669,1.5172 14.4469,1.1772 13.9429,1.0202 C12.8029,2.7532 10.2239,2.0432 8.2789,2.0392 C6.5649,2.1872 5.0329,1.6952 3.2889,2.2222 C2.7469,2.3872 2.5659,2.2052 1.2489,0.9682 C0.8269,1.2162 0.1039,1.5602 0.8269,2.3702" id="Stroke-7" stroke="#1F2548" stroke-width="0.5" stroke-linecap="round" stroke-linejoin="round"></path>
                </g>
                <g id="Group-11" transform="translate(16.000000, 21.000000)">
                    <path d="M1.2041,2.0515 C1.7211,2.5875 2.0051,3.6065 1.9531,4.0155 C1.8541,4.7645 1.8931,5.5095 1.8541,6.2495 C1.7291,8.6145 1.6171,10.9785 1.4581,13.3385 C1.2651,16.2655 1.1401,19.2175 1.3891,22.1225 C1.7291,26.0245 1.5401,29.9175 1.5441,33.8055 C1.5441,34.9685 1.6781,36.1875 1.3381,37.3505 L14.9571,36.4315 C15.4911,35.3605 15.1691,34.2375 15.0691,33.1525 C14.6351,28.4365 14.2731,23.7205 14.1611,18.9785 C14.0711,15.2155 13.7911,11.4575 13.6741,7.6955 C13.6101,5.5355 13.2311,3.2575 15.3961,1.5245 C14.9441,1.1985 14.8241,0.8585 14.3201,0.7015 C13.1801,2.4345 10.6011,1.7245 8.6561,1.7205 C6.9421,1.8685 5.4101,1.3765 3.6661,1.9035 C3.1241,2.0685 2.9431,1.8865 1.6261,0.6495 C1.2041,0.8975 0.4811,1.2415 1.2041,2.0515" id="Fill-9" fill="#FEFEFE"></path>
                    <path d="M1.2041,2.0515 C1.7211,2.5875 2.0051,3.6065 1.9531,4.0155 C1.8541,4.7645 1.8931,5.5095 1.8541,6.2495 C1.7291,8.6145 1.6171,10.9785 1.4581,13.3385 C1.2651,16.2655 1.1401,19.2175 1.3891,22.1225 C1.7291,26.0245 1.5401,29.9175 1.5441,33.8055 C1.5441,34.9685 1.6781,36.1875 1.3381,37.3505 L14.9571,36.4315 C15.4911,35.3605 15.1691,34.2375 15.0691,33.1525 C14.6351,28.4365 14.2731,23.7205 14.1611,18.9785 C14.0711,15.2155 13.7911,11.4575 13.6741,7.6955 C13.6101,5.5355 13.2311,3.2575 15.3961,1.5245 C14.9441,1.1985 14.8241,0.8585 14.3201,0.7015 C13.1801,2.4345 10.6011,1.7245 8.6561,1.7205 C6.9421,1.8685 5.4101,1.3765 3.6661,1.9035 C3.1241,2.0685 2.9431,1.8865 1.6261,0.6495 C1.2041,0.8975 0.4811,1.2415 1.2041,2.0515" id="Stroke-10" stroke="#1F2548" stroke-width="0.5" stroke-linecap="round" stroke-linejoin="round"></path>
                </g>
                <g id="Group-14" transform="translate(61.000000, 18.000000)">
                    <path d="M0.5488,1.5082 C1.0658,2.0442 1.3498,3.0632 1.2978,3.4722 C1.1988,4.2212 1.2378,4.9662 1.1988,5.7062 C1.0738,8.0712 0.9618,10.4352 0.8028,12.7952 C0.6098,15.7222 0.4848,18.6742 0.7338,21.5792 C1.0738,25.4812 0.8848,29.3742 0.8888,33.2622 C0.8888,34.4252 1.0228,35.6442 0.6828,36.8072 L14.3018,35.8882 C14.8358,34.8172 14.5138,33.6942 14.4138,32.6092 C13.9798,27.8932 13.6178,23.1772 13.5058,18.4352 C13.4158,14.6722 13.1358,10.9142 13.0188,7.1522 C12.9548,4.9922 12.5758,2.7142 14.7408,0.9812 C14.2888,0.6552 14.1688,0.3152 13.6648,0.1582 C12.5248,1.8912 9.9458,1.1812 8.0008,1.1772 C6.2868,1.3252 4.7548,0.8332 3.0108,1.3602 C2.4688,1.5252 2.2878,1.3432 0.9708,0.1062 C0.5488,0.3542 -0.1742,0.6982 0.5488,1.5082" id="Fill-12" fill="#FEFEFE"></path>
                    <path d="M0.5488,1.5082 C1.0658,2.0442 1.3498,3.0632 1.2978,3.4722 C1.1988,4.2212 1.2378,4.9662 1.1988,5.7062 C1.0738,8.0712 0.9618,10.4352 0.8028,12.7952 C0.6098,15.7222 0.4848,18.6742 0.7338,21.5792 C1.0738,25.4812 0.8848,29.3742 0.8888,33.2622 C0.8888,34.4252 1.0228,35.6442 0.6828,36.8072 L14.3018,35.8882 C14.8358,34.8172 14.5138,33.6942 14.4138,32.6092 C13.9798,27.8932 13.6178,23.1772 13.5058,18.4352 C13.4158,14.6722 13.1358,10.9142 13.0188,7.1522 C12.9548,4.9922 12.5758,2.7142 14.7408,0.9812 C14.2888,0.6552 14.1688,0.3152 13.6648,0.1582 C12.5248,1.8912 9.9458,1.1812 8.0008,1.1772 C6.2868,1.3252 4.7548,0.8332 3.0108,1.3602 C2.4688,1.5252 2.2878,1.3432 0.9708,0.1062 C0.5488,0.3542 -0.1742,0.6982 0.5488,1.5082" id="Stroke-13" stroke="#1F2548" stroke-width="0.5" stroke-linecap="round" stroke-linejoin="round"></path>
                </g>
                <path d="M51.8926,39.5818 C52.2936,44.4558 52.1206,49.3298 51.7956,54.1618 C51.4846,58.7518 51.5256,63.3358 51.4566,67.9198 L28.1036,67.0828 C28.0906,59.5128 28.2766,51.9428 28.5186,44.3728 C28.8016,35.6278 28.7056,26.8758 28.7396,18.1298 C28.7476,16.6708 28.8376,15.2058 28.9616,13.7538 C28.8096,10.5458 28.8096,10.5458 30.8626,9.9998 C31.5126,11.0858 31.2976,12.4338 31.9066,13.5468 C35.9716,13.5468 40.0706,13.4218 44.1636,13.5878 C46.9426,13.6988 49.3486,13.4918 50.2956,10.3038 C51.0356,11.0508 51.6646,11.6728 52.4046,12.4058 C49.4036,15.8838 50.7726,20.0378 50.8836,23.9578 C51.0216,29.1778 51.4636,34.3828 51.8926,39.5818 M46.6866,33.1318 C47.7236,28.9908 48.2496,26.1908 45.2076,23.5428 C44.1216,22.5958 42.9816,22.2778 41.3846,22.1678 C40.1336,22.1678 39.0136,22.2918 37.8996,22.6648 C34.9966,23.6328 32.9296,26.8198 33.5386,29.7928 C34.4156,34.0588 36.3716,35.6208 40.8316,35.6278 C41.5916,35.6278 42.3656,35.5648 43.1196,35.6408 C45.0556,35.8348 46.1956,35.0948 46.6866,33.1318" id="Fill-15" fill="#1F2548"></path>
                <path d="M45.094,25.9345 C44.916,25.4395 44.813,24.9175 44.058,24.9305 C41.847,24.9695 39.617,24.1775 37.393,25.2345 C36.083,28.0745 36.988,30.0165 40.125,30.9085 C41.319,31.2455 43.927,29.6805 44.607,28.3195 C44.942,27.6385 45.08,26.6215 45.094,25.9345 Z" id="Stroke-16" stroke="#1F2548" stroke-linecap="round" stroke-linejoin="round"></path>
                <path d="M34.6672,19.91 C34.6672,19.91 34.7012,20.847 34.9142,20.938 M45.5822,21.182 C45.5822,21.182 46.0142,20.324 45.9732,19.715" id="Stroke-17" stroke="#FEFEFE" stroke-linecap="round"></path>
            </g>
        </g>
    </g>
</svg>