<?xml version="1.0" encoding="UTF-8"?>
<svg width="70px" height="34px" viewBox="0 0 70 34" version="1.1" xmlns="http://www.w3.org/2000/svg" xmlns:xlink="http://www.w3.org/1999/xlink">
    <title>Group</title>
    <defs>
        <polygon id="path-1" points="0.000107692308 0.536823529 51.3682615 0.536823529 51.3682615 16.7970706 0.000107692308 16.7970706"></polygon>
        <polygon id="path-3" points="0.680938462 0.577588235 52.0681538 0.577588235 52.0681538 17.8035882 0.680938462 17.8035882"></polygon>
    </defs>
    <g id="Page-1" stroke="none" stroke-width="1" fill="none" fill-rule="evenodd">
        <g id="Desktop" transform="translate(-416.000000, -3894.000000)">
            <g id="Group" transform="translate(416.000000, 3893.000000)">
                <g id="Group-16" transform="translate(0.000000, 0.522000)">
                    <path d="M24.3010923,16.1735294 C24.3010923,16.0761176 24.3366308,15.9967059 24.3721692,15.9416471 C24.4098615,15.8844706 24.4486308,15.8452941 24.4895538,15.8114118 C24.5703231,15.7436471 24.6564769,15.6928235 24.7630923,15.6377647 C24.9741692,15.5318824 25.2627846,15.4185882 25.6472462,15.2851765 C26.4161692,15.0183529 27.5674,14.6731765 29.1461692,14.22 C36.1526308,12.2071765 46.5018615,8.92058824 49.6820154,7.96129412 C50.1386308,7.82364706 50.4412462,7.73470588 50.5920154,7.69870588 C51.1746308,7.55894118 51.6926308,7.51235294 52.1255538,7.51235294 C52.9052462,7.51235294 53.4049385,7.66482353 53.5169385,7.70294118 C53.5557077,7.71247059 53.6623231,7.73788235 53.8346308,7.77917647 C54.0554,7.83105882 54.3827846,7.90835294 54.8092462,8.00788235 C55.6632462,8.20694118 56.9146308,8.49494118 58.5063231,8.84858824 C59.2935538,9.02435294 60.3123231,9.23505882 61.2557077,9.44576471 C62.2012462,9.65858824 63.0627846,9.86717647 63.5786308,10.0556471 C63.7283231,10.1117647 63.8489385,10.1615294 63.9577077,10.2324706 C64.0158615,10.2727059 64.0772462,10.3129412 64.1375538,10.4092941 C64.1666308,10.458 64.1946646,10.53 64.1946646,10.6136471 C64.1957077,10.6898824 64.1709385,10.7618824 64.1407846,10.8137647 C64.1095538,10.8656471 64.0750923,10.9016471 64.0427846,10.9291765 C63.9781692,10.9842353 63.9200154,11.0149412 63.8586308,11.0435294 C63.7380154,11.0996471 63.5990923,11.1451765 63.4289385,11.1981176 C63.0907846,11.3008235 62.6341692,11.4268235 62.1043231,11.6131765 C59.6101692,12.4867059 54.9061692,13.9764706 50.1957077,15.4757647 C45.4852462,16.9729412 40.7683231,18.4796471 38.2730923,19.3754118 C37.3383231,19.7110588 36.6480154,19.8074118 36.4154,19.8285882 C36.3787846,19.8317647 36.3594,19.8328235 36.3270923,19.8338824 L36.3249385,19.8338824 L36.3141692,19.8338824 L36.2764769,19.8349412 C36.2463231,19.836 36.2043231,19.8370588 36.1547846,19.8370588 C35.8790923,19.8370588 35.3438615,19.8105882 34.6557077,19.6274118 C31.3570923,18.7485882 29.8224769,18.2467059 26.8458615,17.4388235 C26.3160154,17.2948235 25.8830923,17.1688235 25.5363231,17.0544706 C25.1895538,16.9390588 24.9300154,16.8384706 24.7318615,16.7304706 C24.5994,16.6563529 24.4895538,16.5854118 24.3969385,16.4594118 C24.3441692,16.3874118 24.3010923,16.2857647 24.3010923,16.1735294 L24.6467846,16.1735294 L24.3010923,16.1735294 Z M6.37247692,10.9990588 C6.37247692,10.9027059 6.40801538,10.8222353 6.44355385,10.7671765 C6.48124615,10.71 6.52109231,10.6718824 6.56093846,10.6369412 C6.64063077,10.5691765 6.72786154,10.5183529 6.83447692,10.4643529 C7.04555385,10.3574118 7.33416923,10.2441176 7.71863077,10.1107059 C8.48755385,9.84388235 9.63878462,9.49976471 11.2175538,9.04552941 C18.2304769,7.03164706 28.5743231,3.99917647 31.7523231,3.10447059 C32.2078615,2.97635294 32.5126308,2.89270588 32.6558615,2.85776471 C33.5346308,2.64811765 34.3509385,2.59729412 34.9464769,2.59623529 C35.5269385,2.59729412 35.8974,2.646 35.9092462,2.64705882 L35.9232462,2.64917647 L35.9372462,2.65235294 C35.9372462,2.65235294 37.3932462,2.96576471 40.5777077,3.67411765 C41.3649385,3.84988235 42.3837077,4.06058824 43.3270923,4.27129412 C44.2737077,4.48411765 45.1341692,4.69270588 45.6500154,4.88117647 C45.7997077,4.93729412 45.9203231,4.98705882 46.0290923,5.058 C46.0872462,5.09823529 46.1486308,5.13952941 46.2089385,5.23482353 C46.2390923,5.28458824 46.2660492,5.35552941 46.2660492,5.43917647 C46.2670923,5.51541176 46.2423231,5.58741176 46.2121692,5.63929412 C46.1809385,5.69117647 46.1464769,5.72717647 46.1141692,5.75576471 C46.0495538,5.81082353 45.9914,5.84047059 45.9300154,5.87011765 C45.8094,5.92517647 45.6704769,5.97070588 45.5003231,6.02364706 C45.1621692,6.12741176 44.7066308,6.25235294 44.1757077,6.43870588 C41.6815538,7.31223529 36.9786308,8.80305882 32.2670923,10.3012941 C27.5577077,11.7995294 22.8397077,13.3051765 20.3455538,14.2009412 C19.4097077,14.5365882 18.7194,14.6329412 18.4867846,14.6541176 C18.4512462,14.6572941 18.4307846,14.6594118 18.3984769,14.6594118 L18.3963231,14.6594118 L18.3855538,14.6594118 L18.3478615,14.6604706 C18.3177077,14.6615294 18.2757077,14.6625882 18.2261692,14.6625882 C17.9504769,14.6625882 17.4152462,14.6371765 16.7270923,14.4529412 C13.4284769,13.5741176 11.8938615,13.0722353 8.91724615,12.2643529 C8.3874,12.1203529 7.95447692,11.9943529 7.60770769,11.88 C7.26093846,11.7645882 7.0014,11.664 6.80324615,11.556 C6.67186154,11.4818824 6.56093846,11.4109412 6.46832308,11.2849412 C6.41555385,11.2129412 6.37247692,11.1112941 6.37247692,10.9990588 L6.57601538,10.9990588 L6.37247692,10.9990588 Z M35.2717077,1.07047059 C35.1629385,1.07047059 35.0574,1.07258824 34.9540154,1.07682353 C31.0641692,1.21764706 20.3121692,5.544 11.7549385,7.69658824 C3.19770769,9.84917647 0.691707692,10.5194118 0.691707692,10.5194118 L0.691707692,16.7971765 C0.950169231,17.7109412 5.56801538,18.6194118 9.42878462,19.6676471 C12.9449385,20.6216471 15.7180154,21.6010588 18.0850923,21.6010588 C18.2660154,21.6010588 18.4437077,21.5957647 18.6203231,21.5841176 L18.6203231,21.9716471 C18.8787846,22.8843529 23.4966308,23.7938824 27.3574,24.8421176 C30.8746308,25.7961176 33.6487846,26.7787059 36.0158615,26.7787059 C36.2484769,26.7787059 36.4757077,26.7691765 36.6997077,26.7490588 C39.2154,26.5277647 62.6147846,18.3843529 66.5918615,16.992 C69.8700154,15.8442353 68.4495538,14.2390588 68.8674,11.0647059 C69.1775538,8.70670588 63.9652462,8.69611765 63.9652462,8.69611765 C63.9652462,8.69611765 57.1504769,6.24494118 53.1992462,6.24494118 C53.0915538,6.24494118 52.9860154,6.24705882 52.8815538,6.25129412 C52.8320154,6.25235294 52.7803231,6.25341176 52.7286308,6.25341176 C52.6026308,6.25341176 52.4701692,6.24917647 52.3312462,6.24494118 C52.1923231,6.23964706 52.0469385,6.23541176 51.8961692,6.23541176 C51.5860154,6.23541176 51.2500154,6.25447059 50.8903231,6.32964706 C50.9032462,6.12105882 50.9097077,6.11470588 50.9387846,5.89023529 C51.2489385,3.53329412 46.0355538,3.52164706 46.0355538,3.52164706 C46.0355538,3.52164706 39.2218615,1.07047059 35.2717077,1.07047059 L35.2717077,1.07047059 Z" id="Fill-1" fill="#BBB8BF"></path>
                    <path d="M6.7186,10.9993765 C6.7186,11.2354941 7.4046,11.5012588 9.00921538,11.9364353 C11.9944462,12.7474941 13.5269077,13.2483176 16.8179846,14.1250235 C17.7107538,14.3632588 18.3213692,14.3198471 18.3989077,14.3198471 C18.4710615,14.3187882 19.1958308,14.2520824 20.2264462,13.8825529 C25.2395231,12.0814941 39.0930615,7.85890588 44.0598308,6.1182 C45.1453692,5.73808235 45.9196769,5.60678824 45.9196769,5.43949412 C45.9196769,5.1102 42.4939846,4.44949412 40.5016769,4.00584706 C37.3172154,3.29749412 35.8633692,2.98408235 35.8633692,2.98408235 C35.8633692,2.98408235 34.4030615,2.78925882 32.7381385,3.18843529 C31.6989077,3.43725882 19.3304462,7.07008235 11.3149077,9.37196471 C8.16167692,10.2783176 6.7186,10.7473765 6.7186,10.9993765" id="Fill-3" fill="#FEFEFE"></path>
                    <path d="M6.7186,10.9993765 L6.37290769,10.9993765 C6.37290769,11.1116118 6.41598462,11.2132588 6.46875385,11.2852588 C6.56136923,11.4112588 6.67121538,11.4822 6.80367692,11.5563176 C7.00183077,11.6643176 7.26136923,11.7649059 7.60813846,11.8803176 C7.95490769,11.9946706 8.38675385,12.1206706 8.91767692,12.2646706 C11.8942923,13.0725529 13.4289077,13.5744353 16.7275231,14.4532588 C17.4156769,14.6364353 17.9509077,14.6629059 18.2255231,14.6629059 C18.2761385,14.6629059 18.3181385,14.6618471 18.3482923,14.6607882 L18.3859846,14.6597294 L18.3967538,14.6597294 L18.3989077,14.6597294 C18.4312154,14.6586706 18.4516769,14.6576118 18.4872154,14.6544353 C18.7198308,14.6332588 19.4101385,14.5369059 20.3449077,14.2012588 C22.8390615,13.3054941 27.5570615,11.7987882 32.2675231,10.3016118 C36.9790615,8.80231765 41.6819846,7.31255294 44.1761385,6.43796471 C44.7059846,6.25267059 45.1626,6.12667059 45.5007538,6.02290588 C45.6709077,5.97102353 45.8098308,5.92549412 45.9304462,5.86937647 C45.9918308,5.84078824 46.0489077,5.81008235 46.1146,5.75502353 C46.1458308,5.72749412 46.1813692,5.69149412 46.2126,5.63961176 C46.2427538,5.58772941 46.2675231,5.51572941 46.26648,5.43949412 C46.26648,5.35584706 46.2384462,5.28384706 46.2093692,5.23514118 C46.1490615,5.13878824 46.0876769,5.09855294 46.0295231,5.05831765 C45.9196769,4.98737647 45.8001385,4.93761176 45.6493692,4.88149412 C45.1346,4.69302353 44.2741385,4.48443529 43.3275231,4.27161176 C42.3841385,4.06090588 41.3653692,3.8502 40.5759846,3.67443529 C37.3926,2.96608235 35.9387538,2.65267059 35.9387538,2.65267059 L35.9236769,2.64949412 L35.9096769,2.64737647 C35.8978308,2.64525882 35.5273692,2.59655294 34.9469077,2.59655294 C34.3513692,2.59655294 33.5339846,2.64737647 32.6562923,2.85808235 C32.5119846,2.89196471 32.2082923,2.97561176 31.7527538,3.10372941 C28.5747538,3.99949412 18.2298308,7.03196471 11.2179846,9.04584706 C9.63921538,9.49902353 8.48798462,9.84314118 7.71906154,10.1099647 C7.33352308,10.2444353 7.04598462,10.3577294 6.83490769,10.4646706 C6.72829231,10.5186706 6.64106154,10.5694941 6.56136923,10.6372588 C6.52044615,10.6711412 6.4806,10.7103176 6.44398462,10.7674941 C6.40736923,10.8225529 6.37290769,10.9019647 6.37290769,10.9993765 L6.7186,10.9993765 L7.06429231,10.9993765 L6.81552308,10.9993765 L7.0266,11.1327882 C7.0406,11.1116118 7.06429231,11.0650235 7.06429231,10.9993765 L6.81552308,10.9993765 L7.0266,11.1327882 L6.90383077,11.0544353 L7.0126,11.1507882 L7.0266,11.1327882 L6.90383077,11.0544353 L7.0126,11.1507882 L6.97275385,11.1158471 L7.01044615,11.1539647 L7.0126,11.1507882 L6.97275385,11.1158471 L7.01044615,11.1539647 L7.03198462,11.1370235 C7.08906154,11.0967882 7.23983077,11.0194941 7.45952308,10.9326706 C8.12613846,10.6647882 9.43352308,10.2656118 11.4118308,9.69808235 C15.4201385,8.54714118 20.5161385,7.06372941 24.7398308,5.83655294 C26.8516769,5.22243529 28.7459846,4.67396471 30.1761385,4.26208235 C30.8912154,4.05667059 31.4910615,3.88514118 31.9422923,3.75808235 C32.3935231,3.63102353 32.7036769,3.54631765 32.8199846,3.51878824 C33.6266,3.32502353 34.3912154,3.27631765 34.9469077,3.27631765 C35.2172154,3.27631765 35.4379846,3.28796471 35.5887538,3.29961176 C35.6652154,3.30490588 35.7233692,3.3102 35.7621385,3.31443529 L35.8052154,3.31972941 L35.8170615,3.32078824 L35.8633692,2.98408235 L35.7890615,3.31655294 C35.7901385,3.31655294 36.1519846,3.39384706 36.9133692,3.56114118 C37.6747538,3.72843529 38.8335231,3.98361176 40.4252154,4.33725882 C41.4256769,4.56067059 42.7782923,4.83596471 43.8778308,5.09643529 C44.4249077,5.22561176 44.9106,5.35267059 45.2444462,5.46172941 C45.4113692,5.51572941 45.5416769,5.56761176 45.6095231,5.60255294 L45.6450615,5.62267059 L45.6493692,5.62690588 L45.6504462,5.62690588 L45.7527538,5.50514118 L45.6202923,5.59196471 L45.6504462,5.62690588 L45.7527538,5.50514118 L45.6202923,5.59196471 L45.8518308,5.43949412 L45.5750615,5.43949412 C45.5750615,5.51255294 45.6019846,5.56655294 45.6202923,5.59196471 L45.8518308,5.43949412 L45.5750615,5.43949412 L45.8572154,5.43949412 L45.6116769,5.30184706 C45.5933692,5.33255294 45.5750615,5.38443529 45.5750615,5.43949412 L45.8572154,5.43949412 L45.6116769,5.30184706 L45.8055231,5.41090588 L45.6547538,5.24784706 L45.6116769,5.30184706 L45.8055231,5.41090588 L45.6547538,5.24784706 L45.7366,5.33678824 L45.6633692,5.24043529 L45.6547538,5.24784706 L45.7366,5.33678824 L45.6633692,5.24043529 L45.6773692,5.25843529 L45.6644462,5.23937647 L45.6633692,5.24043529 L45.6773692,5.25843529 L45.6644462,5.23937647 C45.6579846,5.24572941 45.5901385,5.27749412 45.4932154,5.31031765 C45.1959846,5.41302353 44.6284462,5.55808235 43.9424462,5.79843529 C41.4709077,6.66455294 36.7636769,8.15643529 32.0542923,9.65467059 C27.3416769,11.1529059 22.6269077,12.6585529 20.1079846,13.5627882 C19.6104462,13.7417294 19.1882923,13.8465529 18.8856769,13.9058471 C18.7338308,13.9365529 18.6110615,13.9545529 18.5249077,13.9662 C18.4818308,13.9714941 18.4473692,13.9746706 18.4247538,13.9767882 L18.3978308,13.9789059 L18.3978308,13.9799647 L18.3299846,13.9810235 C18.3030615,13.9820824 18.2686,13.9820824 18.2255231,13.9820824 C17.9950615,13.9820824 17.5255231,13.9619647 16.9084462,13.7967882 C13.6249077,12.9222 12.0946,12.4213765 9.10183077,11.6092588 C8.30490769,11.3932588 7.73952308,11.2185529 7.39383077,11.0787882 C7.22152308,11.0099647 7.10521538,10.9474941 7.05675385,10.9104353 L7.03306154,10.8913765 L7.03090769,10.8892588 L6.9566,10.9559647 L7.04598462,10.9157294 L7.03090769,10.8892588 L6.9566,10.9559647 L7.04598462,10.9157294 L6.86183077,10.9993765 L7.06429231,10.9993765 C7.06429231,10.9654941 7.05567692,10.9337294 7.04598462,10.9157294 L6.86183077,10.9993765 L7.06429231,10.9993765 L6.7186,10.9993765 Z" id="Fill-5" fill="#212348"></path>
                    <path d="M17.9237692,7.80585882 L17.9183846,7.81750588 C17.9248462,7.81538824 17.9323846,7.81432941 17.9388462,7.81221176 L17.9237692,7.80585882 Z" id="Fill-7" fill="#4A4865"></path>
                    <g id="Group-11">
                        <mask id="mask-2" fill="white">
                            <use xlink:href="#path-1"></use>
                        </mask>
                        <g id="Clip-10"></g>
                        <path d="M0.864876923,16.7970706 L0.864876923,11.0826 L0.649492308,11.0826 L0.830415385,11.2064824 C0.839030769,11.1948353 0.864876923,11.1493059 0.864876923,11.0826 L0.649492308,11.0826 L0.830415385,11.2064824 L0.770107692,11.1651882 L0.826107692,11.2107176 L0.830415385,11.2064824 L0.770107692,11.1651882 L0.826107692,11.2107176 L0.827184615,11.2107176 C0.833646154,11.2022471 0.887492308,11.1609529 0.959646154,11.1249529 C1.06841538,11.0677765 1.21595385,11.0116588 1.33226154,10.9735412 C1.38933846,10.9544824 1.43995385,10.9396588 1.47441538,10.9290706 L1.51426154,10.9184824 L1.52610769,10.9153059 L1.5358,10.9121294 L1.54656923,10.9100118 C1.54764615,10.9089529 2.00641538,10.7670706 2.81626154,10.5182471 C5.64856923,9.64683529 12.7573385,7.4646 19.3696462,5.46977647 C22.6758,4.47236471 25.8570308,3.52154118 28.3167231,2.80577647 C29.5465692,2.44683529 30.5954923,2.14824706 31.3881077,1.93118824 C31.7844154,1.82212941 32.1161077,1.73424706 32.3724154,1.67071765 C32.6265692,1.60718824 32.8128769,1.56695294 32.8850308,1.55742353 C33.8284154,1.42083529 34.6641077,1.38695294 35.2607231,1.38695294 C35.5590308,1.38695294 35.7981077,1.39542353 35.9607231,1.40389412 C36.0414923,1.40812941 36.1039538,1.41236471 36.1459538,1.41554118 L36.1911846,1.41871765 L36.2041077,1.41977647 L36.2461077,0.997305882 L36.1470308,1.41024706 C36.1470308,1.41024706 39.1548769,2.10589412 42.3716462,2.84283529 C43.9805692,3.21024706 45.6422615,3.58930588 47.0056462,3.89636471 C48.3711846,4.20342353 49.4341077,4.43848235 49.8659538,4.52212941 C50.1610308,4.58142353 50.3161077,4.69471765 50.4065692,4.79107059 C50.4507231,4.83977647 50.4787231,4.88636471 50.4927231,4.91812941 L50.5056462,4.95201176 L50.5056462,4.95412941 L50.6058,4.93507059 L50.5045692,4.93612941 L50.5056462,4.95412941 L50.6058,4.93507059 L50.5045692,4.93612941 L50.5045692,6.14001176 L51.3682615,6.14001176 L51.3682615,4.93189412 L51.3682615,4.92871765 C51.3661077,4.8006 51.3359538,4.69471765 51.2831846,4.57612941 C51.2067231,4.40248235 51.0721077,4.21507059 50.8653385,4.05307059 C50.6585692,3.89001176 50.3807231,3.7566 50.0350308,3.68883529 C49.6290308,3.60942353 48.5596462,3.37436471 47.1984154,3.06730588 C45.1554923,2.60777647 42.4405692,1.98624706 40.2393385,1.48012941 C39.1376462,1.22707059 38.1641077,1.0026 37.4662615,0.841658824 C36.7673385,0.680717647 36.3462615,0.583305882 36.3451846,0.583305882 L36.3161077,0.576952941 L36.2870308,0.573776471 C36.2762615,0.572717647 35.8907231,0.536717647 35.2607231,0.536717647 C34.6307231,0.536717647 33.7541077,0.572717647 32.7590308,0.716717647 C32.5996462,0.740011765 32.3713385,0.794011765 32.0418,0.8766 C30.8162615,1.18895294 28.2941077,1.91742353 25.1828769,2.84071765 C15.8556462,5.60636471 1.28810769,10.0989529 1.28810769,10.0989529 L1.41733846,10.5044824 L1.30856923,10.0926 C1.29672308,10.0957765 1.03718462,10.1614235 0.753953846,10.2800118 C0.6118,10.3414235 0.464261538,10.4123647 0.323184615,10.5171882 C0.253184615,10.5711882 0.183184615,10.6336588 0.119646154,10.7226 C0.0571846154,10.8094235 0.000107692308,10.9354235 0.000107692308,11.0826 L0.000107692308,16.7970706 L0.864876923,16.7970706 Z" id="Fill-9" fill="#212348" mask="url(#mask-2)"></path>
                    </g>
                    <path d="M0.000430769231,11.0831294 C0.000430769231,11.2599529 0.0747384615,11.4071294 0.155507692,11.5098353 C0.300892308,11.6908941 0.472123077,11.7946588 0.653046154,11.8899529 C0.922276923,12.0286588 1.22058462,12.1292471 1.45858462,12.2012471 C1.69550769,12.2721882 1.86889231,12.3124235 1.87643077,12.3134824 L1.97335385,11.8994824 L1.83981538,12.3039529 C1.84627692,12.3050118 9.55166154,14.7741882 16.2512,16.2607765 C17.4078154,16.5180706 18.2112,16.5265412 18.3975077,16.5265412 L18.4212,16.5265412 L18.4212,15.6763059 L18.3975077,15.6763059 C18.2499692,15.6763059 17.5208923,15.6710118 16.4418154,15.4317176 C13.1216615,14.6958353 9.53443077,13.7100706 6.78073846,12.9106588 C5.40335385,12.5104235 4.23489231,12.1567765 3.40996923,11.9026588 C2.99750769,11.7756 2.67227692,11.6739529 2.44935385,11.6040706 C2.22643077,11.5331294 2.10689231,11.4950118 2.10689231,11.4950118 L2.08858462,11.4897176 L2.07027692,11.4854824 L2.05735385,11.4823059 C1.98412308,11.4653647 1.61581538,11.3743059 1.29273846,11.2451294 C1.13227692,11.1816 0.982584615,11.1053647 0.902892308,11.0471294 C0.861969231,11.0185412 0.841507692,10.9941882 0.842584615,10.9941882 L0.765046154,11.0492471 L0.853353846,11.0164235 L0.842584615,10.9941882 L0.765046154,11.0492471 L0.853353846,11.0164235 L0.670276923,11.0831294 L0.8652,11.0831294 L0.853353846,11.0164235 L0.670276923,11.0831294 L0.8652,11.0831294 L0.000430769231,11.0831294 Z" id="Fill-12" fill="#212348"></path>
                    <path d="M18.4212,21.3089294 L18.3975077,21.3089294 C18.2499692,21.3089294 17.5208923,21.3036353 16.4418154,21.0643412 C13.1216615,20.3274 9.53443077,19.3426941 6.78073846,18.5432824 C5.40335385,18.1430471 4.23489231,17.7883412 3.40996923,17.5352824 C2.99750769,17.4082235 2.67227692,17.3065765 2.44935385,17.2356353 C2.22643077,17.1657529 2.10796923,17.1276353 2.10796923,17.1276353 L2.07781538,17.1181059 L2.04873846,17.1138706 L2.03581538,17.1106941 C1.96258462,17.0979882 1.59535385,17.0259882 1.27443077,16.9148118 C1.11504615,16.8608118 0.966430769,16.7930471 0.889969231,16.7411647 L0.847969231,16.7094 L0.8372,16.6988118 L0.768276923,16.7549294 L0.850123077,16.7210471 L0.8372,16.6988118 L0.768276923,16.7549294 L0.850123077,16.7210471 L0.668123077,16.7972824 L0.8652,16.7972824 L0.850123077,16.7210471 L0.668123077,16.7972824 L0.8652,16.7972824 L0.000430769231,16.7972824 C0.000430769231,16.9741059 0.0768923077,17.1255176 0.160892308,17.2271647 C0.311661538,17.4082235 0.488276923,17.5024588 0.6692,17.5903412 C0.942738462,17.7152824 1.24104615,17.7999882 1.47904615,17.8603412 C1.71596923,17.9185765 1.89150769,17.9492824 1.89796923,17.9503412 L1.97335385,17.5321059 L1.83981538,17.9355176 C1.84627692,17.9376353 9.55166154,20.4068118 16.2512,21.8934 C17.4078154,22.1496353 18.2112,22.1591647 18.3975077,22.1591647 L18.4212,22.1591647 L18.4212,21.3089294 Z" id="Fill-14" fill="#212348"></path>
                </g>
                <polygon id="Fill-17" fill="#FEFEFE" points="13.5944308 12.5139176 13.5212 12.5658 13.5201231 12.5795647 13.5319692 12.5816824 13.6052 12.5287412 13.6730462 12.4810941 13.6773538 12.4694471 13.6644308 12.4662706"></polygon>
                <g id="Group-43" transform="translate(17.230769, 5.816118)">
                    <path d="M7.41633846,10.8794118 L7.07062686,10.8794118 C7.06956923,10.9916471 7.11372308,11.0932941 7.16541538,11.1652941 C7.25910769,11.2912941 7.36895385,11.3622353 7.50141538,11.4363529 C7.69956923,11.5443529 7.95803077,11.6449412 8.30587692,11.7603529 C8.65264615,11.8747059 9.08449231,12.0007059 9.61433846,12.1447059 C12.5920308,12.9525882 14.1266462,13.4544706 17.4241846,14.3332941 C18.1134154,14.5164706 18.6486462,14.5429412 18.9232615,14.5429412 C18.9738769,14.5429412 19.0148,14.5418824 19.0460308,14.5408235 L19.0837231,14.5397647 L19.0944923,14.5397647 L19.0955692,14.5397647 C19.1278769,14.5387059 19.1483385,14.5376471 19.1838769,14.5344706 C19.4175692,14.5132941 20.1078769,14.4169412 21.0426462,14.0812941 C23.5368,13.1855294 28.2548,11.6788235 32.9641846,10.1816471 C37.6757231,8.68235294 42.3797231,7.19258824 44.8738769,6.31905882 C45.4037231,6.13270588 45.8603385,6.00670588 46.1984923,5.904 C46.3675692,5.85105882 46.5064923,5.80552941 46.6281846,5.74941176 C46.6895692,5.72082353 46.7477231,5.69011765 46.8123385,5.63505882 C46.8446462,5.60752941 46.8791077,5.57152941 46.9092615,5.51964706 C46.9404923,5.46776471 46.9641846,5.39576471 46.9641846,5.31952941 C46.9641846,5.23588235 46.9361846,5.16388235 46.9060308,5.11517647 C46.8457231,5.01882353 46.7854154,4.97858824 46.7272615,4.93835294 C46.6184923,4.86741176 46.4978769,4.81764706 46.3481846,4.76152941 C45.8323385,4.57305882 44.9708,4.36447059 44.0252615,4.15164706 C43.0818769,3.94094118 42.0631077,3.73023529 41.2748,3.55447059 C39.6841846,3.20082353 38.4328,2.91282353 37.5788,2.71376471 C37.1523385,2.61423529 36.8249538,2.53694118 36.6041846,2.48505882 C36.3834154,2.43211765 36.2703385,2.40564706 36.2703385,2.40458824 L36.1874154,2.73494118 L36.3091077,2.41729412 C36.2789538,2.40564706 35.7598769,2.21823529 34.8951077,2.21823529 C34.4621846,2.21823529 33.9441846,2.26482353 33.3604923,2.40458824 C33.2108,2.44058824 32.9081846,2.52952941 32.4504923,2.66717647 C29.2703385,3.62647059 18.9211077,6.91305882 11.9157231,8.92588235 C10.3369538,9.37905882 9.18464615,9.72423529 8.4168,9.99105882 C8.03126154,10.1244706 7.74372308,10.2377647 7.53264615,10.3436471 C7.42603077,10.3987059 7.3388,10.4495294 7.25803077,10.5172941 C7.21818462,10.5511765 7.17833846,10.5903529 7.14172308,10.6475294 C7.10510769,10.7025882 7.07062686,10.782 7.07062686,10.8794118 L7.41633846,10.8794118 L7.76203077,10.8794118 L7.51218462,10.8794118 L7.72433846,11.0128235 C7.73833846,10.9916471 7.76203077,10.9450588 7.76203077,10.8794118 L7.51218462,10.8794118 L7.72433846,11.0128235 L7.60049231,10.9344706 L7.71033846,11.0308235 L7.72433846,11.0128235 L7.60049231,10.9344706 L7.71033846,11.0308235 L7.67049231,10.9958824 L7.70818462,11.034 L7.71033846,11.0308235 L7.67049231,10.9958824 L7.70818462,11.034 L7.72972308,11.0170588 C7.7868,10.9768235 7.93756923,10.8995294 8.15726154,10.8127059 C8.82387692,10.5448235 10.1312615,10.1467059 12.1095692,9.57811765 C16.1221846,8.42611765 21.2203385,6.858 25.4472615,5.54823529 C27.5612615,4.89282353 29.4555692,4.302 30.8868,3.85835294 C31.6018769,3.63811765 32.2017231,3.45388235 32.6540308,3.31729412 C33.1041846,3.18176471 33.4154154,3.09176471 33.5241846,3.06529412 C34.0508,2.93929412 34.5138769,2.898 34.8951077,2.898 C35.2752615,2.898 35.5757231,2.93929412 35.7771077,2.97952941 C35.8783385,2.99964706 35.9537231,3.01976471 36.0032615,3.03352941 L36.0560308,3.04941176 L36.0668,3.05364706 L36.0711077,3.04094118 L36.0657231,3.05364706 L36.0668,3.05364706 L36.0711077,3.04094118 L36.0657231,3.05364706 L36.0851077,3.06 L36.1055692,3.06529412 C36.1066462,3.06529412 37.9363385,3.50894118 41.1218769,4.21729412 C42.1234154,4.44070588 43.4771077,4.716 44.5744923,4.97647059 C45.1226462,5.10564706 45.6083385,5.23270588 45.9432615,5.34176471 C46.1091077,5.39576471 46.2394154,5.44764706 46.3061846,5.48258824 L46.3428,5.50270588 L46.3481846,5.50694118 L46.3492615,5.50694118 L46.4504923,5.38517647 L46.3180308,5.472 L46.3492615,5.50694118 L46.4504923,5.38517647 L46.3180308,5.472 L46.5495692,5.31952941 L46.2728,5.31952941 C46.2728,5.39258824 46.3008,5.44658824 46.3180308,5.472 L46.5495692,5.31952941 L46.2728,5.31952941 L46.5549538,5.31952941 L46.3094154,5.18188235 C46.2911077,5.21258824 46.2728,5.26447059 46.2728,5.31952941 L46.5549538,5.31952941 L46.3094154,5.18188235 L46.5032615,5.29094118 L46.3524923,5.12788235 L46.3094154,5.18188235 L46.5032615,5.29094118 L46.3524923,5.12788235 L46.4332615,5.21576471 L46.3611077,5.12047059 L46.3524923,5.12788235 L46.4332615,5.21576471 L46.3611077,5.12047059 L46.3740308,5.13847059 L46.3621846,5.12047059 L46.3611077,5.12047059 L46.3740308,5.13847059 L46.3621846,5.12047059 C46.3557231,5.12576471 46.2878769,5.15752941 46.1909538,5.19035294 C45.8937231,5.29411765 45.3261846,5.43811765 44.6412615,5.67847059 C42.1686462,6.54458824 37.4624923,8.03647059 32.7520308,9.53470588 C28.0394154,11.0329412 23.3246462,12.5385882 20.8057231,13.4428235 C20.3081846,13.6217647 19.8860308,13.7265882 19.5823385,13.7858824 C19.4315692,13.8165882 19.3088,13.8356471 19.2226462,13.8462353 C19.1795692,13.8515294 19.1451077,13.8547059 19.1214154,13.8568235 L19.0955692,13.8589412 L19.0955692,13.8631765 L19.0955692,13.8589412 L19.0955692,13.8631765 L19.0955692,13.8589412 L19.0277231,13.8610588 C19.0008,13.8621176 18.9663385,13.8621176 18.9232615,13.8621176 C18.6928,13.8621176 18.2232615,13.842 17.6051077,13.6768235 C14.3226462,12.8022353 12.7912615,12.3014118 9.79849231,11.4892941 C9.00264615,11.2732941 8.43618462,11.0985882 8.09156923,10.9588235 C7.91926154,10.89 7.80295385,10.8275294 7.75341538,10.7904706 L7.7308,10.7724706 L7.72864615,10.7692941 L7.65433846,10.836 L7.74372308,10.7957647 L7.72864615,10.7692941 L7.65433846,10.836 L7.74372308,10.7957647 L7.55956923,10.8794118 L7.76203077,10.8794118 C7.76203077,10.8455294 7.75341538,10.8137647 7.74372308,10.7957647 L7.55956923,10.8794118 L7.76203077,10.8794118 L7.41633846,10.8794118 Z" id="Fill-18" fill="#212348"></path>
                    <path d="M21.8249231,13.0854706 C21.8206154,13.0865294 21.8173846,13.0875882 21.8141538,13.0886471 C21.8152308,13.0918235 21.8152308,13.095 21.8152308,13.0981765 L21.8346154,13.113 L21.8486154,13.0939412 C21.8486154,13.0928824 21.8475385,13.0918235 21.8475385,13.0907647 L21.8249231,13.0918235 L21.8249231,13.0854706 Z" id="Fill-20" fill="#4A4865"></path>
                    <path d="M21.8838308,13.0648235 C21.8633692,13.0722353 21.8439846,13.0785882 21.8246,13.0849412 L21.8246,13.0912941 L21.8482923,13.0902353 L21.8612154,13.0902353 C21.8687538,13.0807059 21.8762923,13.0722353 21.8838308,13.0648235" id="Fill-22" fill="#4A4865"></path>
                    <path d="M20.7775077,13.4530941 C20.7645846,13.4573294 20.7516615,13.4626235 20.7398154,13.4668588 C20.7462769,13.4700353 20.7548923,13.4732118 20.7613538,13.4763882 L20.7828923,13.4679176 L20.7775077,13.4530941 Z" id="Fill-24" fill="#4A4865"></path>
                    <path d="M20.5535077,13.5296471 C20.5093538,13.5444706 20.4662769,13.5582353 20.4242769,13.5709412 C20.4619692,13.5667059 20.4985846,13.5635294 20.5352,13.5592941 L20.5567385,13.5328235 L20.5535077,13.5296471 Z" id="Fill-26" fill="#4A4865"></path>
                    <path d="M21.0697846,13.3486941 C21.0471692,13.3571647 21.0234769,13.3645765 21.0008615,13.3730471 C21.0170154,13.3751647 21.0331692,13.3783412 21.0482462,13.3804588 L21.0784,13.3603412 L21.0697846,13.3486941 Z M21.5910154,13.1655176 C21.5748615,13.1718706 21.5587077,13.1771647 21.5414769,13.1824588 L21.5565538,13.2046941 L21.5856308,13.1866941 L21.5910154,13.1655176 Z" id="Fill-28" fill="#4A4865"></path>
                    <path d="M44.3078462,4.89462353 L44.2938462,4.91050588 C44.3056923,4.91368235 44.3164615,4.9158 44.3272308,4.91897647 C44.3261538,4.91474118 44.3261538,4.91156471 44.3261538,4.90944706 L44.3078462,4.89462353 Z" id="Fill-30" fill="#4A4865"></path>
                    <path d="M42.6619846,4.54150588 L42.6587538,4.54997647 C42.6684462,4.55209412 42.6770615,4.55421176 42.6856769,4.55632941 L42.6835231,4.54997647 L42.6619846,4.54150588 Z" id="Fill-32" fill="#4A4865"></path>
                    <path d="M43.5937385,4.73484706 L43.5937385,4.73484706 C43.5818923,4.73802353 43.5700462,4.74225882 43.5582,4.74543529 C43.5775846,4.74967059 43.5991231,4.75390588 43.6185077,4.7592 L43.6228154,4.75178824 L43.5937385,4.73484706 Z" id="Fill-34" fill="#4A4865"></path>
                    <polygon id="Fill-36" fill="#4A4865" points="44.0596154 4.84496471 44.051 4.85555294 44.0800769 4.86190588"></polygon>
                    <path d="M0.622461538,10.9274824 C0.622461538,11.1043059 0.696769231,11.2514824 0.777538462,11.3541882 C0.922923077,11.5352471 1.09415385,11.6390118 1.27507692,11.7343059 C1.54538462,11.8730118 1.84261538,11.9736 2.08061538,12.0456 C2.31753846,12.1165412 2.49092308,12.1567765 2.49846154,12.1578353 L2.59538462,11.7438353 L2.46184615,12.1483059 C2.46830769,12.1493647 10.1736923,14.6185412 16.8732308,16.1051294 C18.0298462,16.3624235 18.8332308,16.3708941 19.0195385,16.3708941 L19.0432308,16.3708941 L19.0841538,16.3708941 C19.3533846,16.3698353 20.5735385,16.3550118 21.9067692,15.9060706 C25.5693846,14.6672471 32.6598462,12.2637176 38.92,10.1428941 C42.0495385,9.08301176 44.9712308,8.09407059 47.1530769,7.35712941 C48.244,6.98865882 49.1486154,6.68371765 49.8023077,6.46454118 C50.1296923,6.35442353 50.3935385,6.26654118 50.5852308,6.20195294 C50.7758462,6.13842353 50.9018462,6.09818824 50.9309231,6.08865882 C51.3896923,5.95312941 51.6869231,5.67042353 51.8301538,5.40042353 C51.9766154,5.13148235 51.9906154,4.89748235 51.9906154,4.79583529 L51.9906154,4.76512941 L51.9906154,4.76195294 L51.6976923,4.7736 L51.9906154,4.76618824 L51.9906154,4.76195294 L51.6976923,4.7736 L51.9906154,4.76618824 L51.5684615,4.77677647 L51.9906154,4.78948235 L51.9906154,4.76618824 L51.5684615,4.77677647 L51.9906154,4.78948235 L51.5598462,4.77677647 L51.9852308,4.84242353 C51.9906154,4.80854118 51.9895385,4.79901176 51.9906154,4.78948235 L51.5598462,4.77677647 L51.9852308,4.84242353 L51.5587692,4.77677647 L51.9561538,4.93983529 C51.9798462,4.88265882 51.982,4.86148235 51.9852308,4.84242353 L51.5587692,4.77677647 L51.9561538,4.93983529 L51.5587692,4.77677647 L51.8732308,5.06795294 C51.9270769,5.00971765 51.9443077,4.96842353 51.9561538,4.93983529 L51.5587692,4.77677647 L51.8732308,5.06795294 L51.5587692,4.77677647 L51.7526154,5.15583529 C51.8075385,5.12936471 51.8463077,5.09654118 51.8732308,5.06795294 L51.5587692,4.77677647 L51.7526154,5.15583529 L51.5587692,4.77677647 L51.5587692,5.20136471 C51.6276923,5.20242353 51.6987692,5.18336471 51.7526154,5.15583529 L51.5587692,4.77677647 L51.5587692,5.20136471 L51.9949231,5.20136471 L51.9906154,4.77254118 C51.9873846,4.64548235 51.9561538,4.53854118 51.9055385,4.42101176 C51.828,4.24736471 51.6944615,4.05995294 51.4866154,3.89689412 C51.2809231,3.73383529 51.0030769,3.60042353 50.6552308,3.53371765 C50.2503077,3.45430588 49.182,3.21818824 47.8207692,2.91218824 C45.7767692,2.45265882 43.0629231,1.83112941 40.8606154,1.32501176 C39.7589231,1.07195294 38.7853846,0.847482353 38.0875385,0.686541176 C37.3896923,0.5256 36.9675385,0.428188235 36.9664615,0.427129412 L36.9653846,0.427129412 C36.9427692,0.422894118 36.1318462,0.2376 34.9332308,0.2376 C34.454,0.2376 33.9123077,0.267247059 33.334,0.350894118 C33.1724615,0.375247059 32.9441538,0.429247059 32.6146154,0.513952941 C31.3901538,0.8316 28.8712308,1.57701176 25.7643077,2.51936471 C16.4510769,5.34748235 1.90723077,9.94383529 1.90615385,9.94383529 L2.03861538,10.3483059 L1.92984615,9.93748235 C1.918,9.94065882 1.65953846,10.0063059 1.37630769,10.1248941 C1.23415385,10.1852471 1.08553846,10.2572471 0.945538462,10.3620706 C0.874461538,10.4150118 0.804461538,10.4774824 0.742,10.5664235 C0.679538462,10.6543059 0.622461538,10.7792471 0.622461538,10.9274824 L0.622461538,16.6408941 L1.48723077,16.6408941 L1.48723077,10.9274824 L1.27184615,10.9274824 L1.45276923,11.0503059 C1.46030769,11.0397176 1.48723077,10.9941882 1.48723077,10.9274824 L1.27184615,10.9274824 L1.45276923,11.0503059 L1.39246154,11.0090118 L1.44846154,11.0556 L1.45276923,11.0503059 L1.39246154,11.0090118 L1.44846154,11.0556 L1.44846154,11.0545412 C1.456,11.0460706 1.50876923,11.0058353 1.582,10.9687765 C1.69076923,10.9116 1.83830769,10.8554824 1.95353846,10.8173647 C2.01169231,10.7983059 2.06230769,10.7834824 2.09676923,10.7739529 L2.13661538,10.7623059 L2.14738462,10.7591294 L2.15923077,10.7559529 L2.17107692,10.7527765 C2.17215385,10.7527765 2.63092308,10.6077176 3.43861538,10.3525412 C6.26661538,9.46101176 13.3646154,7.22901176 19.9661538,5.18865882 C23.2669231,4.16795294 26.4438462,3.19595294 28.9003077,2.46430588 C30.128,2.09901176 31.1758462,1.79301176 31.9663077,1.57171765 C32.3626154,1.46054118 32.6932308,1.3716 32.9495385,1.30701176 C33.2026154,1.24136471 33.39,1.20112941 33.46,1.1916 C33.9898462,1.11536471 34.4906154,1.08783529 34.9332308,1.08783529 C35.4878462,1.08677647 35.952,1.13018824 36.2761538,1.17254118 C36.4376923,1.19477647 36.5636923,1.21595294 36.6487692,1.23077647 C36.6907692,1.23924706 36.722,1.2456 36.7424615,1.24983529 L36.7650769,1.25407059 L36.7693846,1.25512941 L36.7683077,1.25512941 C36.7683077,1.25512941 39.7761538,1.95077647 42.994,2.68665882 C44.6029231,3.05512941 46.2635385,3.43312941 47.628,3.74018824 C48.9935385,4.04724706 50.0564615,4.28230588 50.4883077,4.36701176 C50.7844615,4.42630588 50.9373846,4.53854118 51.0278462,4.63489412 C51.072,4.6836 51.1,4.73018824 51.1150769,4.76301176 L51.1269231,4.79689412 L51.128,4.79901176 L51.226,4.77995294 L51.1258462,4.78101176 L51.128,4.79901176 L51.226,4.77995294 L51.1258462,4.78101176 L51.5587692,4.77677647 L51.5587692,4.35218824 C51.4650769,4.35112941 51.3724615,4.38501176 51.3143077,4.42630588 C51.2550769,4.46654118 51.2227692,4.50677647 51.2012308,4.53748235 C51.1592308,4.59995294 51.1516923,4.63383529 51.1430769,4.65818824 C51.1301538,4.70583529 51.1301538,4.72171765 51.128,4.73654118 C51.1247692,4.78101176 51.1269231,4.77995294 51.1269231,4.78736471 L51.1269231,4.79795294 L51.1624615,4.79583529 L51.1269231,4.79583529 L51.1269231,4.79795294 L51.1624615,4.79583529 L51.1269231,4.79583529 C51.128,4.80536471 51.1226154,4.90489412 51.0698462,4.99701176 C51.0138462,5.08912941 50.9352308,5.19395294 50.6756923,5.27654118 C50.6218462,5.29348235 50.5033846,5.33265882 50.3084615,5.39724706 C47.4115385,6.36077647 28.4921538,12.7804235 21.6256923,15.1024235 C20.4410769,15.5037176 19.3049231,15.5217176 19.0841538,15.5206588 L19.0432308,15.5206588 L19.0195385,15.5206588 C18.872,15.5206588 18.1429231,15.5153647 17.0638462,15.2760706 C13.7436923,14.5391294 10.1564615,13.5544235 7.40276923,12.7550118 C6.02538462,12.3547765 4.85692308,12.0011294 4.032,11.7470118 C3.61953846,11.6199529 3.29430769,11.5183059 3.07138462,11.4484235 C2.84846154,11.3774824 2.72892308,11.3393647 2.72892308,11.3393647 L2.71061538,11.3340706 L2.69230769,11.3298353 L2.67938462,11.3266588 C2.60615385,11.3097176 2.23784615,11.2186588 1.91476923,11.0894824 C1.75430769,11.0259529 1.60461538,10.9497176 1.52492308,10.8914824 C1.484,10.8628941 1.46353846,10.8385412 1.46461538,10.8385412 L1.38707692,10.8936 L1.47538462,10.8607765 L1.46461538,10.8385412 L1.38707692,10.8936 L1.47538462,10.8607765 L1.29230769,10.9274824 L1.48723077,10.9274824 L1.47538462,10.8607765 L1.29230769,10.9274824 L1.48723077,10.9274824 L0.622461538,10.9274824 Z" id="Fill-38" fill="#212348"></path>
                    <g id="Group-42" transform="translate(0.000000, 4.235294)">
                        <mask id="mask-4" fill="white">
                            <use xlink:href="#path-3"></use>
                        </mask>
                        <g id="Clip-41"></g>
                        <path d="M51.2026308,0.577588235 L51.2026308,6.24441176 L51.2080154,6.27829412 L51.4255538,6.24335294 L51.2047846,6.24335294 L51.2080154,6.27829412 L51.4255538,6.24335294 L51.2047846,6.24335294 L51.2338615,6.24335294 L51.2047846,6.23911765 L51.2047846,6.24335294 L51.2338615,6.24335294 L51.2047846,6.23911765 C51.2026308,6.24229412 51.2058615,6.26135294 51.1638615,6.30794118 C51.1218615,6.35347059 51.0227846,6.435 50.7847846,6.507 C50.7320154,6.52394118 50.6135538,6.56205882 50.4164769,6.62770588 C47.4818615,7.59335294 28.2684769,14.0373529 21.3750923,16.4038235 C20.7138615,16.6304118 20.1570923,16.7691176 19.7564769,16.8506471 C19.5561692,16.8919412 19.3957077,16.9184118 19.2815538,16.9342941 C19.2244769,16.9417059 19.1803231,16.947 19.1490923,16.9501765 L19.1157077,16.9533529 L19.1103231,16.9544118 L19.1189385,17.145 L19.1189385,16.9544118 L19.1103231,16.9544118 L19.1189385,17.145 L19.1189385,16.9544118 L19.0952462,16.9544118 C18.9477077,16.9533529 18.2186308,16.9480588 17.1395538,16.7098235 C13.8194,15.9728824 10.2321692,14.9881765 7.47847692,14.1877059 C6.10216923,13.7874706 4.93263077,13.4338235 4.10878462,13.1797059 C3.69632308,13.0526471 3.37001538,12.951 3.14709231,12.8811176 C2.92416923,12.8112353 2.80570769,12.7731176 2.80570769,12.7731176 L2.7874,12.7667647 L2.77016923,12.7635882 L2.7594,12.7604118 C2.69586154,12.7455882 2.37170769,12.6640588 2.05078462,12.5412353 C1.8914,12.4808824 1.73309231,12.4088824 1.61463077,12.339 C1.49509231,12.2712353 1.42724615,12.1960588 1.42832308,12.1928824 L0.680938462,12.6185294 C0.748784615,12.7328824 0.833861538,12.8197059 0.922169231,12.8948824 C1.07724615,13.0240588 1.25170769,13.1204118 1.43155385,13.2040588 C1.96570769,13.4528824 2.55801538,13.5862941 2.57309231,13.5905294 L2.67109231,13.1765294 L2.53755385,13.581 C2.54401538,13.5831176 10.2504769,16.0512353 16.9489385,17.5378235 C18.1055538,17.7951176 18.9089385,17.8035882 19.0952462,17.8035882 L19.1189385,17.8035882 C19.1663231,17.8035882 19.1910923,17.8004118 19.2384769,17.7961765 C19.5410923,17.7644118 20.4349385,17.6267647 21.6594,17.2064118 C25.3317077,15.9453529 32.5126308,13.5238235 38.8589385,11.3924118 C42.0304769,10.3261765 44.9952462,9.33194118 47.2094,8.59288235 C48.3143231,8.22229412 49.2340154,7.91629412 49.8974,7.69605882 C50.2280154,7.58594118 50.4961692,7.497 50.6900154,7.43347059 C50.8838615,7.36994118 51.0087846,7.32864706 51.0410923,7.31911765 C51.4384769,7.19947059 51.7109385,7.01205882 51.8724769,6.79711765 C52.0340154,6.58429412 52.0706308,6.36511765 52.0685649,6.24335294 C52.0685649,6.19570588 52.0641692,6.16076471 52.0609385,6.14170588 L51.6334,6.20947059 L52.0674,6.20947059 L52.0674,0.577588235 L51.2026308,0.577588235 Z" id="Fill-40" fill="#212348" mask="url(#mask-4)"></path>
                    </g>
                </g>
                <polygon id="Fill-44" fill="#212348" points="35.9164615 27.4298824 36.7823077 27.4298824 36.7823077 21.7958824 35.9164615 21.7958824"></polygon>
                <path d="M31.5929385,18.3665647 L31.5897077,18.3750353 C31.6209385,18.3866824 31.6230923,18.3919765 31.6381692,18.3930353 L31.6467846,18.3919765 C31.6877077,18.3877412 31.7318615,18.3750353 31.7674,18.3665647 L31.7695538,18.3655059 L31.8201692,18.3453882 L31.8223231,18.3443294 L31.8707846,18.2913882 L31.8740154,18.2882118 L31.8664769,18.2553882 L31.8654,18.2522118 L31.8610923,18.2500941 C31.8287846,18.2320941 31.7954,18.2151529 31.7609385,18.1992706 C31.7103231,18.1770353 31.7372462,18.1865647 31.6769385,18.1664471 L31.6295538,18.1505647 L31.6274,18.1495059 L31.5929385,18.1579765 L31.5907846,18.1579765 L31.5197077,18.2225647 L31.5175538,18.2246824 L31.5143231,18.2500941 L31.5143231,18.2522118 L31.5552462,18.3443294 L31.5563231,18.3464471 L31.5864769,18.3729176 L31.5875538,18.3739765 L31.5897077,18.3750353 L31.5929385,18.3665647 L31.5994,18.3602118 L31.5714,18.3358588 L31.5326308,18.2500941 L31.5347846,18.2331529 L31.5994,18.1749176 L31.6263231,18.1685647 L31.6704769,18.1833882 C31.7329385,18.2035059 31.7006308,18.1929176 31.7523231,18.2162118 C31.7867846,18.2310353 31.8201692,18.2479765 31.8524769,18.2659765 L31.8567846,18.2575059 L31.8481692,18.2596235 L31.8546308,18.2829176 L31.8115538,18.3284471 L31.7620154,18.3485647 L31.7663231,18.3570353 L31.7630923,18.3485647 C31.7264769,18.3570353 31.6823231,18.3697412 31.6457077,18.3739765 L31.6381692,18.3750353 C31.6317077,18.3750353 31.6295538,18.3708 31.5961692,18.3580941 L31.5929385,18.3665647 L31.5994,18.3602118 L31.5929385,18.3665647 Z" id="Fill-45" fill="#FEFEFE"></path>
                <polygon id="Fill-47" fill="#FEFEFE" points="32.0922 18.0581294 32.0588154 18.0687176 32.0491231 18.0909529 32.0878923 18.0655412 32.1094308 18.0941294 32.1449692 18.0846 32.1557385 18.0581294"></polygon>
                <g id="Group-68" transform="translate(0.000000, 16.404353)">
                    <path d="M14.2623385,5.03269412 L14.2623385,11.1992824 C14.2623385,11.8271647 14.7803385,11.9965765 15.4189538,11.9965765 C16.0564923,11.9965765 16.5744923,11.8271647 16.5744923,11.1992824 L16.5820308,11.1992824 L16.5820308,5.59704706 L14.2623385,5.03269412 Z" id="Fill-48" fill="#E1C79F"></path>
                    <path d="M14.2623385,5.03269412 L13.9166462,5.03269412 L13.9166462,11.1992824 C13.9166462,11.4015176 13.9597231,11.5921059 14.0501846,11.7530471 C14.1869538,11.9986941 14.4206462,12.1522235 14.6586462,12.2316353 C14.8988,12.3121059 15.1561846,12.3354 15.4189538,12.3364588 C15.7678769,12.3343412 16.1092615,12.2972824 16.4108,12.1268118 C16.5604923,12.0410471 16.6961846,11.9150471 16.7866462,11.7530471 C16.8771077,11.5921059 16.9201846,11.4015176 16.9201846,11.1992824 L16.5744923,11.1992824 L16.5744923,11.5391647 L16.5820308,11.5391647 C16.6735692,11.5391647 16.7608,11.5042235 16.8264923,11.4396353 C16.8911077,11.3761059 16.9277231,11.2903412 16.9277231,11.1992824 L16.9277231,5.59704706 C16.9277231,5.50598824 16.8911077,5.42128235 16.8264923,5.35775294 C16.7608,5.29316471 16.6735692,5.25716471 16.5820308,5.25716471 L14.2623385,4.69281176 C14.1708,4.69281176 14.0824923,4.72881176 14.0178769,4.79234118 C13.9532615,4.85587059 13.9166462,4.94269412 13.9166462,5.03269412 L14.2623385,5.03269412 L14.2623385,5.37257647 L16.2363385,5.93692941 L16.2363385,11.1992824 L16.5820308,11.1992824 L16.5820308,10.8594 L16.5744923,10.8594 C16.4840308,10.8594 16.3946462,10.8964588 16.3300308,10.9589294 C16.2654154,11.0224588 16.2288,11.1103412 16.2288,11.1992824 C16.2288,11.3115176 16.2072615,11.3782235 16.1814154,11.4248118 C16.1426462,11.4915176 16.0823385,11.5423412 15.9520308,11.5889294 C15.8228,11.6334 15.6343385,11.6566941 15.4189538,11.6566941 C15.1292615,11.6588118 14.8934154,11.6111647 14.7760308,11.5402235 C14.7157231,11.5052824 14.6823385,11.4714 14.6554154,11.4248118 C14.6295692,11.3782235 14.6080308,11.3115176 14.6080308,11.1992824 L14.6080308,5.03269412 L14.2623385,5.03269412 L14.2623385,5.37257647 L14.2623385,5.03269412 Z" id="Fill-50" fill="#212348"></path>
                    <path d="M19.1758,6.55263529 L19.1758,12.7869882 C19.1758,13.4148706 19.6938,13.5853412 20.3324154,13.5853412 C20.9699538,13.5853412 21.4879538,13.4148706 21.4879538,12.7869882 L21.4954923,12.7869882 L21.4954923,7.24722353 L19.1758,6.55263529 Z" id="Fill-52" fill="#E1C79F"></path>
                    <path d="M19.1758,6.55263529 L18.8301077,6.55263529 L18.8301077,12.7869882 C18.8301077,12.9902824 18.8731846,13.1798118 18.9636462,13.3418118 C19.1004154,13.5874588 19.3341077,13.7409882 19.5721077,13.8193412 C19.8122615,13.8998118 20.0696462,13.9231059 20.3324154,13.9241647 C20.6813385,13.9220471 21.0227231,13.8849882 21.3242615,13.7145176 C21.4739538,13.6298118 21.6096462,13.5027529 21.7001077,13.3418118 C21.7905692,13.1798118 21.8336462,12.9902824 21.8336462,12.7869882 L21.4879538,12.7869882 L21.4879538,13.1268706 L21.4954923,13.1268706 C21.5870308,13.1268706 21.6742615,13.0919294 21.7399538,13.0273412 C21.8045692,12.9638118 21.8411846,12.8791059 21.8411846,12.7869882 L21.8411846,7.24722353 C21.8411846,7.15616471 21.8045692,7.07145882 21.7399538,7.00687059 C21.6742615,6.94228235 21.5870308,6.90734118 21.4954923,6.90734118 L19.1758,6.21275294 C19.0842615,6.21275294 18.9959538,6.24875294 18.9313385,6.31228235 C18.8667231,6.37581176 18.8301077,6.46263529 18.8301077,6.55263529 L19.1758,6.55263529 L19.1758,6.89251765 L21.1498,7.58710588 L21.1498,12.7869882 L21.4954923,12.7869882 L21.4954923,12.4471059 L21.4879538,12.4471059 C21.3974923,12.4471059 21.3081077,12.4852235 21.2434923,12.5476941 C21.1788769,12.6101647 21.1422615,12.6980471 21.1422615,12.7869882 C21.1422615,12.9002824 21.1207231,12.9669882 21.0948769,13.0135765 C21.0561077,13.0802824 20.9958,13.1300471 20.8654923,13.1766353 C20.7362615,13.2211059 20.5478,13.2444 20.3324154,13.2444 C20.0427231,13.2465176 19.8068769,13.1988706 19.6894923,13.1279294 C19.6291846,13.0929882 19.5958,13.0601647 19.5688769,13.0135765 C19.5430308,12.9669882 19.5214923,12.9002824 19.5214923,12.7869882 L19.5214923,6.55263529 L19.1758,6.55263529 L19.1758,6.89251765 L19.1758,6.55263529 Z" id="Fill-54" fill="#212348"></path>
                    <path d="M1.05786154,1.47928235 L1.05786154,7.57916471 C1.05786154,8.20704706 1.57586154,8.3754 2.21447692,8.3754 C2.85201538,8.3754 3.37001538,8.20704706 3.37001538,7.57916471 L3.37755385,7.57916471 L3.37755385,2.1114 L1.05786154,1.47928235 Z" id="Fill-56" fill="#E1C79F"></path>
                    <path d="M1.05786154,1.47928235 L0.712169231,1.47928235 L0.712169231,7.57916471 C0.712169231,7.7814 0.755246154,7.97092941 0.845707692,8.13292941 C0.982476923,8.37857647 1.21616923,8.53104706 1.45416923,8.61045882 C1.69432308,8.69092941 1.95170769,8.71528235 2.21447692,8.71528235 C2.5634,8.71316471 2.90478462,8.67610588 3.20632308,8.50563529 C3.35601538,8.42092941 3.49170769,8.29492941 3.58216923,8.13292941 C3.67263077,7.97092941 3.71570769,7.7814 3.71570769,7.57916471 L3.37001538,7.57916471 L3.37001538,7.91904706 L3.37755385,7.91904706 C3.46909231,7.91904706 3.55632308,7.88304706 3.62201538,7.81951765 C3.68663077,7.75492941 3.72324615,7.66916471 3.72324615,7.57916471 L3.72324615,2.1114 C3.72324615,1.95892941 3.61986154,1.82445882 3.46909231,1.78422353 L1.15047692,1.15210588 C1.04601538,1.12351765 0.935092308,1.14363529 0.848938462,1.20822353 C0.761707692,1.27387059 0.712169231,1.37234118 0.712169231,1.47928235 L1.05786154,1.47928235 L0.965246154,1.80645882 L3.03186154,2.36975294 L3.03186154,7.57916471 L3.37755385,7.57916471 L3.37755385,7.23928235 L3.37001538,7.23928235 C3.27847692,7.23928235 3.19016923,7.27528235 3.12555385,7.33881176 C3.06093846,7.40234118 3.02432308,7.48916471 3.02432308,7.57916471 C3.02432308,7.69034118 3.00278462,7.75704706 2.97693846,7.80363529 C2.93816923,7.87034118 2.87786154,7.92116471 2.74755385,7.96775294 C2.61832308,8.01222353 2.42986154,8.03657647 2.21447692,8.03551765 C1.92478462,8.03763529 1.68893846,7.99104706 1.57155385,7.91904706 C1.51124615,7.88410588 1.47786154,7.85022353 1.45093846,7.80363529 C1.42509231,7.75704706 1.40355385,7.69034118 1.40355385,7.57916471 L1.40355385,1.47928235 L1.05786154,1.47928235 L0.965246154,1.80645882 L1.05786154,1.47928235 Z" id="Fill-58" fill="#212348"></path>
                    <path d="M35.1592769,10.8965647 L35.1592769,16.9964471 C35.1592769,17.6243294 35.6772769,17.7926824 36.3148154,17.7926824 C36.9534308,17.7926824 37.4703538,17.6243294 37.4703538,16.9964471 L37.4789692,16.9964471 L37.4789692,10.8965647 L35.1592769,10.8965647 Z" id="Fill-60" fill="#E1C79F"></path>
                    <path d="M35.1592769,10.8965647 L34.8135846,10.8965647 L34.8135846,16.9964471 C34.8135846,17.1986824 34.8566615,17.3882118 34.9471231,17.5502118 C35.0838923,17.7958588 35.3175846,17.9483294 35.5555846,18.0277412 C35.7957385,18.1082118 36.0531231,18.1325647 36.3148154,18.1325647 C36.6637385,18.1304471 37.0062,18.0933882 37.3077385,17.9229176 C37.4574308,17.8382118 37.5931231,17.7122118 37.6835846,17.5502118 C37.7740462,17.3882118 37.8171231,17.1986824 37.8171231,16.9964471 L37.4703538,16.9964471 L37.4703538,17.3363294 L37.4789692,17.3363294 C37.5705077,17.3363294 37.6577385,17.3013882 37.7234308,17.2368 C37.7880462,17.1722118 37.8246615,17.0875059 37.8246615,16.9964471 L37.8246615,10.8965647 C37.8246615,10.8055059 37.7880462,10.7208 37.7234308,10.6562118 C37.6577385,10.5916235 37.5705077,10.5566824 37.4789692,10.5566824 L35.1592769,10.5566824 C35.0677385,10.5566824 34.9794308,10.5926824 34.9148154,10.6562118 C34.8502,10.7197412 34.8135846,10.8065647 34.8135846,10.8965647 L35.1592769,10.8965647 L35.1592769,11.2364471 L37.1332769,11.2364471 L37.1332769,16.9964471 L37.4789692,16.9964471 L37.4789692,16.6565647 L37.4703538,16.6565647 C37.3798923,16.6565647 37.2905077,16.6925647 37.2269692,16.7560941 C37.1623538,16.8196235 37.1257385,16.9064471 37.1257385,16.9964471 C37.1257385,17.1076235 37.1042,17.1743294 37.0783538,17.2209176 C37.0395846,17.2876235 36.9782,17.3384471 36.8489692,17.3850353 C36.7197385,17.4295059 36.5312769,17.4538588 36.3148154,17.4528 C36.0262,17.4549176 35.7903538,17.4083294 35.6729692,17.3373882 C35.6126615,17.3013882 35.5792769,17.2675059 35.5523538,17.2209176 C35.5265077,17.1743294 35.5049692,17.1076235 35.5049692,16.9964471 L35.5049692,10.8965647 L35.1592769,10.8965647 L35.1592769,11.2364471 L35.1592769,10.8965647 Z" id="Fill-62" fill="#212348"></path>
                    <path d="M66.5613846,1.01350588 L66.5613846,7.11338824 C66.5613846,7.74127059 67.0783077,7.90962353 67.718,7.90962353 C68.3555385,7.90962353 68.8724615,7.74127059 68.8724615,7.11338824 L68.8810769,7.11338824 L68.8810769,0.364447059 L66.5613846,1.01350588 Z" id="Fill-64" fill="#E1C79F"></path>
                    <path d="M66.5613846,1.01350588 L66.2156923,1.01350588 L66.2156923,7.11338824 C66.2156923,7.31562353 66.2587692,7.50515294 66.3492308,7.66715294 C66.486,7.9128 66.7186154,8.06527059 66.9576923,8.14468235 C67.1978462,8.22515294 67.4552308,8.24950588 67.718,8.24950588 C68.0658462,8.24738824 68.4083077,8.21032941 68.7098462,8.03985882 C68.8595385,7.95515294 68.9952308,7.82915294 69.0856923,7.66715294 C69.1761538,7.50515294 69.2192308,7.31562353 69.2192308,7.11338824 L68.8724615,7.11338824 L68.8724615,7.45327059 L68.8810769,7.45327059 C68.9726154,7.45327059 69.0598462,7.41727059 69.1255385,7.35374118 C69.1890769,7.28915294 69.2267692,7.20338824 69.2267692,7.11338824 L69.2267692,0.364447059 C69.2267692,0.257505882 69.1761538,0.157976471 69.0889231,0.0933882353 C69.0027692,0.0288 68.8907692,0.00868235294 68.7852308,0.0372705882 L66.4666154,0.686329412 C66.3169231,0.727623529 66.2156923,0.861035294 66.2156923,1.01350588 L66.5613846,1.01350588 L66.6561538,1.34068235 L68.5353846,0.814447059 L68.5353846,7.11338824 L68.8810769,7.11338824 L68.8810769,6.77350588 L68.8724615,6.77350588 C68.7830769,6.77350588 68.6926154,6.80950588 68.6290769,6.87303529 C68.5633846,6.93550588 68.5278462,7.02338824 68.5278462,7.11338824 C68.5278462,7.22456471 68.5063077,7.29127059 68.4804615,7.33785882 C68.4416923,7.40456471 68.3803077,7.45538824 68.2510769,7.50197647 C68.1218462,7.54644706 67.9323077,7.5708 67.718,7.56974118 C67.4283077,7.57185882 67.1924615,7.52527059 67.0750769,7.45327059 C67.0147692,7.41832941 66.9813846,7.38444706 66.9544615,7.33785882 C66.9286154,7.29127059 66.9070769,7.22456471 66.9070769,7.11338824 L66.9070769,1.01350588 L66.5613846,1.01350588 L66.6561538,1.34068235 L66.5613846,1.01350588 Z" id="Fill-66" fill="#212348"></path>
                </g>
            </g>
        </g>
    </g>
</svg>