<?xml version="1.0" encoding="UTF-8"?>
<svg width="80px" height="80px" viewBox="0 0 80 80" version="1.1" xmlns="http://www.w3.org/2000/svg" xmlns:xlink="http://www.w3.org/1999/xlink">
    <title>Group</title>
    <g id="Page-1" stroke="none" stroke-width="1" fill="none" fill-rule="evenodd">
        <g id="Desktop" transform="translate(-405.000000, -2689.000000)">
            <g id="Group" transform="translate(405.500000, 2689.500000)">
                <g id="Group-24" transform="translate(5.500000, 4.500000)">
                    <path d="M18.5254,56.9475 C12.6144,56.8195 5.9104,57.1075 0.0814,56.6345" id="Stroke-3" stroke="#020203" stroke-width="0.435" stroke-linecap="round" stroke-linejoin="round"></path>
                    <path d="M18.5254,56.9475 C18.5254,57.5395 18.7084,57.9915 18.5254,58.6265 C17.4814,62.1415 17.4214,65.8825 16.8464,69.4755 C16.1414,73.8435 16.1674,73.9565 21.1964,74.7825 C22.0144,71.3815 24.4154,63.7425 25.2514,60.2975 C25.5034,58.5315 26.1724,56.9915 26.5724,55.2685 C32.2454,55.5555 37.9704,54.7985 43.5294,55.9815 C43.9384,56.6695 44.1554,57.2865 44.1204,57.9395 C43.8684,62.9945 45.9394,67.5795 47.0174,72.3555 C47.2354,73.3215 47.5404,74.3475 48.8454,74.1735 C49.9844,74.0255 50.4974,73.4255 50.7504,72.1115 C51.5074,68.2315 51.2724,64.3335 50.5764,60.5845 C49.7754,56.3035 49.0974,51.9975 48.6964,47.7085 C48.1584,42.0705 47.4444,36.4155 47.9754,30.6735 C48.4454,25.6275 47.7314,20.5125 47.3134,15.4925 C47.0704,12.5085 47.8444,10.9595 49.8804,9.4285 C49.9674,9.3675 49.8984,9.0975 49.8984,9.1235 C49.1144,8.0715 47.9924,8.0015 46.8184,7.5315 C45.5994,10.5685 45.3564,10.0375 43.1464,10.0195 C39.5454,10.0025 34.8644,9.8195 31.2884,9.5845 C29.4524,9.4635 26.7554,10.5595 25.9634,7.3665 C24.6154,8.0795 23.6504,8.7585 23.1274,10.0195 C25.1034,11.3335 24.9724,13.0215 24.5724,15.2315 C23.8764,19.1195 23.4234,23.0785 22.9284,27.0115 C22.2234,32.6045 21.8574,38.2425 20.7534,43.7765 C19.9434,47.8735 19.9084,52.9545 18.5254,56.9475" id="Fill-4" fill="#212348"></path>
                    <path d="M18.5254,56.9475 C18.5254,57.5395 18.7084,57.9915 18.5254,58.6265 C17.4814,62.1415 17.4214,65.8825 16.8464,69.4755 C16.1414,73.8435 16.1674,73.9565 21.1964,74.7825 C22.0144,71.3815 24.4154,63.7425 25.2514,60.2975 C25.5034,58.5315 26.1724,56.9915 26.5724,55.2685 C32.2454,55.5555 37.9704,54.7985 43.5294,55.9815 C43.9384,56.6695 44.1554,57.2865 44.1204,57.9395 C43.8684,62.9945 45.9394,67.5795 47.0174,72.3555 C47.2354,73.3215 47.5404,74.3475 48.8454,74.1735 C49.9844,74.0255 50.4974,73.4255 50.7504,72.1115 C51.5074,68.2315 51.2724,64.3335 50.5764,60.5845 C49.7754,56.3035 49.0974,51.9975 48.6964,47.7085 C48.1584,42.0705 47.4444,36.4155 47.9754,30.6735 C48.4454,25.6275 47.7314,20.5125 47.3134,15.4925 C47.0704,12.5085 47.8444,10.9595 49.8804,9.4285 C49.9674,9.3675 49.8984,9.0975 49.8984,9.1235 C49.1144,8.0715 47.9924,8.0015 46.8184,7.5315 C45.5994,10.5685 45.3564,10.0375 43.1464,10.0195 C39.5454,10.0025 34.8644,9.8195 31.2884,9.5845 C29.4524,9.4635 26.7554,10.5595 25.9634,7.3665 C24.6154,8.0795 23.6504,8.7585 23.1274,10.0195 C25.1034,11.3335 24.9724,13.0215 24.5724,15.2315 C23.8764,19.1195 23.4234,23.0785 22.9284,27.0115 C22.2234,32.6045 21.8574,38.2425 20.7534,43.7765 C19.9434,47.8735 19.9084,52.9545 18.5254,56.9475 Z" id="Stroke-5" stroke="#212348" stroke-width="0.435" stroke-linecap="round" stroke-linejoin="round"></path>
                    <path d="M64.4038,57.7393 C62.5248,58.6793 60.6798,57.6343 58.9138,57.3653 C55.7468,56.8863 52.6158,57.0613 49.4658,56.9473" id="Stroke-6" stroke="#1F2446" stroke-width="0.435" stroke-linecap="round" stroke-linejoin="round"></path>
                    <g id="Group-9" transform="translate(26.000000, 21.000000)">
                        <path d="M17.3291,6.0845 C16.5901,4.7535 16.1021,3.2825 14.9881,2.1435 C12.4311,-0.4665 9.1861,0.0375 6.0621,0.1075 C5.4791,0.1245 4.8881,0.6475 4.4441,1.3425 C3.0791,3.4575 2.0431,5.7455 0.8421,7.9375 C-0.6969,10.7475 1.0431,13.5575 4.2271,13.7055 C6.5851,13.8185 8.9431,14.1575 11.3001,14.1925 C15.3981,14.2365 16.9641,12.7485 17.3211,8.7115 C17.3901,7.9285 17.3291,6.8675 17.3291,6.0845" id="Fill-7" fill="#FEFEFE"></path>
                        <path d="M17.3291,6.0845 C16.5901,4.7535 16.1021,3.2825 14.9881,2.1435 C12.4311,-0.4665 9.1861,0.0375 6.0621,0.1075 C5.4791,0.1245 4.8881,0.6475 4.4441,1.3425 C3.0791,3.4575 2.0431,5.7455 0.8421,7.9375 C-0.6969,10.7475 1.0431,13.5575 4.2271,13.7055 C6.5851,13.8185 8.9431,14.1575 11.3001,14.1925 C15.3981,14.2365 16.9641,12.7485 17.3211,8.7115 C17.3901,7.9285 17.3291,6.8675 17.3291,6.0845" id="Stroke-8" stroke="#212348" stroke-width="0.652" stroke-linecap="round" stroke-linejoin="round"></path>
                    </g>
                    <path d="M40.1882,26.3011 C39.9272,25.7361 39.7532,25.1701 38.8742,25.2311 C36.7872,25.3881 34.6722,25.3441 32.5932,25.5621 C31.8882,25.6311 30.7492,25.7181 30.7922,26.8231 C30.8272,27.7891 30.2272,28.9281 31.2802,29.7031 C32.7682,30.7991 34.1332,32.0951 36.0552,32.6521 C38.1612,31.1211 40.9362,29.8071 40.1882,26.3011" id="Stroke-10" stroke="#212348" stroke-width="0.652" stroke-linecap="round" stroke-linejoin="round"></path>
                    <path d="M31.6772,18.5562 L28.2752,18.5562 M42.6902,19.0872 C41.6382,19.1742 40.5942,19.2612 39.5422,19.3482" id="Stroke-11" stroke="#FEFEFE" stroke-width="0.652" stroke-linecap="round" stroke-linejoin="round"></path>
                    <path d="M39.5161,34.8011 C39.3731,34.0241 38.8081,32.2661 38.1671,31.7761 C37.5251,31.2871 36.9671,30.6511 35.5211,30.9911 C34.0741,31.3321 33.0991,31.5381 33.0991,31.5381 L31.0451,31.1801 L28.9051,29.8630943 C28.9051,29.8630943 27.1741,29.8511 26.6401,30.9321 C26.1061,32.0121 25.7241,33.7281 26.2161,34.7061 C26.7081,35.6831 27.5651,36.6571 28.1501,36.7541 C28.1501,36.7541 28.4801,38.9741 30.2201,39.2181 C31.9601,39.4611 32.9751,38.7201 33.6461,37.9131 C33.6461,37.9131 35.7561,39.0261 37.5011,38.0471 C39.2461,37.0691 39.6591,35.5781 39.5161,34.8011 L39.5161,34.8011 Z M31.8801,38.4511 L29.9441,38.4511 L28.9051,37.4041 L28.9051,36.8331 L31.3301,37.0101 L32.7651,37.5421 L31.8801,38.4511 Z" id="Fill-12" fill="#FEFEFE"></path>
                    <path d="M33.0542,37.3752 C32.4642,37.0702 31.8632,36.7692 31.1902,36.7232 C30.4312,36.6712 29.6672,36.7552 28.9052,36.6962 C28.6572,36.6772 28.6582,37.0632 28.9052,37.0832 C29.4722,37.1272 30.0372,37.1202 30.6052,37.1112 C31.4732,37.0972 32.0902,37.3112 32.8592,37.7092 C33.0802,37.8232 33.2752,37.4902 33.0542,37.3752" id="Fill-13" fill="#212348"></path>
                    <path d="M28.2217,36.5735 C24.8817,35.3005 26.0747,28.5965 29.7417,30.4995 C30.6487,30.9715 31.1527,31.6505 32.2577,31.7665 C34.4507,31.9975 36.8257,29.6835 38.5897,32.5055 C40.8377,36.1005 37.2027,39.4695 33.6407,37.6905 C33.4187,37.5805 33.2227,37.9135 33.4457,38.0245 C35.5917,39.0965 38.8927,38.9165 39.5137,36.0565 C40.1877,32.9595 38.1847,30.2875 35.0437,30.8955 C33.5567,31.1835 32.1697,31.6495 30.7747,30.7835 C30.2157,30.4365 29.7157,29.8605 29.0517,29.7015 C28.0447,29.4585 27.0467,29.9865 26.4797,30.8225 C25.1177,32.8315 25.8137,36.0675 28.1187,36.9465 C28.3517,37.0355 28.4527,36.6615 28.2217,36.5735" id="Fill-14" fill="#212348"></path>
                    <path d="M30.9285,32.5661 C30.0805,32.6531 29.2305,33.6931 29.3525,34.5561 C29.4735,35.4131 30.4875,36.3561 31.3695,36.3411 C32.3025,36.3241 32.8715,35.4971 32.8875,34.6321 C32.9075,33.5061 32.0345,32.6311 30.9285,32.5661 C30.6795,32.5511 30.6805,32.9381 30.9285,32.9531 C31.7975,33.0041 32.4955,33.6911 32.5005,34.5741 C32.5035,35.2401 32.1205,35.9401 31.3695,35.9541 C30.7605,35.9651 30.0885,35.3561 29.8455,34.8321 C29.5235,34.1411 30.1515,33.0321 30.9285,32.9531 C31.1735,32.9281 31.1765,32.5411 30.9285,32.5661" id="Fill-15" fill="#212348"></path>
                    <path d="M33.2847,35.0242 C32.9107,35.6782 32.1297,35.8222 31.4457,35.9502 C31.2017,35.9962 31.3057,36.3682 31.5487,36.3232 C32.3427,36.1742 33.1897,35.9702 33.6187,35.2192 C33.7427,35.0032 33.4087,34.8082 33.2847,35.0242" id="Fill-16" fill="#212348"></path>
                    <path d="M30.8271,32.9716 C31.2401,32.8146 31.6471,32.7656 32.0861,32.7516 C32.1271,32.7506 32.4241,32.7966 32.2431,32.7416 C32.2911,32.7566 32.3431,32.7836 32.3861,32.8096 C32.9981,33.1786 33.4631,33.5316 33.4501,34.3176 C33.4461,34.5666 33.8331,34.5666 33.8371,34.3176 C33.8501,33.4866 33.3931,32.9226 32.6821,32.5296 C32.0981,32.2056 31.3171,32.3726 30.7241,32.5986 C30.4941,32.6866 30.5941,33.0606 30.8271,32.9716" id="Fill-17" fill="#212348"></path>
                    <path d="M29.3967,34.3168 C28.3797,35.2938 28.3667,37.2768 29.4307,38.2348 C30.7197,39.3948 32.7577,38.5558 33.4267,37.1348 C33.6027,36.7608 33.7007,36.3458 33.7147,35.9328 C33.7227,35.6698 33.4257,34.8428 33.4877,34.6678 C33.5397,34.5188 33.7917,35.1038 33.8107,35.1608 C33.9487,35.5638 33.9347,36.0788 33.8597,36.4858 C33.7277,37.2078 33.3527,38.0298 32.7747,38.4998 C31.7727,39.3148 29.8627,39.2018 28.9727,38.2508 C27.9017,37.1048 28.1547,34.5308 29.7187,33.9408 C29.9497,33.8538 29.8497,33.4798 29.6157,33.5678 C27.7007,34.2898 27.3687,37.3968 28.8787,38.6908 C30.5497,40.1228 33.0947,39.4188 33.9447,37.4958 C34.3287,36.6258 34.5677,35.1028 33.8817,34.2858 C33.4597,33.7828 32.9907,33.9708 32.9157,34.5288 C32.9397,34.5948 32.9767,34.6538 33.0277,34.7058 C33.2297,34.9578 33.3297,35.2648 33.3247,35.6238 C33.3527,35.9868 33.2937,36.3878 33.1767,36.7308 C32.8347,37.7278 31.8437,38.4498 30.7787,38.3788 C28.9657,38.2558 28.4787,35.7348 29.6697,34.5898 C29.8497,34.4178 29.5757,34.1438 29.3967,34.3168" id="Fill-18" fill="#212348"></path>
                    <path d="M36.8726,31.9285 C35.9896,31.7285 35.8386,33.0565 36.6926,33.1275 C37.4186,33.1885 37.6396,32.0865 36.8726,31.9285 C36.6296,31.8785 36.5256,32.2515 36.7696,32.3015 C36.9876,32.3465 37.0746,32.5805 36.8516,32.7035 C36.4966,32.8995 36.3166,32.1985 36.7696,32.3015 C37.0126,32.3565 37.1156,31.9835 36.8726,31.9285" id="Fill-19" fill="#212348"></path>
                    <path d="M38.0981,34.0931 C37.8061,33.9541 37.4731,33.9441 37.2591,34.2251 C37.0971,34.4391 37.0981,34.7351 37.2841,34.9341 C37.8581,35.5471 38.6851,34.8371 38.1681,34.1621 C38.0181,33.9681 37.6821,34.1601 37.8341,34.3581 C37.9111,34.4371 37.9581,34.5331 37.9731,34.6451 C37.8881,34.7961 37.7701,34.8181 37.6191,34.7101 C37.3491,34.4931 37.7001,34.3301 37.9031,34.4271 C38.1261,34.5341 38.3231,34.2001 38.0981,34.0931" id="Fill-20" fill="#212348"></path>
                    <path d="M37.3242,36.2651 C36.5982,36.4941 36.9342,37.5251 37.6432,37.3971 C38.4272,37.2551 38.0902,36.2181 37.3752,36.2581 C37.1282,36.2721 37.1262,36.6591 37.3752,36.6451 C37.5232,36.6371 37.8912,36.8031 37.6542,36.9911 C37.4512,37.1521 37.0872,36.7451 37.4272,36.6381 C37.6632,36.5631 37.5622,36.1901 37.3242,36.2651" id="Fill-21" fill="#212348"></path>
                    <path d="M28.1714,30.5865 C27.9194,30.2165 27.2094,30.4045 27.2794,30.8875 C27.3114,31.1155 27.5454,31.3325 27.7824,31.3115 C28.0964,31.2845 28.1974,30.9465 28.1974,30.6845 C28.1984,30.4355 27.8114,30.4345 27.8114,30.6845 C27.7274,30.7615 27.7364,30.7945 27.8374,30.7815 C27.9764,30.9865 28.3114,30.7935 28.1714,30.5865" id="Fill-22" fill="#212348"></path>
                    <path d="M26.7849,32.597 C26.3399,32.979 26.8079,33.731 27.3379,33.403 C27.9099,33.05 27.3819,32.31 26.8239,32.567 C26.5979,32.671 26.7949,33.004 27.0189,32.901 C27.1999,32.897 27.2199,32.921 27.0809,32.974 C26.9589,33.065 26.9509,33.031 27.0579,32.87 C27.2469,32.708 26.9729,32.435 26.7849,32.597" id="Fill-23" fill="#212348"></path>
                    <path d="M27.1333,34.6548 C26.6493,35.0098 27.0873,35.8188 27.6093,35.5008 C27.7933,35.3888 27.8863,35.1268 27.8243,34.9208 C27.7343,34.6238 27.4433,34.5898 27.1793,34.6358 C26.9353,34.6778 27.0383,35.0498 27.2823,35.0078 C27.4703,35.1858 27.4863,35.1798 27.3283,34.9888 C27.5273,34.8428 27.3343,34.5078 27.1333,34.6548" id="Fill-24" fill="#212348"></path>
                    <path d="M16.9631,12.2481 C18.4231,12.3361 19.8831,12.4241 21.3421,12.5121 C21.6791,12.8941 21.1681,13.4301 20.7281,13.6861 C18.9671,14.7101 17.3211,15.9331 15.8321,17.3231 C15.6651,17.4781 15.4881,17.6641 15.4921,17.8921 C15.4991,18.2891 16.0001,18.4471 16.3931,18.4941 C18.0401,18.6921 19.6861,18.8891 21.3331,19.0871 M11.7341,0.3871 C14.3881,0.8241 17.0411,1.2611 19.6941,1.6981 C16.9921,2.8711 14.2901,4.0441 11.5871,5.2171 C13.2111,6.2911 15.2281,6.7561 17.1591,6.5001" id="Stroke-25" stroke="#212348" stroke-width="0.87" stroke-linecap="round" stroke-linejoin="round"></path>
                </g>
            </g>
        </g>
    </g>
</svg>