<?xml version="1.0" encoding="UTF-8"?>
<svg width="80px" height="80px" viewBox="0 0 80 80" version="1.1" xmlns="http://www.w3.org/2000/svg" xmlns:xlink="http://www.w3.org/1999/xlink">
    <title>Group</title>
    <g id="Page-1" stroke="none" stroke-width="1" fill="none" fill-rule="evenodd">
        <g id="Desktop" transform="translate(-405.000000, -823.000000)">
            <g id="Group" transform="translate(405.500000, 823.500000)">
                <path d="M68.0867,62.8355 C68.2457,64.5575 68.7647,66.3405 67.9077,68.0415 L46.0337,69.4995 C46.5797,67.6545 46.3657,65.7185 46.3657,63.8725 C46.3587,57.6995 46.6627,51.5185 46.1167,45.3245 C45.7157,40.7135 45.9167,36.0265 46.2267,31.3805 C46.4827,27.6335 46.6627,23.8795 46.8627,20.1255 C46.9257,18.9505 46.8627,17.7685 47.0227,16.5795 C47.1057,15.9295 46.6487,14.3115 45.8187,13.4615 C44.6577,12.1755 45.8187,11.6295 46.4967,11.2355 C48.6117,13.1985 48.9027,13.4885 49.7737,13.2265 C52.5737,12.3895 55.0347,13.1705 57.7867,12.9355 C60.9107,12.9425 65.0517,14.0695 66.8837,11.3185 C67.6927,11.5675 67.8867,12.1065 68.6117,12.6245 C65.1347,15.3765 65.7437,18.9915 65.8467,22.4205 C66.0337,28.3935 66.4837,34.3595 66.6287,40.3335 C66.8077,47.8615 67.3887,55.3485 68.0867,62.8355 M61.6647,35.1415 C63.7527,33.3575 64.6577,28.8295 63.7867,26.1535 C62.9777,23.6725 61.2707,22.7385 58.9477,22.4205 C47.4507,21.3425 49.4827,29.2855 49.6217,32.0025 C49.6837,33.2815 50.4167,34.2975 51.8547,34.7405 C54.7377,35.6115 57.6207,36.0055 60.6137,35.5625 C61.0287,35.5005 61.3327,35.4315 61.6647,35.1415" id="Fill-3" fill="#1F2548"></path>
                <path d="M34.1775,39.0818 C34.5785,43.9558 34.4055,48.8298 34.0805,53.6618 C33.7695,58.2518 33.8105,62.8358 33.7415,67.4198 L10.3885,66.5828 C10.3755,59.0128 10.5615,51.4428 10.8035,43.8728 C11.0865,35.1278 10.9905,26.3758 11.0245,17.6298 C11.0325,16.1708 11.1225,14.7058 11.2465,13.2538 C11.0945,10.0458 11.0945,10.0458 13.1475,9.4998 C13.7975,10.5858 13.5825,11.9338 14.1915,13.0468 C18.2565,13.0468 22.3555,12.9218 26.4485,13.0878 C29.2275,13.1988 31.6335,12.9918 32.5805,9.8038 C33.3205,10.5508 33.9495,11.1728 34.6895,11.9058 C31.6885,15.3838 33.0575,19.5378 33.1685,23.4578 C33.3065,28.6778 33.7485,33.8828 34.1775,39.0818 M28.9715,32.6318 C30.0085,28.4908 30.5345,25.6908 27.4925,23.0428 C26.4065,22.0958 25.2665,21.7778 23.6695,21.6678 C22.4185,21.6678 21.2985,21.7918 20.1845,22.1648 C17.2815,23.1328 15.2145,26.3198 15.8235,29.2928 C16.7005,33.5588 18.6565,35.1208 23.1165,35.1278 C23.8765,35.1278 24.6505,35.0648 25.4045,35.1408 C27.3405,35.3348 28.4805,34.5948 28.9715,32.6318" id="Fill-4" fill="#1F2548"></path>
                <path d="M27.3789,25.4345 C27.2009,24.9395 27.0979,24.4175 26.3429,24.4305 C24.1319,24.4695 21.9019,23.6775 19.6779,24.7345 C18.3679,27.5745 19.2729,29.5165 22.4099,30.4085 C23.6039,30.7455 26.2119,29.1805 26.8919,27.8195 C27.2269,27.1385 27.3649,26.1215 27.3789,25.4345 Z M61.2889,27.0265 C60.6099,24.4035 60.6989,24.2985 57.7959,24.4435 C56.8419,24.5755 55.5449,24.5555 54.3709,24.6285 C53.6159,24.7015 52.5869,24.5955 52.7029,26.2005 C52.7109,27.2645 52.3119,29.0085 54.2549,29.8215 C57.2879,31.0955 57.2609,31.4065 60.4929,29.2525 C61.3849,28.6515 61.2479,27.7795 61.2889,27.0265 Z" id="Stroke-5" stroke="#1F2548" stroke-linecap="round" stroke-linejoin="round"></path>
                <path d="M16.9521,19.41 C16.9521,19.41 16.9861,20.347 17.1991,20.438 M27.8671,20.682 C27.8671,20.682 28.2991,19.824 28.2581,19.215 M51.8861,21.479 C51.8861,21.479 51.6741,21.095 51.6741,20.365 M60.5771,21.479 C60.5771,21.479 60.6531,20.937 60.5771,20.365" id="Stroke-6" stroke="#FEFEFE" stroke-linecap="round"></path>
            </g>
        </g>
    </g>
</svg>