<?xml version="1.0" encoding="UTF-8"?>
<svg width="80px" height="80px" viewBox="0 0 80 80" version="1.1" xmlns="http://www.w3.org/2000/svg" xmlns:xlink="http://www.w3.org/1999/xlink">
    <title>Group</title>
    <g id="Page-1" stroke="none" stroke-width="1" fill="none" fill-rule="evenodd">
        <g id="Desktop" transform="translate(-525.000000, -2209.000000)">
            <g id="Group" transform="translate(525.500000, 2209.500000)">
                <g id="Group-21" transform="translate(8.500000, 4.500000)">
                    <g id="Group-15">
                        <path d="M18.8965,42.2494 C18.8965,42.7464 19.0495,43.1254 18.8965,43.6584 C18.0205,46.6074 17.9695,49.7464 17.4875,52.7614 C16.8965,56.4264 16.9175,56.5214 21.1375,57.2144 C21.8235,54.3604 23.8385,47.9504 24.5395,45.0604 C24.7515,43.5784 25.3135,42.2864 25.6485,40.8404 C30.4085,41.0814 35.2125,40.4464 39.8765,41.4394 C40.2195,42.0164 40.4025,42.5344 40.3725,43.0814 C40.1615,47.3234 41.8985,51.1704 42.8035,55.1784 C42.9865,55.9884 43.2425,56.8494 44.3375,56.7034 C45.2935,56.5794 45.7235,56.0764 45.9355,54.9734 C46.5705,51.7174 46.3745,48.4474 45.7895,45.3014 C45.1175,41.7094 44.5485,38.0954 44.2125,34.4974 C43.7605,29.7664 43.1615,25.0214 43.6075,20.2034 C44.0015,15.9694 43.4025,11.6774 43.0515,7.4654 C42.8475,4.9614 43.4975,3.6614 45.2055,2.3774 C45.2785,2.3254 45.2205,2.0994 45.2205,2.1214 C44.5635,1.2384 43.6215,1.1794 42.6365,0.7854 C41.6145,3.3334 41.4095,2.8874 39.5555,2.8734 C36.5335,2.8584 32.6055,2.7054 29.6055,2.5084 C28.0655,2.4064 25.8025,3.3264 25.1375,0.6474 C24.0065,1.2454 23.1965,1.8154 22.7585,2.8734 C24.4155,3.9754 24.3055,5.3924 23.9695,7.2464 C23.3865,10.5094 23.0065,13.8304 22.5905,17.1304 C21.9995,21.8244 21.6925,26.5544 20.7655,31.1974 C20.0865,34.6354 20.0565,38.8984 18.8965,42.2494" id="Fill-3" fill="#212348"></path>
                        <path d="M18.8965,42.2494 C18.8965,42.7464 19.0495,43.1254 18.8965,43.6584 C18.0205,46.6074 17.9695,49.7464 17.4875,52.7614 C16.8965,56.4264 16.9175,56.5214 21.1375,57.2144 C21.8235,54.3604 23.8385,47.9504 24.5395,45.0604 C24.7515,43.5784 25.3135,42.2864 25.6485,40.8404 C30.4085,41.0814 35.2125,40.4464 39.8765,41.4394 C40.2195,42.0164 40.4025,42.5344 40.3725,43.0814 C40.1615,47.3234 41.8985,51.1704 42.8035,55.1784 C42.9865,55.9884 43.2425,56.8494 44.3375,56.7034 C45.2935,56.5794 45.7235,56.0764 45.9355,54.9734 C46.5705,51.7174 46.3745,48.4474 45.7895,45.3014 C45.1175,41.7094 44.5485,38.0954 44.2125,34.4974 C43.7605,29.7664 43.1615,25.0214 43.6075,20.2034 C44.0015,15.9694 43.4025,11.6774 43.0515,7.4654 C42.8475,4.9614 43.4975,3.6614 45.2055,2.3774 C45.2785,2.3254 45.2205,2.0994 45.2205,2.1214 C44.5635,1.2384 43.6215,1.1794 42.6365,0.7854 C41.6145,3.3334 41.4095,2.8874 39.5555,2.8734 C36.5335,2.8584 32.6055,2.7054 29.6055,2.5084 C28.0655,2.4064 25.8025,3.3264 25.1375,0.6474 C24.0065,1.2454 23.1965,1.8154 22.7585,2.8734 C24.4155,3.9754 24.3055,5.3924 23.9695,7.2464 C23.3865,10.5094 23.0065,13.8304 22.5905,17.1304 C21.9995,21.8244 21.6925,26.5544 20.7655,31.1974 C20.0865,34.6354 20.0565,38.8984 18.8965,42.2494 Z" id="Stroke-4" stroke="#212348" stroke-width="0.365" stroke-linecap="round" stroke-linejoin="round"></path>
                        <g id="Group-7" transform="translate(25.000000, 12.000000)">
                            <path d="M14.7087,5.1919 C14.0887,4.0749 13.6797,2.8409 12.7447,1.8849 C10.5987,-0.3051 7.8757,0.1179 5.2547,0.1769 C4.7657,0.1909 4.2697,0.6299 3.8977,1.2129 C2.7507,2.9869 1.8827,4.9069 0.8747,6.7469 C-0.4163,9.1049 1.0437,11.4629 3.7147,11.5869 C5.6937,11.6809 7.6717,11.9659 9.6497,11.9959 C13.0887,12.0319 14.4017,10.7839 14.7017,7.3969 C14.7597,6.7389 14.7087,5.8489 14.7087,5.1919" id="Fill-5" fill="#FEFEFE"></path>
                            <path d="M14.7087,5.1919 C14.0887,4.0749 13.6797,2.8409 12.7447,1.8849 C10.5987,-0.3051 7.8757,0.1179 5.2547,0.1769 C4.7657,0.1909 4.2697,0.6299 3.8977,1.2129 C2.7507,2.9869 1.8827,4.9069 0.8747,6.7469 C-0.4163,9.1049 1.0437,11.4629 3.7147,11.5869 C5.6937,11.6809 7.6717,11.9659 9.6497,11.9959 C13.0887,12.0319 14.4017,10.7839 14.7017,7.3969 C14.7597,6.7389 14.7087,5.8489 14.7087,5.1919" id="Stroke-6" stroke="#212348" stroke-width="0.548" stroke-linecap="round" stroke-linejoin="round"></path>
                        </g>
                        <path d="M37.0732,16.5346 C36.8542,16.0606 36.7082,15.5856 35.9712,15.6366 C34.2192,15.7686 32.4452,15.7316 30.7002,15.9146 C30.1092,15.9726 29.1532,16.0456 29.1892,16.9726 C29.2182,17.7826 28.7152,18.7396 29.5982,19.3886 C30.8462,20.3086 31.9922,21.3966 33.6052,21.8636 C35.3722,20.5786 37.7012,19.4766 37.0732,16.5346" id="Stroke-8" stroke="#212348" stroke-width="0.548" stroke-linecap="round" stroke-linejoin="round"></path>
                        <path d="M28.3855,10.3205 C28.3855,10.3205 28.1595,9.8605 28.1595,8.9845 M37.6275,10.3205 C37.6275,10.3205 37.7085,9.6705 37.6275,8.9845" id="Stroke-9" stroke="#FEFEFE" stroke-width="0.365" stroke-linecap="round" stroke-linejoin="round"></path>
                        <path d="M22.4934,16.484 C17.4244,17.899 11.3294,24.167 8.8494,27.189 C6.3704,30.211 4.3934,37.834 3.1184,42.063 C1.8324,46.324 0.5364,50.64 0.3314,55.087 C0.1264,59.533 3.5234,68.094 6.3724,71.514 M44.1984,17.029 C51.7234,22.902 52.7474,31.289 56.9554,40.087 C60.9704,48.482 63.7954,62.705 59.6094,71.514" id="Stroke-10" stroke="#999999" stroke-width="0.182" stroke-linecap="round" stroke-linejoin="round"></path>
                        <path d="M22.4934,16.484 C22.4934,16.484 20.7774,20.941 30.3264,31.19 C39.8764,41.439 35.0864,66.854 35.0864,66.854 L5.4624,64.421 L22.4934,16.484 Z" id="Fill-11" fill="#FEFEFE"></path>
                        <g id="Group-14" transform="translate(5.000000, 17.000000)">
                            <path d="M39.198,0.0293 C37.364,1.4533 36.161,3.5143 34.781,5.3813 C26.941,15.9843 13.456,20.3093 1.715,26.3123 C1.307,26.5203 0.88,26.7503 0.646,27.1443 C-0.144,28.4723 1.78,29.7213 3.273,30.1163 C13.235,32.7523 22.761,37.0233 31.357,42.7063 C38.342,47.3243 46.357,53.0993 54.61,54.5143" id="Fill-12" fill="#FEFEFE"></path>
                            <path d="M39.198,0.0293 C37.364,1.4533 36.161,3.5143 34.781,5.3813 C26.941,15.9843 13.456,20.3093 1.715,26.3123 C1.307,26.5203 0.88,26.7503 0.646,27.1443 C-0.144,28.4723 1.78,29.7213 3.273,30.1163 C13.235,32.7523 22.761,37.0233 31.357,42.7063 C38.342,47.3243 46.357,53.0993 54.61,54.5143" id="Stroke-13" stroke="#1F2446" stroke-width="0.73" stroke-linecap="round" stroke-linejoin="round"></path>
                        </g>
                    </g>
                    <g id="Group-20" transform="translate(3.000000, 19.000000)">
                        <polygon id="Fill-16" fill="#1F2446" points="10.8662 20.8682 11.7502 30.0812 16.4382 31.8272 15.4792 18.7092"></polygon>
                        <g id="Group-33">
                            <path d="M13.4253,24.4283 C13.4433,24.4163 13.5383,24.3813 13.6323,24.3503 C13.7973,24.2943 13.9643,24.2443 14.1303,24.1883 C14.2843,24.1323 14.4353,24.0593 14.6013,24.0323 C14.6993,24.0143 14.8303,24.0553 14.9173,24.0943 L14.9213,24.0973 L14.9763,24.1233 C15.0763,24.1683 15.1543,24.2073 15.2403,24.2723 C15.2733,24.2943 15.2943,24.3263 15.3043,24.3683 C15.3223,24.4513 15.3373,24.5353 15.3413,24.6213 C15.3433,24.6393 15.3443,24.6553 15.3473,24.6713 C15.3523,24.7083 15.3563,24.8703 15.3643,24.9113" id="Stroke-17" stroke="#FEFEFE" stroke-width="0.14" stroke-linecap="round"></path>
                            <path d="M14.0901,22.9751 C14.2071,22.9571 14.1981,22.9551 14.2561,22.9631 C14.3001,22.9711 14.3431,23.0231 14.3661,23.0581 C14.4591,23.1961 14.5531,23.3391 14.6321,23.4891 C14.7341,23.6811 14.7841,23.7961 14.8521,23.9241 L14.9271,24.0861" id="Stroke-19" stroke="#FEFEFE" stroke-width="0.14" stroke-linecap="round" stroke-linejoin="bevel"></path>
                            <path d="M12.198,24.3747 C12.179,24.2057 12.185,24.0547 12.187,23.8837 C12.187,23.8177 12.201,23.7337 12.214,23.6637 C12.216,23.6477 12.22,23.6277 12.231,23.6047 C12.199,23.5697 12.155,23.5447 12.121,23.5117 C12.082,23.4697 12.071,23.4217 12.087,23.3687 C12.105,23.3167 12.13,23.2647 12.171,23.2267 C12.208,23.1897 12.26,23.1867 12.306,23.1827 C12.383,23.1777 12.449,23.1927 12.506,23.2427 C12.549,23.2817 12.595,23.3137 12.635,23.3517 C12.652,23.3677 12.664,23.3677 12.677,23.3617 C12.83,23.2907 13.297,23.1257 14.09,22.9747 M12.772,26.7267 C12.717,26.7837 12.675,26.8607 12.609,26.9117 C12.542,26.9607 12.48,26.9827 12.405,26.9357 C12.317,26.8827 12.24,26.8257 12.208,26.7207 C12.193,26.6667 12.198,26.6257 12.237,26.5897 C12.284,26.5467 12.314,26.5057 12.308,26.4277 C12.297,26.3227 12.296,26.2187 12.29,26.1127 C12.281,25.9297 12.277,25.7427 12.27,25.5617 C12.258,25.3697 12.203,24.5667 12.198,24.3747" id="Stroke-21" stroke="#FEFEFE" stroke-width="0.14" stroke-linecap="round"></path>
                            <path d="M13.4253,24.4283 C13.3833,24.4563 13.3353,24.4863 13.3063,24.5333 C13.2733,24.5923 13.2763,24.6553 13.2683,24.7163 C13.2543,24.8793 13.2823,25.0443 13.3023,25.2083 C13.3073,25.2643 13.3423,25.3043 13.3873,25.3393 C13.5143,25.4273 13.6573,25.4423 13.7953,25.4703 C13.9313,25.4973 14.0623,25.5263 14.1943,25.5523 C14.3283,25.5763 14.4593,25.6123 14.5923,25.6283 C14.6673,25.6353 14.7433,25.6253 14.8133,25.5893 C14.9063,25.5453 15.0063,25.4893 15.0903,25.4243 C15.1113,25.4093 15.1313,25.3923 15.1503,25.3743 C15.1893,25.3303 15.2653,25.2523 15.2893,25.2073 C15.3013,25.1933 15.3133,25.1663 15.3203,25.1423 C15.3553,25.0643 15.3713,24.9893 15.3643,24.9113" id="Stroke-23" stroke="#FEFEFE" stroke-width="0.14"></path>
                            <path d="M13.3228,26.8126 C13.3988,26.8306 14.1068,26.9106 14.1838,26.9196 C14.2778,26.9316 14.3698,26.9396 14.4628,26.9336 C14.5638,26.9246 14.6298,26.8906 14.6738,26.8006 C14.7728,26.6076 14.8758,26.3516 14.9128,26.2226 C14.9848,25.9696 15.0798,25.5756 15.0988,25.4356 L13.3228,26.8126 Z M12.7728,26.7266 C12.8598,26.7426 12.9448,26.7616 13.0348,26.7716 C13.1288,26.7846 13.2258,26.8026 13.3228,26.8126 L12.7728,26.7266 Z M15.1558,24.7816 C15.1498,24.6406 15.1678,24.6436 15.1318,24.6016 C15.0568,24.5146 14.9468,24.4386 14.8608,24.3696 C14.8288,24.3406 14.7648,24.2876 14.7138,24.2956 C14.6168,24.3106 14.5688,24.2976 14.4698,24.3126 C14.4028,24.3226 14.3938,24.3356 14.3888,24.4086 C14.3808,24.5376 14.3748,24.6696 14.3788,24.7996 C14.3828,24.9896 14.3668,24.8856 14.3998,25.0986 C14.4068,25.1526 14.4008,25.2056 14.4168,25.2586 C14.4288,25.3036 14.4528,25.3186 14.4918,25.3206 C14.5928,25.3296 14.6988,25.3326 14.8058,25.3246 C14.8438,25.3216 14.8658,25.3006 14.8838,25.2716 C14.9638,25.1586 15.0418,25.0406 15.1198,24.9266 C15.1308,24.9046 15.1648,24.8816 15.1558,24.7816 Z" id="Stroke-25" stroke="#FEFEFE" stroke-width="0.14" stroke-linecap="round"></path>
                            <path d="M13.397,24.3421 C13.439,24.3721 13.475,24.4001 13.536,24.3761 L13.448,24.4091 C13.427,24.3991 13.382,24.3571 13.362,24.3551 C13.27,24.3531 13.223,24.2741 13.266,24.1951 C13.288,24.1591 13.329,24.1501 13.369,24.1461 C13.411,24.1451 13.444,24.1651 13.454,24.2101 C13.466,24.2651 13.447,24.3061 13.397,24.3421" id="Fill-27" fill="#FEFEFE"></path>
                            <path d="M13.4333,25.4596 C13.4723,25.4576 13.4963,25.4876 13.5083,25.5126 C13.5253,25.5536 13.5303,25.5906 13.5103,25.6306 C13.4913,25.6646 13.4503,25.6726 13.4133,25.6686 C13.2823,25.6616 13.3053,25.4666 13.3913,25.4626 C13.4233,25.4576 13.4133,25.4286 13.4483,25.3836 L13.4693,25.3936 C13.4603,25.4036 13.4373,25.4386 13.4333,25.4596" id="Fill-29" fill="#FEFEFE"></path>
                            <path d="M22.3982,17.9848 C22.3982,17.9848 31.4162,18.1438 33.6982,24.9988 M52.1472,38.2148 C52.1472,38.2148 55.4992,38.2738 58.6322,39.8728 M38.2762,28.1488 C38.2762,28.1488 45.7432,28.1488 49.3552,35.5068 M34.1782,9.9308 C34.1782,9.9308 41.6442,9.9308 45.2562,17.2888 M48.4082,20.5978 C48.4082,20.5978 51.4622,20.5978 54.6092,22.5238 M29.5642,34.5918 C29.5642,34.5918 31.3252,29.7558 34.8842,28.6608 M38.7242,25.4968 C38.7242,25.4968 41.5202,21.1758 45.2332,20.9018 M44.2222,45.6998 C44.2222,45.6998 46.2952,40.9888 49.9182,40.1278 M51.5082,36.6808 C51.5082,36.6808 53.5822,31.9688 57.2042,31.1088 M47.8362,18.2588 C47.8362,18.2588 49.1792,16.1308 51.2542,14.7418 M41.1982,1.9248 C41.1982,1.9248 45.1542,2.1128 48.0792,6.8548 M10.8662,7.7648 C10.8662,7.7648 11.3052,13.0128 17.8752,15.6128 M12.7722,4.9958 C12.7722,4.9958 14.5352,1.2858 19.0982,0.5558 M8.4082,9.9308 C8.4082,9.9308 3.5902,14.4798 3.4032,19.5358 M1.3042,28.1488 C1.3042,28.1488 -0.9768,34.0958 1.5782,39.0438 M4.2072,43.4138 C4.2072,43.4138 5.0352,49.7298 9.6392,52.8628 M16.7772,36.6808 C16.7772,36.6808 17.6062,42.9968 22.2092,46.1288 M3.4032,40.1278 C3.4032,40.1278 10.7212,41.6058 14.5082,37.1028 M12.3222,54.2598 C12.3222,54.2598 19.6392,55.7378 23.4272,51.2338 M26.6682,49.3088 C26.6682,49.3088 34.1242,48.9328 36.6822,43.6338" id="Stroke-31" stroke="#999999" stroke-width="0.182" stroke-linecap="round" stroke-linejoin="round"></path>
                        </g>
                    </g>
                </g>
            </g>
        </g>
    </g>
</svg>