<?xml version="1.0" encoding="UTF-8"?>
<svg width="80px" height="80px" viewBox="0 0 80 80" version="1.1" xmlns="http://www.w3.org/2000/svg" xmlns:xlink="http://www.w3.org/1999/xlink">
    <title>Group</title>
    <g id="Page-1" stroke="none" stroke-width="1" fill="none" fill-rule="evenodd">
        <g id="Desktop" transform="translate(-285.000000, -2689.000000)">
            <g id="Group" transform="translate(285.000000, 2689.500000)">
                <g id="Group-23" transform="translate(0.000000, 11.500000)">
                    <g id="Group-5" transform="translate(29.000000, 23.000000)">
                        <path d="M0.7786,32.7548 C0.7786,32.7548 3.5366,33.2368 5.1136,32.9828 C6.6896,32.7278 11.0916,32.0048 14.9926,31.7808 C18.8946,31.5568 30.4846,31.8978 30.4846,31.8978 L30.4276,31.0408 C30.4576,29.9578 30.5196,28.8728 30.6196,27.7838 C31.1596,21.9838 30.3396,16.1038 29.8596,10.3338 C29.5796,6.9048 30.4696,5.1238 32.8096,3.3648 C32.9096,3.2938 32.8296,2.9838 32.8296,3.0138 C31.9296,1.8038 30.6396,1.7238 29.2896,1.1838 C27.8896,4.6748 27.6096,4.0638 25.0696,4.0438 C20.9296,4.0238 15.5496,3.8138 11.4396,3.5438 C9.3296,3.4048 6.2296,4.6638 5.3196,0.9948 C3.7696,1.8138 2.6596,2.5948 2.0596,4.0438 C4.3296,5.5538 4.1796,7.4948 3.7196,10.0338 C2.9196,14.5038 2.3996,19.0538 1.8296,23.5738 C1.4346,26.7108 1.1326,29.6138 0.7786,32.7548" id="Fill-3" fill="#212348"></path>
                        <path d="M0.7786,32.7548 C0.7786,32.7548 3.5366,33.2368 5.1136,32.9828 C6.6896,32.7278 11.0916,32.0048 14.9926,31.7808 C18.8946,31.5568 30.4846,31.8978 30.4846,31.8978 L30.4276,31.0408 C30.4576,29.9578 30.5196,28.8728 30.6196,27.7838 C31.1596,21.9838 30.3396,16.1038 29.8596,10.3338 C29.5796,6.9048 30.4696,5.1238 32.8096,3.3648 C32.9096,3.2938 32.8296,2.9838 32.8296,3.0138 C31.9296,1.8038 30.6396,1.7238 29.2896,1.1838 C27.8896,4.6748 27.6096,4.0638 25.0696,4.0438 C20.9296,4.0238 15.5496,3.8138 11.4396,3.5438 C9.3296,3.4048 6.2296,4.6638 5.3196,0.9948 C3.7696,1.8138 2.6596,2.5948 2.0596,4.0438 C4.3296,5.5538 4.1796,7.4948 3.7196,10.0338 C2.9196,14.5038 2.3996,19.0538 1.8296,23.5738 C1.4346,26.7108 1.1326,29.6138 0.7786,32.7548" id="Stroke-4" stroke="#212348" stroke-width="0.5" stroke-linecap="round" stroke-linejoin="round"></path>
                    </g>
                    <path d="M79.3594,45.2731 C71.0264,56.9951 58.3664,54.9601 51.6664,54.4161 M51.6664,54.4161 C36.1624,54.8691 34.7644,56.3111 32.7344,56.0011 C29.0944,55.4511 25.8894,55.9771 22.2694,55.8461" id="Stroke-6" stroke="#1F2446" stroke-width="0.5" stroke-linecap="round" stroke-linejoin="round"></path>
                    <g id="Group-9" transform="translate(37.000000, 38.000000)">
                        <path d="M14.647,5.0183 C14.065,3.9693 13.681,2.8113 12.803,1.9143 C10.789,-0.1417 8.233,0.2553 5.773,0.3103 C5.314,0.3243 4.062,0.9033 3.481,1.1933 C1.15,2.3603 1.14,3.8773 0.797,5.8243 C0.36,8.3103 1.819,10.9043 4.327,11.0213 C6.184,11.1103 8.041,11.3773 9.898,11.4043 C13.126,11.4393 14.359,10.2673 14.64,7.0883 C14.695,6.4713 14.647,5.6353 14.647,5.0183" id="Fill-7" fill="#FEFEFE"></path>
                        <path d="M14.647,5.0183 C14.065,3.9693 13.681,2.8113 12.803,1.9143 C10.789,-0.1417 8.233,0.2553 5.773,0.3103 C5.314,0.3243 4.062,0.9033 3.481,1.1933 C1.15,2.3603 1.14,3.8773 0.797,5.8243 C0.36,8.3103 1.819,10.9043 4.327,11.0213 C6.184,11.1103 8.041,11.3773 9.898,11.4043 C13.126,11.4393 14.359,10.2673 14.64,7.0883 C14.695,6.4713 14.647,5.6353 14.647,5.0183" id="Stroke-8" stroke="#212348" stroke-width="0.514" stroke-linecap="round" stroke-linejoin="round"></path>
                    </g>
                    <path d="M49.1731,42.4013 C48.9671,41.9563 48.8301,41.5103 48.1381,41.5583 C46.4941,41.6823 44.8291,41.6483 43.1911,41.8193 C42.6361,41.8733 41.7381,41.9423 41.7721,42.8123 C41.8001,43.5733 41.3271,44.4713 42.1561,45.0813 C43.3281,45.9443 44.4031,46.9653 45.9181,47.4043 C47.5761,46.1973 49.7621,45.1633 49.1731,42.4013" id="Stroke-10" stroke="#212348" stroke-width="0.514" stroke-linecap="round" stroke-linejoin="round"></path>
                    <path d="M40.8865,34.9107 L36.9765,34.9107 M53.5455,35.6167 C52.3355,35.7157 51.1365,35.8167 49.9265,35.9167" id="Stroke-11" stroke="#FEFEFE" stroke-width="0.75" stroke-linecap="round" stroke-linejoin="round"></path>
                    <path d="M50.4399,48.3874 C50.2759,47.4944 49.6269,45.4734 48.8889,44.9104 C48.1509,44.3484 47.5099,43.6174 45.8479,44.0084 C44.1849,44.3994 43.0639,44.6364 43.0639,44.6364 L40.7029,44.2254 L38.2429,42.7123932 C38.2429,42.7123932 36.2539,42.6984 35.6399,43.9394 C35.0259,45.1814 34.5869,47.1544 35.1529,48.2784 C35.7189,49.4014 36.7029,50.5204 37.3749,50.6324 C37.3749,50.6324 37.7549,53.1844 39.7549,53.4644 C41.7549,53.7444 42.9219,52.8924 43.6929,51.9644 C43.6929,51.9644 46.1179,53.2444 48.1239,52.1194 C50.1299,50.9944 50.6039,49.2804 50.4399,48.3874 L50.4399,48.3874 Z M41.6629,52.5824 L39.4379,52.5824 L38.2429,51.3794 L38.2429,50.7234 L41.0309,50.9264 L42.6799,51.5384 L41.6629,52.5824 Z" id="Fill-12" fill="#FEFEFE"></path>
                    <path d="M43.0125,51.3461 C42.3345,50.9951 41.6435,50.6501 40.8695,50.5971 C39.9975,50.5371 39.1185,50.6341 38.2435,50.5661 C37.9585,50.5431 37.9595,50.9881 38.2435,51.0101 C38.8945,51.0611 39.5445,51.0531 40.1975,51.0421 C41.1955,51.0261 41.9045,51.2721 42.7885,51.7301 C43.0415,51.8611 43.2665,51.4781 43.0125,51.3461" id="Fill-13" fill="#212348"></path>
                    <path d="M37.4578,50.4247 C33.6188,48.9617 34.9888,41.2557 39.2048,43.4437 C40.2478,43.9847 40.8268,44.7657 42.0978,44.8997 C44.6178,45.1657 47.3478,42.5057 49.3758,45.7487 C51.9588,49.8807 47.7808,53.7537 43.6868,51.7087 C43.4318,51.5817 43.2058,51.9647 43.4618,52.0927 C45.9288,53.3247 49.7238,53.1177 50.4378,49.8307 C51.2108,46.2707 48.9098,43.1987 45.2988,43.8977 C43.5898,44.2287 41.9958,44.7647 40.3928,43.7697 C39.7498,43.3707 39.1758,42.7087 38.4118,42.5257 C37.2538,42.2467 36.1068,42.8527 35.4558,43.8147 C33.8908,46.1237 34.6898,49.8437 37.3398,50.8537 C37.6068,50.9557 37.7228,50.5257 37.4578,50.4247" id="Fill-14" fill="#212348"></path>
                    <path d="M40.5691,45.8185 C39.5941,45.9175 38.6171,47.1135 38.7571,48.1065 C38.8971,49.0905 40.0621,50.1755 41.0761,50.1575 C42.1491,50.1385 42.8021,49.1875 42.8201,48.1935 C42.8441,46.8995 41.8401,45.8935 40.5691,45.8185 C40.2831,45.8015 40.2841,46.2465 40.5691,46.2625 C41.5671,46.3215 42.3701,47.1115 42.3751,48.1255 C42.3801,48.8915 41.9401,49.6965 41.0761,49.7125 C40.3761,49.7255 39.6031,49.0255 39.3241,48.4235 C38.9551,47.6285 39.6761,46.3545 40.5691,46.2625 C40.8511,46.2345 40.8541,45.7895 40.5691,45.8185" id="Fill-15" fill="#212348"></path>
                    <path d="M43.2773,48.6439 C42.8473,49.3949 41.9493,49.5609 41.1643,49.7079 C40.8833,49.7609 41.0023,50.1889 41.2823,50.1369 C42.1943,49.9659 43.1683,49.7309 43.6613,48.8679 C43.8033,48.6199 43.4193,48.3949 43.2773,48.6439" id="Fill-16" fill="#212348"></path>
                    <path d="M40.4526,46.2846 C40.9276,46.1036 41.3946,46.0476 41.8996,46.0316 C41.9466,46.0306 42.2876,46.0836 42.0796,46.0196 C42.1346,46.0366 42.1946,46.0686 42.2446,46.0986 C42.9476,46.5226 43.4826,46.9286 43.4676,47.8316 C43.4626,48.1176 43.9076,48.1176 43.9116,47.8316 C43.9286,46.8756 43.4006,46.2276 42.5846,45.7766 C41.9126,45.4046 41.0156,45.5966 40.3346,45.8556 C40.0696,45.9566 40.1846,46.3866 40.4526,46.2846" id="Fill-17" fill="#212348"></path>
                    <path d="M38.8083,47.8308 C37.6393,48.9538 37.6243,51.2338 38.8473,52.3338 C40.3293,53.6668 42.6713,52.7038 43.4403,51.0698 C43.6433,50.6398 43.7553,50.1628 43.7713,49.6878 C43.7813,49.3868 43.4393,48.4358 43.5103,48.2338 C43.5703,48.0638 43.8603,48.7348 43.8823,48.8008 C44.0403,49.2638 44.0243,49.8558 43.9383,50.3238 C43.7863,51.1538 43.3553,52.0978 42.6903,52.6388 C41.5393,53.5758 39.3443,53.4458 38.3213,52.3518 C37.0893,51.0358 37.3813,48.0768 39.1783,47.3988 C39.4433,47.2988 39.3283,46.8688 39.0603,46.9708 C36.8593,47.7998 36.4773,51.3708 38.2133,52.8588 C40.1343,54.5048 43.0583,53.6958 44.0353,51.4848 C44.4773,50.4848 44.7523,48.7338 43.9633,47.7948 C43.4783,47.2178 42.9403,47.4338 42.8533,48.0748 C42.8813,48.1508 42.9233,48.2188 42.9813,48.2778 C43.2143,48.5678 43.3283,48.9198 43.3233,49.3338 C43.3553,49.7498 43.2873,50.2118 43.1523,50.6058 C42.7603,51.7518 41.6213,52.5818 40.3973,52.4998 C38.3123,52.3588 37.7533,49.4608 39.1223,48.1448 C39.3293,47.9468 39.0143,47.6328 38.8083,47.8308" id="Fill-18" fill="#212348"></path>
                    <path d="M47.4014,45.0856 C46.3864,44.8566 46.2124,46.3816 47.1944,46.4636 C48.0294,46.5336 48.2824,45.2666 47.4014,45.0856 C47.1224,45.0286 47.0024,45.4566 47.2834,45.5146 C47.5334,45.5656 47.6334,45.8346 47.3774,45.9766 C46.9694,46.2016 46.7624,45.3966 47.2834,45.5146 C47.5614,45.5776 47.6804,45.1486 47.4014,45.0856" id="Fill-19" fill="#212348"></path>
                    <path d="M48.8101,47.5736 C48.4741,47.4136 48.0911,47.4016 47.8461,47.7246 C47.6591,47.9706 47.6601,48.3116 47.8751,48.5406 C48.5341,49.2446 49.4851,48.4286 48.8901,47.6536 C48.7181,47.4296 48.3321,47.6506 48.5061,47.8776 C48.5951,47.9686 48.6491,48.0796 48.6661,48.2086 C48.5681,48.3816 48.4331,48.4066 48.2591,48.2836 C47.9491,48.0336 48.3521,47.8456 48.5861,47.9576 C48.8421,48.0806 49.0681,47.6966 48.8101,47.5736" id="Fill-20" fill="#212348"></path>
                    <path d="M47.9204,50.0702 C47.0864,50.3332 47.4714,51.5182 48.2874,51.3712 C49.1884,51.2082 48.8014,50.0162 47.9794,50.0622 C47.6954,50.0782 47.6934,50.5232 47.9794,50.5072 C48.1494,50.4972 48.5724,50.6882 48.2994,50.9052 C48.0664,51.0892 47.6484,50.6222 48.0384,50.4992 C48.3104,50.4132 48.1944,49.9842 47.9204,50.0702" id="Fill-21" fill="#212348"></path>
                    <path d="M37.3999,43.5431 C37.1109,43.1171 36.2949,43.3341 36.3739,43.8891 C36.4119,44.1501 36.6809,44.4001 36.9529,44.3761 C37.3139,44.3451 37.4299,43.9571 37.4299,43.6551 C37.4309,43.3691 36.9869,43.3691 36.9859,43.6551 C36.8899,43.7441 36.8999,43.7821 37.0159,43.7671 C37.1759,44.0031 37.5609,43.7801 37.3999,43.5431" id="Fill-22" fill="#212348"></path>
                    <path d="M35.8064,45.8539 C35.2954,46.2939 35.8324,47.1579 36.4424,46.7809 C37.0984,46.3749 36.4924,45.5239 35.8514,45.8189 C35.5914,45.9389 35.8174,46.3219 36.0754,46.2029 C36.2824,46.1979 36.3064,46.2259 36.1474,46.2869 C36.0064,46.3919 35.9974,46.3519 36.1204,46.1679 C36.3374,45.9809 36.0224,45.6679 35.8064,45.8539" id="Fill-23" fill="#212348"></path>
                    <path d="M36.2068,48.2193 C35.6508,48.6273 36.1538,49.5573 36.7538,49.1923 C36.9658,49.0623 37.0728,48.7613 37.0008,48.5253 C36.8978,48.1833 36.5628,48.1443 36.2598,48.1973 C35.9788,48.2453 36.0978,48.6743 36.3778,48.6253 C36.5948,48.8293 36.6118,48.8223 36.4318,48.6033 C36.6598,48.4353 36.4378,48.0503 36.2068,48.2193" id="Fill-24" fill="#212348"></path>
                    <path d="M20.4878,34.6038 C22.1658,34.7048 23.8438,34.8058 25.5218,34.9068 C25.9078,35.3458 25.3208,35.9618 24.8148,36.2568 C22.7908,37.4338 20.8998,38.8388 19.1878,40.4368 C18.9958,40.6158 18.7918,40.8288 18.7968,41.0918 C18.8048,41.5468 19.3808,41.7288 19.8328,41.7828 C21.7258,42.0108 23.6178,42.2378 25.5108,42.4648 M14.4778,20.9698 C17.5278,21.4728 20.5778,21.9748 23.6278,22.4768 C20.5208,23.8248 17.4148,25.1738 14.3088,26.5218 C16.1748,27.7568 18.4938,28.2908 20.7128,27.9968 M3.9708,0.1938 C6.9788,1.2908 9.9868,2.3888 12.9938,3.4868 C13.2128,3.5668 13.4588,3.6738 13.5288,3.8958 C13.6498,4.2808 13.1678,4.5608 12.7808,4.6758 C8.8178,5.8588 4.8538,7.0418 0.8908,8.2248 C2.6438,10.1298 5.0578,11.3278 7.5518,12.0218 C10.0458,12.7168 12.6428,12.9428 15.2218,13.1668" id="Stroke-25" stroke="#212348" stroke-linecap="round" stroke-linejoin="round"></path>
                </g>
            </g>
        </g>
    </g>
</svg>