<?xml version="1.0" encoding="UTF-8"?>
<svg width="53px" height="74px" viewBox="0 0 53 74" version="1.1" xmlns="http://www.w3.org/2000/svg" xmlns:xlink="http://www.w3.org/1999/xlink">
    <title>Group</title>
    <g id="Page-1" stroke="none" stroke-width="1" fill="none" fill-rule="evenodd">
        <g id="Desktop" transform="translate(-155.000000, -232.000000)">
            <g id="Group" transform="translate(155.000000, 232.000000)">
                <path d="M0.1963,73.6006 C0.7233,55.1466 0.5313,36.6806 0.6043,18.2286 C0.6213,15.0046 0.8193,11.7666 1.0933,8.5586 C0.7583,1.4706 0.7583,1.4706 5.2953,0.2636 C6.7313,2.6616 6.2573,5.6406 7.6013,8.0996 C16.5833,8.0996 25.6423,7.8256 34.6863,8.1916 C40.8263,8.4366 46.1433,7.9786 48.2363,0.9356 C49.8693,2.5856 51.2593,3.9606 52.8943,5.5796 C46.2653,13.2636 49.2893,22.4446 49.5333,31.1056 C49.8393,42.6396 50.8163,54.1416 51.7633,65.6296 C51.9763,68.2136 52.1163,70.7986 52.1963,73.3816 M40.2603,51.3766 C42.5523,42.2266 43.7143,36.0396 36.9923,30.1886 C34.5933,28.0966 32.0733,27.3936 28.5443,27.1496 C25.7793,27.1496 23.3053,27.4246 20.8453,28.2486 C14.4293,30.3876 9.8633,37.4296 11.2063,43.9986 C13.1463,53.4236 17.4693,56.8756 27.3223,56.8906 C29.0023,56.8906 30.7133,56.7536 32.3783,56.9216 C36.6563,57.3496 39.1763,55.7156 40.2603,51.3766" id="Fill-1" fill="#1F2548"></path>
                <path d="M36.7412,35.4733 C36.3472,34.3783 36.1192,33.2253 34.4512,33.2543 C29.5682,33.3423 24.6392,31.5903 19.7252,33.9263 C16.8302,40.2023 18.8302,44.4943 25.7622,46.4653 C28.4012,47.2093 34.1632,43.7503 35.6642,40.7433 C36.4072,39.2393 36.7102,36.9913 36.7412,35.4733 Z" id="Stroke-3" stroke="#1F2548" stroke-width="2.21" stroke-linecap="round" stroke-linejoin="round"></path>
                <path d="M13.7017,22.1612 C13.7017,22.1612 13.7777,24.2312 14.2467,24.4332 M37.8197,24.9712 C37.8197,24.9712 38.7747,23.0752 38.6837,21.7312" id="Stroke-5" stroke="#FEFEFE" stroke-width="2.21" stroke-linecap="round"></path>
            </g>
        </g>
    </g>
</svg>