<?xml version="1.0" encoding="UTF-8"?>
<svg width="73px" height="49px" viewBox="0 0 73 49" version="1.1" xmlns="http://www.w3.org/2000/svg" xmlns:xlink="http://www.w3.org/1999/xlink">
    <title>Group</title>
    <g id="Page-1" stroke="none" stroke-width="1" fill="none" fill-rule="evenodd">
        <g id="Desktop" transform="translate(-409.000000, -3400.000000)">
            <g id="Group" transform="translate(410.000000, 3401.000000)">
                <path d="M4.84669367,21.9223667 L4.96577595,25.5368905 L5.51085823,27.3922714 C5.51085823,27.3922714 6.09503544,27.7620048 7.09532658,27.7552905 C8.09516835,27.7485762 15.2414532,27.7543952 15.2414532,27.7543952 L36.2273456,27.7552905 L65.1072696,27.4723952 C65.1072696,27.4723952 66.2944975,27.3219952 66.2913581,26.0547857 C66.2882063,24.7875762 66.2765228,21.7616714 66.2765228,21.7616714 L30.4435418,21.7616714 L4.84669367,21.9223667 Z" id="Fill-1" fill="#7F7C89"></path>
                <path d="M13.7879753,1.12862667 L5.71239937,15.7684552 C5.71239937,15.7684552 4.90443734,16.9752362 4.86444367,17.6591981 C4.82400063,18.3427124 4.86444367,23.5713505 4.86444367,23.5713505 C4.86444367,23.5713505 4.86444367,26.9898171 5.51063354,27.3922267 C6.15682342,27.7941886 8.86156392,27.7539029 8.86156392,27.7539029 L40.7194437,27.7552457 L65.1070449,27.4727981 C65.1070449,27.4727981 66.1163234,27.351941 66.2376525,26.3063029 C66.3585323,25.2606648 66.2376525,19.2276552 66.2376525,19.2276552 C66.2376525,19.2276552 66.5607475,17.8198933 65.2283741,15.9291505 C63.6061589,13.6288362 55.2142285,1.12862667 55.2142285,1.12862667 C55.2142285,1.12862667 54.7702538,0.24368381 53.5187665,0.24368381 L15.4834373,0.24368381 C15.4834373,0.24368381 14.3294627,0.146550476 13.7879753,1.12862667 Z" id="Stroke-3" stroke="#212348" stroke-width="0.5" stroke-linecap="round" stroke-linejoin="round"></path>
                <path d="M4.84669367,20.1725343 C4.84669367,20.1725343 4.92488354,20.554801 5.77328861,20.5950867 C6.62079494,20.6353724 17.8257633,20.7159438 17.8257633,20.7159438 L34.6630987,20.7159438 L53.2363392,20.7159438 L64.6830671,20.7159438 C64.6830671,20.7159438 66.0540861,20.714601 66.2567506,20.3327819 L66.2765228,21.7615819 C66.2765228,21.7615819 66.2172063,22.284401 64.8848329,22.284401 C63.5524595,22.284401 43.6266241,22.4048105 43.6266241,22.4048105 L6.17682025,22.4048105 C6.17682025,22.4048105 4.96982025,22.4249533 4.84669367,21.9222771 L4.84669367,20.1725343 Z" id="Fill-5" fill="#202347"></path>
                <path d="M4.84669367,20.1725343 C4.84669367,20.1725343 4.92488354,20.554801 5.77328861,20.5950867 C6.62079494,20.6353724 17.8257633,20.7159438 17.8257633,20.7159438 L34.6630987,20.7159438 L53.2363392,20.7159438 L64.6830671,20.7159438 C64.6830671,20.7159438 66.0540861,20.714601 66.2567506,20.3327819 L66.2765228,21.7615819 C66.2765228,21.7615819 66.2172063,22.284401 64.8848329,22.284401 C63.5524595,22.284401 43.6266241,22.4048105 43.6266241,22.4048105 L6.17682025,22.4048105 C6.17682025,22.4048105 4.96982025,22.4249533 4.84669367,21.9222771 L4.84669367,20.1725343 Z" id="Stroke-7" stroke="#212348" stroke-width="0.5" stroke-linecap="round" stroke-linejoin="round"></path>
                <path d="M5.30266646,27.0009181 C4.40123608,27.8961562 2.08474873,30.73988 1.48619177,31.1127467 C1.03682468,31.3365562 0.161906962,31.7228514 0.362774051,32.381299 C0.886736076,34.0974705 4.48167278,32.6982133 1.66009684,30.978461" id="Stroke-9" stroke="#212348" stroke-width="0.5" stroke-linecap="round" stroke-linejoin="round"></path>
                <path d="M0.362684177,32.38112 C0.344260127,35.5892057 0.062506962,44.16872 0.361785443,46.48112 L2.53312722,46.48112 C2.60862089,44.8401486 2.92632342,38.2113581 2.62524747,32.7656248" id="Stroke-11" stroke="#212348" stroke-width="0.5" stroke-linecap="round" stroke-linejoin="round"></path>
                <path d="M65.812731,27.1460362 C66.2998449,27.9298171 69.2737563,30.9337886 70.2470854,31.9780838 C70.9211361,32.7242648 71.4006108,33.4623886 69.4899019,33.5742933 C67.2268892,33.7076838 68.8243892,30.8590362 70.2470854,31.9780838" id="Stroke-13" stroke="#212348" stroke-width="0.5" stroke-linecap="round" stroke-linejoin="round"></path>
                <path d="M68.2180133,32.9030438 C68.2180133,35.8492724 68.4611209,45.6113962 68.3856272,46.8799486 C68.3856272,46.8799486 69.7153044,46.9278438 70.3884563,46.8544343 C70.4271019,44.01832 70.8265892,35.3143676 70.717393,33.2016057" id="Stroke-15" stroke="#212348" stroke-width="0.5" stroke-linecap="round" stroke-linejoin="round"></path>
                <path d="M2.7525981,33.2016057 C9.94247152,33.2016057 64.7733449,32.3063676 68.218193,32.9030438" id="Stroke-17" stroke="#212348" stroke-width="0.5" stroke-linecap="round" stroke-linejoin="round"></path>
                <path d="M2.7525981,38.7509181 C6.1974462,39.0506181 67.4870728,39.5006181 68.385807,38.7509181" id="Stroke-19" stroke="#212348" stroke-width="0.5" stroke-linecap="round" stroke-linejoin="round"></path>
                <path d="M2.7525981,32.94982 C3.42664873,31.4950581 4.70824367,30.62802 4.70824367,30.62802 C5.94400316,30.62802 65.4154905,29.7488962 65.6711804,30.180401 C66.309731,31.2618486 67.1725158,31.8025724 67.6205348,32.6982581" id="Stroke-21" stroke="#212348" stroke-width="0.5" stroke-linecap="round" stroke-linejoin="round"></path>
                <path d="M6.96146013,27.6452657 C6.44513734,28.2679038 5.89466266,28.8641324 5.49158038,29.3224943 C8.30012468,29.6210562 60.9165171,29.3220467 64.5087576,29.1380752 C63.9654728,28.6882181 63.41365,28.0190276 62.9889981,27.4478657" id="Stroke-23" stroke="#212348" stroke-width="0.5" stroke-linecap="round" stroke-linejoin="round"></path>
            </g>
        </g>
    </g>
</svg>