<?xml version="1.0" encoding="UTF-8"?>
<svg width="74px" height="34px" viewBox="0 0 74 34" version="1.1" xmlns="http://www.w3.org/2000/svg" xmlns:xlink="http://www.w3.org/1999/xlink">
    <title>Group</title>
    <g id="Page-1" stroke="none" stroke-width="1" fill="none" fill-rule="evenodd">
        <g id="Desktop" transform="translate(-297.000000, -3893.000000)">
            <g id="Group" transform="translate(298.000000, 3894.000000)">
                <path d="M0.689274866,17.4378667 L0.689274866,23.5647238 C0.689274866,24.2683429 1.26565989,24.4576762 1.97680428,24.4576762 C2.68756364,24.4576762 3.26394866,24.2683429 3.26394866,23.5647238 L3.27203422,23.5647238 L3.27203422,17.9932952 L0.689274866,17.4378667 Z" id="Fill-1" fill="#E1C69E"></path>
                <path d="M0.689274866,17.4378667 L0.689274866,23.5647238 C0.689274866,24.2683429 1.26565989,24.4576762 1.97680428,24.4576762 C2.68756364,24.4576762 3.26394866,24.2683429 3.26394866,23.5647238 L3.27203422,23.5647238 L3.27203422,17.9932952 L0.689274866,17.4378667 Z" id="Stroke-3" stroke="#212348" stroke-width="0.765072"></path>
                <path d="M33.328569,25.1629333 L33.328569,30.9488381 C33.328569,31.6524571 33.904954,31.8417905 34.6160984,31.8417905 C35.3268578,31.8417905 35.9032428,31.6524571 35.9032428,30.9488381 L35.9113283,30.9488381 L35.9113283,25.3774095 L33.328569,25.1629333 Z" id="Fill-5" fill="#E1C69E"></path>
                <path d="M33.328569,25.1629333 L33.328569,30.9488381 C33.328569,31.6524571 33.904954,31.8417905 34.6160984,31.8417905 C35.3268578,31.8417905 35.9032428,31.6524571 35.9032428,30.9488381 L35.9113283,30.9488381 L35.9113283,25.3774095 L33.328569,25.1629333 Z" id="Stroke-7" stroke="#212348" stroke-width="0.765072"></path>
                <path d="M69.098477,13.3009524 L69.098477,19.4278095 C69.098477,20.1314286 69.674862,20.3207619 70.3860064,20.3207619 C71.0967658,20.3207619 71.6731508,20.1314286 71.6731508,19.4278095 L71.6812364,19.4278095 L71.6812364,12.4533333 L69.098477,13.3009524 Z" id="Fill-9" fill="#E1C69E"></path>
                <path d="M69.098477,13.3009524 L69.098477,19.4278095 C69.098477,20.1314286 69.674862,20.3207619 70.3860064,20.3207619 C71.0967658,20.3207619 71.6731508,20.1314286 71.6731508,19.4278095 L71.6812364,19.4278095 L71.6812364,12.4533333 L69.098477,13.3009524 Z" id="Stroke-11" stroke="#212348" stroke-width="0.765072"></path>
                <path d="M64.0231701,6.792 C58.5681112,8.94247619 42.2129455,14.4468571 36.6300578,16.464381 C35.4826781,16.8788571 34.675277,16.954305 34.5944214,16.954305 C34.5089455,16.954305 33.8389989,16.9607619 32.8340791,16.736381 C28.4755765,15.7630476 14.9515123,12.6902857 8.95549091,11.1451429 C7.16165134,10.6830476 6.04199348,10.5302857 6.04199348,10.2655238 C6.04199348,9.85561905 7.87626096,9.4712381 11.4104214,8.53638095 C20.0869989,6.24152381 35.1896727,2.69371429 36.3470631,2.4152381 C38.2021219,1.968 39.8889241,2.22819048 39.8889241,2.22819048 C39.8889241,2.22819048 52.5998118,4.03809524 59.8352342,5.10971429 C62.0857155,5.44304762 66.095769,5.69904762 66.095769,6.0312381 C66.095769,6.13409524 65.1054802,6.36533333 64.0231701,6.792 M71.683662,6.5367619 C71.6513198,2.94971429 66.2239829,3.88190476 66.2239829,3.88190476 C66.2239829,3.88190476 42.897908,0.294857143 38.5663572,0.453333333 C34.2348064,0.612190476 22.2346781,4.19961905 12.7052663,6.61219048 C3.17585455,9.0247619 0.384410695,9.7752381 0.384410695,9.7752381 L0.384410695,16.8106667 C0.672795722,17.8342857 14.7909561,20.4853333 19.0905497,21.6598095 C23.3897583,22.8342857 32.6638973,25.0510476 35.4649668,24.8026667 C38.2660364,24.5546667 64.7208385,14.7394286 69.1501861,13.1794286 C72.8002396,11.8937143 71.7156193,10.1241905 71.683662,6.5367619" id="Fill-432" fill="#BCBCC4"></path>
                <path d="M0.0963336898,10.4073524 C0.0963336898,10.9311619 1.81201283,11.322019 1.81201283,11.322019 C1.81201283,11.322019 24.8808898,17.0065905 32.3099807,18.6656381 C33.6286973,18.9597333 34.5077134,18.9513767 34.6201412,18.9513767 C34.7256385,18.9513767 35.7752214,18.8241143 37.2914567,18.3083048 C45.4478631,15.5323048 70.1288471,6.48087619 70.8784941,6.2511619 C71.7679059,5.9784 71.6816599,5.46297143 71.6812749,5.46297143 C71.6789647,5.2591619 71.712462,4.51744762 70.6293818,4.36278095 C68.7477561,4.09382857 40.6115422,0.134590476 40.6115422,0.134590476 C40.6115422,0.134590476 38.9593925,-0.0227428571 36.7986225,0.291542857 C34.6382374,0.605828571 0.959563636,9.42868571 0.959563636,9.42868571 C0.959563636,9.42868571 0.0963336898,9.65573333 0.0963336898,10.498781" id="Stroke-434" stroke="#212348" stroke-width="0.95634"></path>
                <line x1="0.0963336898" y1="10.4073524" x2="0.0963336898" y2="16.810781" id="Stroke-436" stroke="#212348" stroke-width="0.95634"></line>
                <path d="M71.6812364,5.4631619 C71.6812364,5.4631619 71.6812364,11.774781 71.6816214,11.774781 C71.6816214,11.774781 71.7682524,12.2905905 70.8784556,12.5633524 C70.1288086,12.7926857 45.4478246,21.8444952 37.2914182,24.6201143 C35.7751829,25.1363048 34.725985,25.2631895 34.6201027,25.2631895 C34.5076749,25.2631895 33.6286588,25.2719238 32.3099422,24.9774476 C24.8808513,23.3184 1.81197433,17.6342095 1.81197433,17.6342095 C1.81197433,17.6342095 0.0966802139,17.3344 0.0966802139,16.8105905" id="Stroke-438" stroke="#212348" stroke-width="0.95634"></path>
                <path d="M6.04207059,10.2656 C6.04207059,10.529981 7.16172834,10.6831238 8.95518289,11.145219 C14.9515893,12.6903619 28.4756535,15.7631238 32.8341561,16.7360762 C33.8390759,16.9608381 34.5090225,16.9543811 34.5944984,16.9543811 C34.675354,16.9543811 35.4827551,16.8785524 36.6301348,16.4640762 C42.2130225,14.4469333 58.5681882,8.94217143 64.0232471,6.79207619 C65.1051722,6.36540952 66.095846,6.13379048 66.095846,6.03131429 C66.095846,5.69912381 62.0857925,5.44312381 59.8353112,5.10979048 C52.5998888,4.03779048 39.8890011,2.22788571 39.8890011,2.22788571 C39.8890011,2.22788571 38.2018139,1.96807619 36.3471401,2.41531429 C35.1897497,2.69379048 20.0870759,6.2416 11.4101134,8.53645714 C7.87633797,9.47131429 6.04207059,9.85569524 6.04207059,10.2656 Z" id="Stroke-440" stroke="#212348" stroke-width="0.765072"></path>
                <line x1="34.6201412" y1="18.9512381" x2="34.6201412" y2="25.2628571" id="Stroke-442" stroke="#212348" stroke-width="0.95634"></line>
            </g>
        </g>
    </g>
</svg>