<?xml version="1.0" encoding="UTF-8"?>
<svg width="66px" height="71px" viewBox="0 0 66 71" version="1.1" xmlns="http://www.w3.org/2000/svg" xmlns:xlink="http://www.w3.org/1999/xlink">
    <title>Group 25</title>
    <g id="Page-1" stroke="none" stroke-width="1" fill="none" fill-rule="evenodd">
        <g id="Desktop" transform="translate(-532.000000, -2696.000000)">
            <g id="Group-25" transform="translate(525.500000, 2689.500000)">
                <g id="Group-27" transform="translate(6.500000, 7.500000)">
                    <path d="M18.9927,50.6847 C12.9567,50.5537 6.1107,50.8477 0.1587,50.3647" id="Stroke-3" stroke="#020203" stroke-width="0.444" stroke-linecap="round" stroke-linejoin="round"></path>
                    <path d="M18.9927,50.6847 C18.9927,51.2887 19.1797,51.7507 18.9927,52.3997 C17.9267,55.9887 17.8647,59.8087 17.2787,63.4777 C16.5587,67.9377 16.5857,68.0527 21.7207,68.8967 C22.5547,65.4237 25.0077,57.6227 25.8607,54.1047 C26.1177,52.3017 26.8017,50.7297 27.2107,48.9707 C33.0027,49.2637 38.8487,48.4907 44.5257,49.6987 C44.9427,50.4007 45.1647,51.0317 45.1297,51.6977 C44.8717,56.8597 46.9857,61.5407 48.0877,66.4187 C48.3097,67.4047 48.6217,68.4527 49.9537,68.2747 C51.1177,68.1247 51.6417,67.5117 51.8987,66.1697 C52.6717,62.2077 52.4327,58.2277 51.7217,54.3987 C50.9037,50.0277 50.2117,45.6297 49.8017,41.2507 C49.2517,35.4937 48.5237,29.7187 49.0657,23.8557 C49.5447,18.7027 48.8167,13.4787 48.3897,8.3527 C48.1417,5.3057 48.9317,3.7247 51.0107,2.1607 C51.0997,2.0987 51.0287,1.8227 51.0287,1.8497 C50.2287,0.7747 49.0827,0.7037 47.8837,0.2237 C46.6397,3.3247 46.3907,2.7827 44.1347,2.7647 C40.4567,2.7467 35.6767,2.5607 32.0257,2.3207 C30.1517,2.1967 27.3967,3.3157 26.5887,0.0557 C25.2117,0.7837 24.2257,1.4767 23.6927,2.7647 C25.7097,4.1067 25.5757,5.8297 25.1677,8.0867 C24.4567,12.0577 23.9947,16.0997 23.4887,20.1157 C22.7687,25.8277 22.3957,31.5847 21.2677,37.2347 C20.4407,41.4187 20.4057,46.6067 18.9927,50.6847" id="Fill-4" fill="#212348"></path>
                    <path d="M18.9927,50.6847 C18.9927,51.2887 19.1797,51.7507 18.9927,52.3997 C17.9267,55.9887 17.8647,59.8087 17.2787,63.4777 C16.5587,67.9377 16.5857,68.0527 21.7207,68.8967 C22.5547,65.4237 25.0077,57.6227 25.8607,54.1047 C26.1177,52.3017 26.8017,50.7297 27.2107,48.9707 C33.0027,49.2637 38.8487,48.4907 44.5257,49.6987 C44.9427,50.4007 45.1647,51.0317 45.1297,51.6977 C44.8717,56.8597 46.9857,61.5407 48.0877,66.4187 C48.3097,67.4047 48.6217,68.4527 49.9537,68.2747 C51.1177,68.1247 51.6417,67.5117 51.8987,66.1697 C52.6717,62.2077 52.4327,58.2277 51.7217,54.3987 C50.9037,50.0277 50.2117,45.6297 49.8017,41.2507 C49.2517,35.4937 48.5237,29.7187 49.0657,23.8557 C49.5447,18.7027 48.8167,13.4787 48.3897,8.3527 C48.1417,5.3057 48.9317,3.7247 51.0107,2.1607 C51.0997,2.0987 51.0287,1.8227 51.0287,1.8497 C50.2287,0.7747 49.0827,0.7037 47.8837,0.2237 C46.6397,3.3247 46.3907,2.7827 44.1347,2.7647 C40.4567,2.7467 35.6767,2.5607 32.0257,2.3207 C30.1517,2.1967 27.3967,3.3157 26.5887,0.0557 C25.2117,0.7837 24.2257,1.4767 23.6927,2.7647 C25.7097,4.1067 25.5757,5.8297 25.1677,8.0867 C24.4567,12.0577 23.9947,16.0997 23.4887,20.1157 C22.7687,25.8277 22.3957,31.5847 21.2677,37.2347 C20.4407,41.4187 20.4057,46.6067 18.9927,50.6847 Z" id="Stroke-5" stroke="#212348" stroke-width="0.444" stroke-linecap="round" stroke-linejoin="round"></path>
                    <path d="M65.8413,51.4932 C63.9223,52.4532 62.0393,51.3862 60.2353,51.1112 C57.0013,50.6222 53.8033,50.8002 50.5873,50.6842" id="Stroke-6" stroke="#1F2446" stroke-width="0.444" stroke-linecap="round" stroke-linejoin="round"></path>
                    <g id="Group-9" transform="translate(26.000000, 14.000000)">
                        <path d="M18.321,6.1902 C17.566,4.8312 17.068,3.3292 15.931,2.1652 C13.319,-0.4998 10.005,0.0152 6.816,0.0872 C6.221,0.1042 5.617,0.6382 5.164,1.3482 C3.769,3.5072 2.712,5.8432 1.486,8.0822 C-0.086,10.9522 1.69,13.8212 4.942,13.9722 C7.35,14.0882 9.757,14.4342 12.165,14.4702 C16.349,14.5142 17.948,12.9952 18.312,8.8732 C18.383,8.0732 18.321,6.9892 18.321,6.1902" id="Fill-7" fill="#FEFEFE"></path>
                        <path d="M18.321,6.1902 C17.566,4.8312 17.068,3.3292 15.931,2.1652 C13.319,-0.4998 10.005,0.0152 6.816,0.0872 C6.221,0.1042 5.617,0.6382 5.164,1.3482 C3.769,3.5072 2.712,5.8432 1.486,8.0822 C-0.086,10.9522 1.69,13.8212 4.942,13.9722 C7.35,14.0882 9.757,14.4342 12.165,14.4702 C16.349,14.5142 17.948,12.9952 18.312,8.8732 C18.383,8.0732 18.321,6.9892 18.321,6.1902" id="Stroke-8" stroke="#212348" stroke-width="0.666" stroke-linecap="round" stroke-linejoin="round"></path>
                    </g>
                    <path d="M41.1135,19.3903 C40.8475,18.8133 40.6695,18.2353 39.7725,18.2973 C37.6405,18.4573 35.4815,18.4133 33.3585,18.6353 C32.6385,18.7063 31.4745,18.7953 31.5195,19.9233 C31.5545,20.9093 30.9425,22.0733 32.0175,22.8643 C33.5365,23.9833 34.9305,25.3073 36.8935,25.8763 C39.0435,24.3123 41.8775,22.9713 41.1135,19.3903" id="Stroke-10" stroke="#212348" stroke-width="0.666" stroke-linecap="round" stroke-linejoin="round"></path>
                    <path d="M30.5408,11.8279 C30.5408,11.8279 30.2658,11.2679 30.2658,10.2019 M41.7878,11.8279 C41.7878,11.8279 41.8858,11.0369 41.7878,10.2019" id="Stroke-11" stroke="#FEFEFE" stroke-width="0.444" stroke-linecap="round" stroke-linejoin="round"></path>
                    <path d="M11.1384,45.2862 C10.5974,45.0062 10.0454,44.7312 9.4294,44.6882 C8.7324,44.6412 8.0324,44.7182 7.3334,44.6632 C7.1054,44.6462 7.1064,45.0002 7.3334,45.0182 C7.8534,45.0592 8.3714,45.0532 8.8924,45.0442 C9.6884,45.0312 10.2544,45.2272 10.9594,45.5922 C11.1614,45.6972 11.3414,45.3912 11.1384,45.2862" id="Fill-12" fill="#1F2446"></path>
                    <path d="M6.7063,44.551 C3.6433,43.384 4.7363,37.234 8.1003,38.981 C8.9323,39.413 9.3943,40.036 10.4083,40.143 C12.4193,40.355 14.5983,38.232 16.2163,40.82 C18.2773,44.117 14.9433,47.207 11.6763,45.576 C11.4733,45.474 11.2933,45.78 11.4973,45.882 C13.4653,46.865 16.4933,46.7 17.0633,44.077 C17.6813,41.236 15.8443,38.785 12.9623,39.343 C11.5993,39.607 10.3273,40.035 9.0483,39.24 C8.5353,38.922 8.0773,38.394 7.4673,38.248 C6.5433,38.025 5.6283,38.509 5.1093,39.276 C3.8603,41.119 4.4983,44.087 6.6123,44.893 C6.8253,44.974 6.9183,44.632 6.7063,44.551" id="Fill-13" fill="#1F2446"></path>
                    <path d="M9.189,40.8755 C8.411,40.9545 7.631,41.9095 7.744,42.7005 C7.855,43.4865 8.784,44.3515 9.594,44.3375 C10.449,44.3225 10.971,43.5645 10.985,42.7705 C11.004,41.7385 10.203,40.9355 9.189,40.8755 C8.961,40.8615 8.962,41.2165 9.189,41.2305 C9.985,41.2775 10.626,41.9065 10.63,42.7165 C10.634,43.3275 10.283,43.9705 9.594,43.9825 C9.035,43.9935 8.418,43.4345 8.195,42.9545 C7.901,42.3195 8.476,41.3025 9.189,41.2305 C9.414,41.2075 9.416,40.8525 9.189,40.8755" id="Fill-14" fill="#1F2446"></path>
                    <path d="M11.3499,43.1301 C11.0039,43.7301 10.2929,43.8611 9.6639,43.9791 C9.4399,44.0211 9.5349,44.3631 9.7579,44.3211 C10.4889,44.1841 11.2589,43.9971 11.6559,43.3091 C11.7709,43.1111 11.4639,42.9321 11.3499,43.1301" id="Fill-15" fill="#1F2446"></path>
                    <path d="M9.0959,41.2475 C9.4749,41.1025 9.8479,41.0585 10.2509,41.0465 C10.2879,41.0445 10.5609,41.0875 10.3939,41.0365 C10.4379,41.0495 10.4859,41.0755 10.5259,41.0995 C11.0869,41.4375 11.5139,41.7615 11.5019,42.4815 C11.4979,42.7095 11.8529,42.7095 11.8559,42.4815 C11.8689,41.7195 11.4489,41.2025 10.7969,40.8415 C10.2609,40.5455 9.5459,40.6985 9.0019,40.9055 C8.7909,40.9855 8.8819,41.3285 9.0959,41.2475" id="Fill-16" fill="#1F2446"></path>
                    <path d="M7.7839,42.4812 C6.8509,43.3772 6.8389,45.1962 7.8149,46.0742 C8.9979,47.1382 10.8659,46.3692 11.4799,45.0662 C11.6419,44.7232 11.7319,44.3422 11.7439,43.9632 C11.7519,43.7222 11.4799,42.9642 11.5359,42.8032 C11.5839,42.6672 11.8149,43.2032 11.8329,43.2552 C11.9589,43.6252 11.9459,44.0972 11.8779,44.4702 C11.7559,45.1332 11.4129,45.8862 10.8819,46.3182 C9.9629,47.0652 8.2119,46.9612 7.3959,46.0892 C6.4119,45.0382 6.6449,42.6772 8.0789,42.1372 C8.2909,42.0572 8.1989,41.7142 7.9849,41.7952 C6.2289,42.4572 5.9239,45.3062 7.3089,46.4932 C8.8419,47.8062 11.1759,47.1612 11.9549,45.3972 C12.3069,44.5992 12.5269,43.2022 11.8979,42.4522 C11.5109,41.9922 11.0809,42.1642 11.0119,42.6762 C11.0339,42.7362 11.0679,42.7902 11.1139,42.8382 C11.2999,43.0692 11.3909,43.3502 11.3869,43.6802 C11.4119,44.0132 11.3579,44.3812 11.2509,44.6952 C10.9369,45.6102 10.0279,46.2722 9.0519,46.2062 C7.3879,46.0942 6.9419,43.7822 8.0349,42.7322 C8.1999,42.5732 7.9489,42.3232 7.7839,42.4812" id="Fill-17" fill="#1F2446"></path>
                    <path d="M10.5972,39.9364 C10.7842,39.5354 11.2052,39.2994 11.4212,38.9074 C11.6262,38.5364 11.6492,38.0924 11.8362,37.7144 C12.1482,37.0814 12.8802,36.9034 13.5412,37.0504 C14.6202,37.2914 14.5272,38.5624 13.9972,39.2694 C13.8602,39.4524 14.1682,39.6294 14.3032,39.4484 C15.2932,38.1284 14.5192,36.5224 12.8692,36.6804 C12.2462,36.7394 11.7802,36.9924 11.5072,37.5694 C11.3322,37.9394 11.3022,38.3654 11.1152,38.7284 C10.9022,39.1394 10.4842,39.3434 10.2912,39.7574 C10.1952,39.9634 10.5002,40.1434 10.5972,39.9364" id="Fill-18" fill="#1F2446"></path>
                    <path d="M11.8154,38.909 C12.2574,38.924 12.6984,38.943 13.1394,38.984 C13.3664,39.005 13.3654,38.65 13.1394,38.629 C12.6984,38.588 12.2574,38.569 11.8154,38.554 C11.5864,38.547 11.5874,38.901 11.8154,38.909" id="Fill-19" fill="#1F2446"></path>
                    <path d="M14.6406,40.2907 C13.8216,40.1187 13.6946,41.3477 14.4886,41.3917 C15.1556,41.4287 15.3296,40.4377 14.6406,40.2907 C14.4176,40.2427 14.3226,40.5847 14.5466,40.6327 C14.7226,40.6707 14.8136,40.8177 14.6686,40.9597 C14.3766,41.2447 14.0846,40.5357 14.5466,40.6327 C14.7686,40.6797 14.8646,40.3377 14.6406,40.2907" id="Fill-20" fill="#1F2446"></path>
                    <path d="M15.7646,42.2761 C15.5116,42.1571 15.2186,42.1331 15.0176,42.3661 C14.8516,42.5591 14.8366,42.8471 15.0106,43.0391 C15.5306,43.6121 16.3036,42.9681 15.8286,42.3401 C15.6926,42.1601 15.3846,42.3361 15.5216,42.5191 C15.5466,42.5511 15.5716,42.5841 15.5966,42.6171 C15.4216,42.9001 15.3186,42.9411 15.2886,42.7401 C15.2666,42.5651 15.3676,42.4801 15.5856,42.5821 C15.7906,42.6791 15.9716,42.3731 15.7646,42.2761" id="Fill-21" fill="#1F2446"></path>
                    <path d="M15.0549,44.2681 C14.3949,44.4801 14.6909,45.4151 15.3429,45.3071 C16.0679,45.1851 15.7589,44.2281 15.1019,44.2621 C14.8749,44.2731 14.8739,44.6281 15.1019,44.6161 C15.2379,44.6091 15.5779,44.7581 15.3609,44.9321 C15.1619,45.0911 14.8409,44.7091 15.1489,44.6101 C15.3659,44.5401 15.2729,44.1981 15.0549,44.2681" id="Fill-22" fill="#1F2446"></path>
                    <path d="M6.6602,39.06 C6.4212,38.722 5.7572,38.899 5.8432,39.353 C5.8832,39.563 6.1082,39.756 6.3272,39.722 C6.6012,39.679 6.6842,39.385 6.6842,39.149 C6.6852,38.921 6.3302,38.921 6.3292,39.149 C6.1792,39.253 6.1872,39.283 6.3542,39.239 C6.4842,39.424 6.7922,39.247 6.6602,39.06" id="Fill-23" fill="#1F2446"></path>
                    <path d="M5.3887,40.9039 C4.9857,41.2589 5.4077,41.9429 5.8957,41.6439 C6.4237,41.3199 5.9367,40.6499 5.4247,40.8759 C5.2157,40.9679 5.3967,41.2739 5.6037,41.1829 C5.6157,41.1729 5.6277,41.1639 5.6397,41.1549 C5.8107,41.0029 5.5597,40.7529 5.3887,40.9039" id="Fill-24" fill="#1F2446"></path>
                    <path d="M5.7083,42.7913 C5.2733,43.1193 5.6573,43.8553 6.1443,43.5673 C6.3243,43.4613 6.4073,43.1963 6.3303,43.0053 C6.2303,42.7553 5.9833,42.7353 5.7503,42.7733 C5.5263,42.8103 5.6213,43.1523 5.8453,43.1153 C6.0353,43.2373 6.0493,43.2313 5.8873,43.0973 C6.0673,42.9613 5.8903,42.6533 5.7083,42.7913" id="Fill-25" fill="#1F2446"></path>
                </g>
            </g>
        </g>
    </g>
</svg>