<?xml version="1.0" encoding="UTF-8"?>
<svg width="70px" height="48px" viewBox="0 0 70 48" version="1.1" xmlns="http://www.w3.org/2000/svg" xmlns:xlink="http://www.w3.org/1999/xlink">
    <title>Group</title>
    <defs>
        <polygon id="path-1" points="4.15715476e-05 0.232350958 69.9784277 0.232350958 69.9784277 17.6351876 4.15715476e-05 17.6351876"></polygon>
    </defs>
    <g id="Page-1" stroke="none" stroke-width="1" fill="none" fill-rule="evenodd">
        <g id="Desktop" transform="translate(-290.000000, -3400.000000)">
            <g id="Group" transform="translate(290.000000, 3401.000000)">
                <path d="M4.94191195,21.7155962 L5.05857862,25.2960208 L5.59260377,27.1338981 C5.59260377,27.1338981 6.16537107,27.5001434 7.14537107,27.4934925 C8.12449057,27.4868415 15.1262516,27.4926057 15.1262516,27.4926057 L35.6864403,27.4934925 L63.9800881,27.213266 C63.9800881,27.213266 65.1432327,27.0642849 65.1401571,25.8090302 C65.1370692,24.5537755 65.1260629,21.556417 65.1260629,21.556417 L30.019522,21.556417 L4.94191195,21.7155962 Z" id="Fill-1" fill="#7F7C89"></path>
                <path d="M13.7018176,1.11802358 L5.7900566,15.6197406 C5.7900566,15.6197406 4.99892453,16.8151368 4.95974214,17.4926462 C4.9201195,18.1697123 4.95974214,23.3490236 4.95974214,23.3490236 C4.95974214,23.3490236 4.95974214,26.7352406 5.59238365,27.1338538 C6.22546541,27.5320236 8.87577987,27.4921179 8.87577987,27.4921179 L40.0874151,27.4934481 L63.9798679,27.2136651 C63.9798679,27.2136651 64.9691132,27.0939481 65.0879811,26.0581745 C65.2064088,25.0224009 65.0879811,19.0463066 65.0879811,19.0463066 C65.0879811,19.0463066 65.4040818,17.6518255 64.0987358,15.7789198 C62.5098679,13.5003066 54.2881698,1.11802358 54.2881698,1.11802358 C54.2881698,1.11802358 53.8532013,0.241429245 52.6271006,0.241429245 L15.363327,0.241429245 C15.363327,0.241429245 14.232761,0.145212264 13.7018176,1.11802358 Z" id="Stroke-3" stroke="#212348" stroke-width="0.5" stroke-linecap="round" stroke-linejoin="round"></path>
                <path d="M4.94191195,19.9822717 C4.94191195,19.9822717 5.01895597,20.3609321 5.84971069,20.4008377 C6.68046541,20.4407434 17.6576981,20.5205547 17.6576981,20.5205547 L34.1534843,20.5205547 L52.3504025,20.5205547 L63.5644906,20.5205547 C63.5644906,20.5205547 64.9081384,20.5192245 65.1066918,20.1410075 L65.1260629,21.5563283 C65.1260629,21.5563283 65.0679497,22.0742151 63.7621635,22.0742151 C62.4572579,22.0742151 42.9351824,22.1934887 42.9351824,22.1934887 L6.2450566,22.1934887 C6.2450566,22.1934887 5.06254088,22.2134415 4.94191195,21.7155075 L4.94191195,19.9822717 Z" id="Fill-5" fill="#202347"></path>
                <path d="M4.94191195,19.9822717 C4.94191195,19.9822717 5.01895597,20.3609321 5.84971069,20.4008377 C6.68046541,20.4407434 17.6576981,20.5205547 17.6576981,20.5205547 L34.1534843,20.5205547 L52.3504025,20.5205547 L63.5644906,20.5205547 C63.5644906,20.5205547 64.9081384,20.5192245 65.1066918,20.1410075 L65.1260629,21.5563283 C65.1260629,21.5563283 65.0679497,22.0742151 63.7621635,22.0742151 C62.4572579,22.0742151 42.9351824,22.1934887 42.9351824,22.1934887 L6.2450566,22.1934887 C6.2450566,22.1934887 5.06254088,22.2134415 4.94191195,21.7155075 L4.94191195,19.9822717 Z" id="Stroke-7" stroke="#212348" stroke-width="0.5" stroke-linecap="round" stroke-linejoin="round"></path>
                <g id="Group-11" transform="translate(0.000000, 22.842887)">
                    <mask id="mask-2" fill="white">
                        <use xlink:href="#path-1"></use>
                    </mask>
                    <g id="Clip-10"></g>
                    <path d="M4.8576478,1.32872547 C3.77110692,2.59683868 2.78230189,3.95850849 1.83444025,5.33303679 C1.23833962,6.19765943 0.133308176,7.40813113 0.0289685535,8.47981981 C-0.0868176101,9.67344245 0.177773585,11.0240274 0.246893082,12.2189802 C0.345509434,13.9123104 0.444125786,15.6056406 0.537459119,17.2998575 C0.544503145,17.4266689 0.632993711,17.5113575 0.757584906,17.5215557 C3.40657862,17.7339425 6.12028931,17.5854047 8.77412579,17.5752066 C14.2041887,17.5534802 19.6342516,17.5033764 25.0647547,17.4497255 C36.898717,17.3331123 48.7326792,17.1863481 60.5666415,17.037367 C63.5229308,17.0001217 66.4805409,16.9336123 69.4368302,16.9309519 C69.5653836,16.9309519 69.6441887,16.8285274 69.656956,16.7092538 C69.8427421,14.9321217 69.8779623,13.1368104 69.9140629,11.3512538 C69.9303522,10.5314142 69.9409182,9.71113113 69.9466415,8.89129151 C69.9488428,8.61150849 70.017522,8.23373491 69.9466415,7.95882925 C69.8806038,7.70210283 69.6468302,7.44936698 69.5068302,7.22988585 C69.0912327,6.57986698 68.6778365,5.92896132 68.265761,5.27672547 C67.2338113,3.64281038 66.2027421,2.00623491 65.2245031,0.339065094 C65.0805409,0.0934235849 64.6997233,0.316008491 64.8441258,0.562093396 C66.1041258,2.71034811 67.4433711,4.81160283 68.7804151,6.91152736 C68.9789686,7.22323491 69.1779623,7.53405566 69.376956,7.84531981 C69.4196604,7.91271604 69.4927421,7.98986698 69.5178365,8.06524434 C69.5402893,8.13175377 69.4782138,7.91626321 69.5103522,8.07765943 C69.6472704,8.76847075 69.5011069,9.63930094 69.4909811,10.3394236 C69.4724906,11.634584 69.443434,12.9297443 69.3862013,14.2235745 C69.3624277,14.7707255 69.3338113,15.3183198 69.2928679,15.864584 C69.2897862,15.9062632 69.2237484,16.6418575 69.3298491,16.5004142 C69.2946289,16.5469708 69.4711698,16.4276972 69.3571447,16.4875557 C69.0692201,16.640084 68.2983396,16.4981972 67.9795975,16.5021877 C62.2690943,16.5682538 56.5590314,16.6449613 50.8485283,16.7150179 C42.364,16.8196594 33.8803522,16.9189802 25.3953836,17.0032255 C18.5754465,17.0706217 11.7541887,17.1473292 4.93381132,17.1380179 C4.00972327,17.1366877 3.08607547,17.1344708 2.16198742,17.1211689 C1.86085535,17.1167349 1.56016352,17.1131877 1.25903145,17.1021028 C1.16922013,17.0989991 1.04374843,17.1162915 0.957018868,17.0905745 C0.693748428,17.0120934 0.897144654,17.2568481 0.956138365,16.9056783 C1.03450314,16.4365651 0.896264151,15.8455179 0.868968553,15.3697538 C0.830226415,14.6882538 0.791044025,14.0071972 0.751421384,13.3256972 C0.68318239,12.1436028 0.614062893,10.9619519 0.545383648,9.78030094 C0.507962264,9.14092358 0.366641509,8.56805566 0.654125786,8.00848962 C1.25330818,6.84235755 2.06161006,5.75515 2.82192453,4.69232925 C3.56771069,3.64857453 4.33506918,2.61590472 5.16890566,1.6422066 C5.35337107,1.42760283 5.04343396,1.11234811 4.8576478,1.32872547" id="Fill-9" fill="#212348" mask="url(#mask-2)"></path>
                </g>
                <path d="M1.4177303,40.1425226 C1.43975472,42.2770321 1.65503774,44.4212962 1.80208176,46.5500415 C1.81044654,46.6635509 1.8971761,46.7806075 2.02220755,46.7717396 C2.45849686,46.7420321 2.89434591,46.7123245 3.33063522,46.682617 C3.45126415,46.6741925 3.54855975,46.5877302 3.55076101,46.4609189 C3.59126415,44.3787302 3.6462956,42.2845698 3.55252201,40.2032679 C3.53975472,39.9190509 3.09906289,39.9172774 3.11227044,40.2032679 C3.18315094,41.7724472 3.15365409,43.3487208 3.13472327,44.9187868 C3.13076101,45.2783811 3.10126415,45.6464 3.11887421,46.0055509 C3.13648428,46.3651453 3.36497484,46.2330132 2.88818239,46.2693717 C2.64736478,46.2875509 2.36164151,46.2613906 2.12742767,46.3216925 C2.16749057,46.3110509 2.18510063,46.6981358 2.23088679,46.3780038 C2.36516352,45.4317962 2.08780503,44.2661075 2.02793082,43.3132491 C1.96057233,42.2592962 1.86855975,41.1995792 1.85799371,40.1425226 C1.8553522,39.8574189 1.41510063,39.8565321 1.4177303,40.1425226" id="Fill-12" fill="#212348"></path>
                <path d="M65.9881182,39.5519189 C65.9951635,41.7892962 66.0757296,44.0280038 66.1351635,46.2644943 C66.137805,46.3531736 66.2012013,46.4626925 66.2967358,46.4782113 C66.8391258,46.565117 67.3779937,46.5314189 67.9186226,46.4445132 C68.0110755,46.4294377 68.0823962,46.3199189 68.080195,46.2307962 C68.0357296,44.0115981 68.1127736,41.7117019 67.7957925,39.5120132 C67.7557296,39.2304566 67.331327,39.3501736 67.3718302,39.6299566 C67.5602579,40.9432962 67.5347233,42.3098434 67.5743459,43.6333811 C67.5932767,44.2661075 67.6100063,44.8983906 67.6249748,45.5306736 C67.6289371,45.6987208 67.6703208,45.9323906 67.6373019,46.0995509 C67.6302579,46.1332491 67.6535912,46.1882302 67.6399434,46.2197113 C67.7830252,45.8907113 67.6082453,46.0330415 67.3031509,46.0751642 C67.0759811,46.1066453 66.6220818,46.2307962 66.5727736,46.165617 C66.5102579,46.0827019 66.561327,45.7169 66.5586855,45.6211264 C66.5415157,44.9445038 66.5243459,44.2683245 66.5080566,43.5917019 C66.4750377,42.2455509 66.4327736,40.8985132 66.4283711,39.5519189 C66.4274906,39.2663717 65.987239,39.2659283 65.9881182,39.5519189" id="Fill-14" fill="#212348"></path>
                <path d="M0.181251572,31.3806585 C0.969301887,31.5456019 1.8128239,31.5336302 2.61276101,31.5646679 C4.27118868,31.6298472 5.93137736,31.6560075 7.59068553,31.6790642 C12.694522,31.7486774 17.7996792,31.7477906 22.9035157,31.7371491 C34.6938931,31.7109887 46.4842704,31.6076774 58.2724465,31.4081491 C61.9912516,31.3447434 65.7223836,31.3318849 69.4367862,31.1234887 C69.7185472,31.1079698 69.7203082,30.6641302 69.4367862,30.6800925 C60.933327,31.1567434 52.3713145,31.0680642 43.8581698,31.1563 C32.3948994,31.2751302 20.9276667,31.3713472 9.46439623,31.2573943 C7.42030818,31.2369981 5.37666038,31.2117245 3.33345283,31.1469887 C2.34200629,31.1150642 1.27527673,31.1576302 0.298798742,30.9527811 C0.0218805031,30.8951396 -0.0965471698,31.3221302 0.181251572,31.3806585" id="Fill-16" fill="#212348"></path>
                <path d="M0.720383648,30.7757803 L23.7186855,30.6808906 C36.0131509,30.6303434 48.3080566,30.5797962 60.602522,30.5296925 C63.5257925,30.5181642 66.4495031,30.4973245 69.3727736,30.4951075 C69.6562956,30.4951075 69.6567358,30.0517113 69.3727736,30.0517113 C61.5433396,30.0574755 53.7130252,30.1146736 45.8835912,30.1465981 C33.6349119,30.1967019 21.3853522,30.2472491 9.13667296,30.2977962 C6.33138994,30.3093245 3.52610692,30.3208528 0.720383648,30.3323811 C0.437301887,30.3337113 0.436421384,30.7771075 0.720383648,30.7757803" id="Fill-18" fill="#212348"></path>
                <path d="M25.6277044,27.7335028 C28.586195,28.0110689 31.5882704,28.3919462 34.4142453,29.3545594 L34.2605975,29.0818708 C34.2302201,29.3066726 34.1998428,29.5319179 34.1690252,29.7562764 C34.1311635,30.0351726 34.5551258,30.1562198 34.5934277,29.8742198 C34.6242453,29.6494179 34.6546226,29.4241726 34.685,29.1998142 C34.7017296,29.0752198 34.6568239,28.9696915 34.5317925,28.9266821 C31.6692767,27.9520972 28.6249371,27.5712198 25.6277044,27.2901066 C25.3455031,27.2635028 25.3477044,27.7068991 25.6277044,27.7335028" id="Fill-20" fill="#212348"></path>
                <path d="M34.440044,29.6014868 C32.4175283,29.062317 30.2572138,28.8836283 28.1853899,28.641534 C25.7248239,28.3542132 23.236522,28.068666 20.7561447,28.0580245 C15.0799811,28.0327509 9.30608176,28.3568736 3.6884717,29.1762698 C3.75979245,29.2999774 3.83155346,29.4236849 3.90287421,29.5469491 C4.15689937,29.3385528 4.40520126,29.0933547 4.67771698,28.9120057 C5.173,28.5812321 5.74312579,28.5479774 6.34406918,28.4464396 C8.14822013,28.1404962 9.96645912,27.9289962 11.7882201,27.7569585 C12.0677799,27.7303547 12.0699811,27.2865151 11.7882201,27.3135623 C9.86520126,27.4949113 7.94438365,27.7206 6.0402956,28.0509302 C5.52740252,28.1400528 5.00262264,28.1724208 4.56149057,28.4389019 C4.21545283,28.6481849 3.90551572,28.9762981 3.59161635,29.2334679 C3.39922642,29.3908736 3.61759119,29.6311943 3.80601887,29.6041472 C9.38312579,28.7905151 15.1209245,28.4761472 20.7561447,28.5014208 C23.0943208,28.5116189 25.4382201,28.7718925 27.7592264,29.0361566 C29.9327484,29.2826849 32.2009245,29.4631472 34.3224969,30.0293642 C34.5967736,30.1025245 34.7138805,29.6746472 34.440044,29.6014868" id="Fill-22" fill="#212348"></path>
                <path d="M34.2607736,27.4745594 C34.1810881,27.7237481 34.1018428,27.9733802 34.0225975,28.2225689 C33.9358679,28.4952575 34.3607107,28.6114274 34.447,28.3405123 C34.5266855,28.0913236 34.6054906,27.8416915 34.6851761,27.5925028 C34.7719057,27.3198142 34.3466226,27.2036443 34.2607736,27.4745594" id="Fill-24" fill="#212348"></path>
                <path d="M6.58255346,27.1805434 C6.02079245,27.2568075 5.45903145,27.3361755 4.89771069,27.4190906 C4.96903145,27.5427981 5.0403522,27.6665057 5.11167296,27.7897698 C5.32255346,27.6172887 5.53255346,27.4452509 5.74299371,27.2727698 C5.96267925,27.0927509 5.64966038,26.7810434 5.43173585,26.9592887 C5.2212956,27.1317698 5.0112956,27.3038075 4.80041509,27.4762887 C4.60890566,27.6332509 4.82638994,27.8744585 5.01481761,27.8469679 C5.57613836,27.7636094 6.13745912,27.6846849 6.70010063,27.6084208 C6.97922013,27.5702887 6.8603522,27.1428547 6.58255346,27.1805434" id="Fill-26" fill="#212348"></path>
                <path d="M34.2934403,28.0677792 C33.1236918,27.746317 31.9367736,27.4882604 30.7498553,27.2426189 C30.4733774,27.1854208 30.3549497,27.6128547 30.6331887,27.6704962 C31.8196667,27.9156943 33.0065849,28.1737509 34.1758931,28.4956566 C34.4497296,28.5705906 34.5668365,28.1431566 34.2934403,28.0677792" id="Fill-28" fill="#212348"></path>
                <path d="M44.4467421,27.3147594 C41.5375597,27.5989764 38.5887547,27.9807406 35.8094465,28.9269481 C35.6857358,28.9690708 35.6386289,29.0745991 35.6557987,29.1996368 C35.6866164,29.4244387 35.7169937,29.649684 35.7473711,29.8740425 C35.785673,30.1555991 36.2096352,30.0358821 36.1717736,29.7565425 C36.1413962,29.5317406 36.1105786,29.3064953 36.0802013,29.0816934 L35.9265535,29.3548255 C38.6693208,28.4205896 41.5763019,28.0383821 44.4467421,27.7581557 C44.7263019,27.7306651 44.7289434,27.2872689 44.4467421,27.3147594" id="Fill-30" fill="#212348"></path>
                <path d="M36.0183459,30.0292755 C38.0950126,29.4754736 40.3121195,29.2958981 42.4394151,29.0520302 C44.8070881,28.7806717 47.1989748,28.5115302 49.5846981,28.5013321 C55.2199182,28.4760585 60.957717,28.7904264 66.5348239,29.6040585 C66.7232516,29.6315491 66.9420566,29.3916717 66.7492264,29.2333792 C66.4260818,28.9682283 66.0985346,28.6157283 65.7388491,28.4051151 C65.1515535,28.0623698 64.2706101,28.0415302 63.6023082,27.9346717 C61.4926226,27.598134 59.3670881,27.3724453 57.2384717,27.2008509 C56.9562704,27.1782377 56.9575912,27.621634 57.2384717,27.6442472 C59.2653899,27.807417 61.2896667,28.0184736 63.2998553,28.3328415 C63.9567107,28.435266 64.8790377,28.4498981 65.4685346,28.7522943 C65.8145723,28.9300962 66.1350755,29.2990019 66.4379686,29.5468604 C66.5092893,29.4235962 66.5806101,29.2998887 66.6523711,29.1761811 C61.0343208,28.3572283 55.2608616,28.0326623 49.5846981,28.0579358 C47.1518679,28.068134 44.7115535,28.3452566 42.2976541,28.6250396 C40.1796038,28.8702377 37.9682201,29.0502566 35.9007987,29.6013981 C35.6274025,29.6745585 35.7436289,30.1024358 36.0183459,30.0292755" id="Fill-32" fill="#212348"></path>
                <path d="M35.6559308,27.5923255 C35.7351761,27.8415142 35.8144214,28.0911462 35.8941069,28.3403349 C35.979956,28.61125 36.405239,28.4955236 36.3185094,28.2228349 C36.2388239,27.9732028 36.1600189,27.7240142 36.0803333,27.4743821 C35.9944843,27.2039104 35.5692013,27.3196368 35.6559308,27.5923255" id="Fill-34" fill="#212348"></path>
                <path d="M62.4506101,27.4528774 C63.4107987,27.5748113 64.3687862,27.7051698 65.3258931,27.8470566 C65.5143208,27.8745472 65.7326855,27.633783 65.5402956,27.4763774 C65.1792893,27.1806321 64.8187233,26.8853302 64.4581572,26.5895849 C64.2402327,26.4108962 63.9272138,26.7230472 64.1468994,26.903066 C64.5074654,27.1988113 64.8680314,27.4941132 65.2290377,27.7898585 C65.3003585,27.6661509 65.3716792,27.5428868 65.4434403,27.4191792 C64.4471509,27.2719717 63.4495409,27.1362925 62.4506101,27.0094811 C62.1701698,26.9740094 62.1728113,27.4178491 62.4506101,27.4528774" id="Fill-36" fill="#212348"></path>
                <path d="M36.1649497,28.4955679 C37.2748239,28.1905113 38.4014277,27.9430962 39.5284717,27.7072094 C39.8058302,27.6491245 39.688283,27.2216906 39.4113648,27.2797755 C38.2843208,27.5156623 37.1581572,27.762634 36.0474025,28.0676906 C35.7744465,28.1430679 35.890673,28.5709453 36.1649497,28.4955679" id="Fill-38" fill="#212348"></path>
            </g>
        </g>
    </g>
</svg>