<?xml version="1.0" encoding="UTF-8"?>
<svg width="82px" height="39px" viewBox="0 0 82 39" version="1.1" xmlns="http://www.w3.org/2000/svg" xmlns:xlink="http://www.w3.org/1999/xlink">
    <title>Group</title>
    <g id="Page-1" stroke="none" stroke-width="1" fill="none" fill-rule="evenodd" stroke-linecap="round">
        <g id="Desktop" transform="translate(-632.000000, -3425.000000)" stroke="#212348" stroke-width="0.5">
            <g id="Group" transform="translate(633.000000, 3426.000000)">
                <line x1="17.287128" y1="0.187968317" x2="3.26817062" y2="15.6739089" id="Stroke-1"></line>
                <line x1="20.6105782" y1="0.606833663" x2="0.189725118" y2="28.6542198" id="Stroke-3"></line>
                <line x1="25.8612322" y1="0.187968317" x2="5.16398104" y2="35.8966812" id="Stroke-5"></line>
                <line x1="29.5660664" y1="0.187968317" x2="14.3584834" y2="36.8372752" id="Stroke-7"></line>
                <line x1="32.8762085" y1="0.187968317" x2="24.8796209" y2="35.8966812" id="Stroke-9"></line>
                <line x1="36.5902938" y1="0.187968317" x2="32.4625213" y2="36.8372752" id="Stroke-11"></line>
                <line x1="38.837763" y1="0.187968317" x2="39.4770047" y2="37.4016317" id="Stroke-13"></line>
                <line x1="41.7861611" y1="0.187968317" x2="45.6379147" y2="36.8372752" id="Stroke-15"></line>
                <line x1="43.7118863" y1="0.187968317" x2="54.1687583" y2="37.4016317" id="Stroke-17"></line>
                <line x1="46.9390711" y1="0.187968317" x2="62.2255166" y2="37.9321267" id="Stroke-19"></line>
                <line x1="50.4843223" y1="0.187968317" x2="70.2826161" y2="36.8372752" id="Stroke-21"></line>
                <line x1="54.1687962" y1="0.187968317" x2="77.9602654" y2="35.3323248" id="Stroke-23"></line>
                <line x1="58.0672607" y1="0.187968317" x2="79.9015735" y2="27.9016317" id="Stroke-25"></line>
                <line x1="61.6058389" y1="0.187968317" x2="79.9015735" y2="19.4362851" id="Stroke-27"></line>
                <line x1="11.7824455" y1="0.187968317" x2="68.1024455" y2="0.187968317" id="Stroke-29"></line>
            </g>
        </g>
    </g>
</svg>