<?xml version="1.0" encoding="UTF-8"?>
<svg width="80px" height="80px" viewBox="0 0 80 80" version="1.1" xmlns="http://www.w3.org/2000/svg" xmlns:xlink="http://www.w3.org/1999/xlink">
    <title>Group</title>
    <g id="Page-1" stroke="none" stroke-width="1" fill="none" fill-rule="evenodd">
        <g id="Desktop" transform="translate(-525.000000, -649.000000)">
            <g id="Group" transform="translate(525.000000, 649.000000)">
                <path d="M57.5513,45.6602 L63.3893,45.9892 C63.3893,45.9892 68.5923,45.8052 69.2693,47.6362 C69.9493,49.4682 70.6273,57.9412 66.4423,57.9412 C62.2573,57.9412 33.7593,56.7962 33.7593,56.7962 L10.2233,56.4992" id="Stroke-3" stroke="#1B204A" stroke-width="0.446" stroke-linecap="round"></path>
                <path d="M34.7677,45.6851 C38.6717,46.0641 42.1747,46.3811 43.9127,46.4151 C44.4757,46.3521 55.6117,46.5661 56.1437,46.2211 C58.3027,46.1511 60.5857,46.4781 62.7997,47.0361 C63.6657,47.2561 63.7347,45.9441 64.1357,45.6691 L62.3347,45.0981 C62.0597,42.9911 61.9277,40.6701 61.1377,38.4551 C60.9177,37.8401 61.0687,37.1741 62.0547,37.1251 C62.9437,37.0751 63.3017,36.3281 62.9567,35.6581 C62.5987,34.9731 61.9347,35.1561 61.2817,35.6061 C60.4667,36.1841 59.6267,35.9331 58.6417,35.6951 C53.2457,34.3721 48.1647,32.2061 42.9517,30.3691 C40.8377,29.6221 39.0257,28.3741 37.1237,27.2821 C34.2827,25.6521 31.1707,25.0741 28.0347,24.4711 C23.8197,23.6571 19.6467,22.6591 15.3757,22.1631 C14.9427,22.1131 14.4847,22.1131 14.0457,22.0251 C13.1307,21.8441 12.7467,22.4401 12.5457,23.1611 C12.3577,23.8331 12.6597,24.2591 13.2677,24.6981 C14.7987,25.8011 16.5677,25.3691 18.2117,25.5701 C22.8397,26.1531 27.2307,27.5461 31.6227,29.0201 C33.0787,29.5031 33.5857,30.4811 33.5487,32.0441 C33.4417,35.9641 33.6047,39.8791 34.2757,43.7621 C34.3517,44.2071 34.6467,45.2301 34.7717,45.6691" id="Fill-4" fill="#1B204A"></path>
                <path d="M34.7613,45.7267 C38.6723,46.1077 42.1823,46.4247 43.9233,46.4597 C44.4873,46.3967 55.6433,46.6107 56.1763,46.2647 C58.3383,46.1947 60.6263,46.5227 62.8443,47.0827 C63.7113,47.3037 63.7813,45.9867 64.1823,45.7107 L62.3783,45.1367 C62.1033,43.0227 61.9703,40.6927 61.1793,38.4697 C60.9593,37.8527 61.1103,37.1847 62.0973,37.1347 C62.9883,37.0837 63.3473,36.3347 63.0013,35.6617 C62.6423,34.9747 61.9773,35.1577 61.3233,35.6107 C60.5063,36.1897 59.6653,35.9377 58.6783,35.6987 C53.2733,34.3717 48.1833,32.1977 42.9603,30.3537 C40.8423,29.6037 39.0273,28.3517 37.1223,27.2557 C34.2753,25.6187 31.1583,25.0387 28.0163,24.4337 C23.7933,23.6167 19.6133,22.6147 15.3343,22.1167 C14.9003,22.0667 14.4413,22.0667 14.0013,21.9787 C13.0853,21.7967 12.7013,22.3947 12.4993,23.1187 C12.3113,23.7927 12.6133,24.2207 13.2223,24.6617 C14.7553,25.7687 16.5283,25.3347 18.1753,25.5367 C22.8123,26.1217 27.2103,27.5197 31.6103,28.9997 C33.0683,29.4847 33.5773,30.4667 33.5403,32.0347 C33.4333,35.9697 33.5963,39.8987 34.2683,43.7967 C34.3443,44.2427 34.6403,45.2707 34.7653,45.7107" id="Stroke-5" stroke="#1B204A" stroke-width="0.22" stroke-linecap="round" stroke-linejoin="round"></path>
                <path d="M35.1748,45.5428 C29.2518,44.8698 21.1308,44.2368 18.5388,44.1898 C16.1218,44.1468 13.6908,43.8248 11.2988,44.3078" id="Stroke-6" stroke="#1B204A" stroke-width="0.5" stroke-linecap="round" stroke-linejoin="round"></path>
                <path d="M43.9119,46.0263 C42.5689,43.0653 43.7479,40.7323 45.8119,38.6673 C47.3489,37.1253 51.4569,37.4763 52.3979,39.2333 C53.4089,41.1023 53.7729,43.1663 53.9299,45.2733 C53.9849,46.0203 53.5519,46.5683 52.8499,46.9203 C51.5069,47.5973 45.9319,49.1883 43.9119,46.0263" id="Fill-7" fill="#FFFFFF"></path>
                <path d="M43.8493,46.0705 C42.4883,43.0685 43.6833,40.7035 45.7743,38.6105 C47.3323,37.0475 51.4943,37.4025 52.4483,39.1845 C53.4723,41.0795 53.8403,43.1715 53.9993,45.3075 C54.0563,46.0645 53.6163,46.6195 52.9063,46.9765 C51.5453,47.6635 45.8963,49.2755 43.8493,46.0705 Z M52.2773,47.2215 C49.8303,48.0345 47.8083,47.2585 46.7033,45.1235 C46.6023,44.9195 46.5253,44.7545 46.5253,44.5375 C46.5573,42.9855 49.3413,40.9515 50.9353,41.2685 C51.7953,41.4405 51.7053,42.0395 51.7003,42.6245 C51.6863,44.0795 51.9913,45.4675 52.4303,46.8525 C52.5263,47.1445 52.4003,47.0325 52.2773,47.2215 L52.2773,47.2215 Z" id="Stroke-8" stroke="#1B204A" stroke-width="0.33" stroke-linecap="round" stroke-linejoin="round"></path>
                <path d="M54.2483,39.3781 C54.1823,38.6701 54.1143,37.9691 54.0473,37.2611 M55.8653,44.5581 C55.9663,45.0681 55.6583,45.6221 56.2143,46.2911" id="Stroke-9" stroke="#FFFFFF" stroke-width="0.33" stroke-linecap="round" stroke-linejoin="round"></path>
            </g>
        </g>
    </g>
</svg>
