<?xml version="1.0" encoding="UTF-8"?>
<svg width="78px" height="78px" viewBox="0 0 78 78" version="1.1" xmlns="http://www.w3.org/2000/svg" xmlns:xlink="http://www.w3.org/1999/xlink">
    <title>Group</title>
    <g id="Page-1" stroke="none" stroke-width="1" fill="none" fill-rule="evenodd">
        <g id="Desktop" transform="translate(-287.000000, -653.000000)">
            <g id="Group" transform="translate(287.000000, 653.000000)">
                <path d="M26.6294,53.7965 C21.0594,53.4965 14.7404,54.1735 9.2504,53.0615" id="Stroke-3" stroke="#1B204A" stroke-width="0.5" stroke-linecap="round" stroke-linejoin="round"></path>
                <path d="M26.4059,53.5731 C26.4059,54.1161 26.5749,54.5311 26.4059,55.1141 C25.4479,58.3411 25.3929,61.7761 24.8649,65.0751 C24.2169,69.0851 24.2419,69.1891 28.8579,69.9471 C29.6079,66.8241 31.8139,59.8101 32.5809,56.6481 C32.8119,55.0271 33.4269,53.6131 33.7949,52.0321 C39.0019,52.2951 44.2589,51.6001 49.3619,52.6871 C49.7369,53.3171 49.9379,53.8851 49.9059,54.4841 C49.6729,59.1251 51.5739,63.3351 52.5639,67.7181 C52.7649,68.6061 53.0449,69.5471 54.2419,69.3881 C55.2889,69.2521 55.7609,68.7011 55.9919,67.4951 C56.6869,63.9331 56.4709,60.3541 55.8299,56.9111 C55.0959,52.9821 54.4749,49.0281 54.1059,45.0921 C53.6109,39.9141 52.9559,34.7221 53.4449,29.4501 C53.8749,24.8191 53.2189,20.1231 52.8369,15.5141 C52.6129,12.7741 53.3239,11.3511 55.1929,9.9461 C55.2719,9.8901 55.2099,9.6421 55.2099,9.6661 C54.4899,8.7001 53.4599,8.6361 52.3799,8.2041 C51.2629,10.9921 51.0399,10.5051 49.0099,10.4901 C45.7039,10.4731 41.4069,10.3061 38.1239,10.0901 C36.4379,9.9791 33.9609,10.9841 33.2339,8.0531 C31.9979,8.7081 31.1119,9.3311 30.6309,10.4901 C32.4449,11.6961 32.3249,13.2451 31.9579,15.2731 C31.3179,18.8441 30.9029,22.4781 30.4489,26.0891 C29.8009,31.2251 29.4659,36.4001 28.4509,41.4801 C27.7089,45.2431 27.6769,49.9071 26.4059,53.5731" id="Fill-4" fill="#1B204A"></path>
                <path d="M26.3226,53.6175 C26.3226,54.1625 26.4926,54.5785 26.3226,55.1635 C25.3586,58.4005 25.3036,61.8455 24.7716,65.1545 C24.1206,69.1775 24.1456,69.2815 28.7896,70.0415 C29.5436,66.9095 31.7626,59.8735 32.5346,56.7025 C32.7666,55.0765 33.3856,53.6575 33.7556,52.0715 C38.9936,52.3355 44.2806,51.6385 49.4146,52.7285 C49.7916,53.3615 49.9936,53.9305 49.9616,54.5315 C49.7266,59.1865 51.6396,63.4085 52.6356,67.8055 C52.8376,68.6965 53.1196,69.6405 54.3226,69.4805 C55.3766,69.3445 55.8506,68.7915 56.0836,67.5815 C56.7826,64.0085 56.5656,60.4195 55.9216,56.9665 C55.1816,53.0245 54.5576,49.0585 54.1856,45.1105 C53.6886,39.9175 53.0296,34.7095 53.5216,29.4215 C53.9536,24.7755 53.2946,20.0655 52.9096,15.4425 C52.6856,12.6935 53.3996,11.2675 55.2796,9.8585 C55.3596,9.8015 55.2966,9.5525 55.2966,9.5765 C54.5726,8.6085 53.5366,8.5435 52.4506,8.1105 C51.3266,10.9065 51.1026,10.4185 49.0596,10.4035 C45.7346,10.3865 41.4126,10.2185 38.1096,10.0025 C36.4146,9.8905 33.9226,10.8985 33.1916,7.9585 C31.9476,8.6155 31.0556,9.2405 30.5726,10.4035 C32.3976,11.6125 32.2766,13.1665 31.9076,15.2005 C31.2636,18.7835 30.8466,22.4275 30.3896,26.0505 C29.7376,31.2015 29.4006,36.3925 28.3796,41.4885 C27.6326,45.2625 27.6006,49.9405 26.3226,53.6175 Z" id="Stroke-5" stroke="#1B204A" stroke-width="0.211" stroke-linecap="round" stroke-linejoin="round"></path>
                <path d="M68.75,54.3773 C66.969,55.5983 65.221,54.2403 63.545,53.8933 C60.544,53.2723 57.575,53.4963 54.59,53.3493" id="Stroke-6" stroke="#1B204A" stroke-width="0.5" stroke-linecap="round" stroke-linejoin="round"></path>
                <path d="M49.178,26.156 C48.5,24.935 48.051,23.584 47.029,22.537 C44.681,20.142 41.702,20.604 38.833,20.668 C38.299,20.685 37.756,21.165 37.349,21.803 C36.095,23.744 35.144,25.844 34.042,27.856 C32.628,30.437 34.226,33.017 37.15,33.153 C39.314,33.257 41.479,33.568 43.643,33.6 C47.406,33.639 48.843,32.274 49.17,28.568 C49.235,27.849 49.178,26.876 49.178,26.156" id="Fill-7" fill="#FFFFFF"></path>
                <path d="M49.3188,26.1357 C48.6288,24.8877 48.1718,23.5087 47.1308,22.4387 C44.7408,19.9907 41.7078,20.4637 38.7878,20.5287 C38.2438,20.5467 37.6908,21.0357 37.2768,21.6877 C36.0008,23.6707 35.0328,25.8167 33.9108,27.8727 C32.4708,30.5097 34.0978,33.1447 37.0738,33.2847 C39.2778,33.3907 41.4808,33.7077 43.6838,33.7407 C47.5148,33.7817 48.9778,32.3867 49.3108,28.6007 C49.3768,27.8657 49.3188,26.8707 49.3188,26.1357 M46.3828,25.4007 C46.1408,24.8707 45.9768,24.3407 45.1558,24.3967 C43.2038,24.5437 41.2288,24.5037 39.2858,24.7087 C38.6258,24.7717 37.5618,24.8537 37.6028,25.8907 C37.6338,26.7957 37.0738,27.8657 38.0578,28.5917 C39.4478,29.6207 40.7238,30.8357 42.5198,31.3577 C44.4888,29.9227 47.0828,28.6897 46.3828,25.4007" id="Stroke-8" stroke="#1B204A" stroke-width="0.316" stroke-linecap="round" stroke-linejoin="round"></path>
                <path d="M48.7337,18.8609 C47.7457,18.9709 46.7687,19.0839 45.7807,19.1949 M38.4057,18.1849 L35.2167,18.1849" id="Stroke-9" stroke="#FFFFFF" stroke-width="0.316" stroke-linecap="round" stroke-linejoin="round"></path>
            </g>
        </g>
    </g>
</svg>