<?xml version="1.0" encoding="UTF-8"?>
<svg width="80px" height="80px" viewBox="0 0 80 80" version="1.1" xmlns="http://www.w3.org/2000/svg" xmlns:xlink="http://www.w3.org/1999/xlink">
    <title>Group</title>
    <g id="Page-1" stroke="none" stroke-width="1" fill="none" fill-rule="evenodd">
        <g id="Desktop" transform="translate(-405.000000, -651.000000)">
            <g id="Group" transform="translate(405.500000, 651.500000)">
                <path d="M59.235,63.7446 C61.48,59.1716 64.773,55.0796 65.858,49.9556 C66.655,46.2046 67.848,42.5776 69.288,39.0036 C68.764,37.9626 67.612,37.8526 66.689,37.1406 C62.615,41.3926 59.845,49.5906 54.263,53.0646 C53.087,51.3686 51.875,21.4116 51.867,19.6416 C52.366,18.8286 54.78,19.3866 55.415,18.2536 C54.882,17.4736 53.483,16.0936 52.535,15.2616 C51.248,17.5496 50.308,17.8886 48.005,17.8466 C42.904,17.7536 37.798,17.6436 32.444,18.0916 C32.394,16.3986 32.664,14.8216 31.369,13.6776 C30.801,14.0266 30.251,14.5166 29.616,14.7116 C28.539,15.0496 28.624,16.2116 28.912,16.4736 C31.317,18.6936 25.694,49.4886 25.296,51.7506 C25.312,52.2676 25.279,52.7346 24.482,53.1656 C20.239,49.5826 16.242,45.5856 12.565,41.2826 C11.914,41.2226 11.752,41.8676 11.27,42.0956 C9.38,42.9756 9.457,44.3826 10.202,46.1436 C12.54,51.6926 16.325,56.2996 19.672,61.1946 C19.672,61.1946 19.406,61.6136 21.579,61.9436 C23.75,62.2736 28.112,62.7736 31.035,62.8996 C33.959,63.0266 43.95,63.2526 43.95,63.2526 C43.95,63.2526 52.107,63.8066 54.147,63.9336 C56.189,64.0596 58.911,64.2386 58.911,64.2386 L59.235,63.7446 Z" id="Fill-3" fill="#1B204A"></path>
                <path d="M59.3076,63.8521 C61.5606,59.2591 64.8666,55.1491 65.9556,50.0031 C66.7556,46.2361 67.9526,42.5931 69.3976,39.0041 C68.8716,37.9581 67.7156,37.8471 66.7886,37.1331 C62.7006,41.4031 59.9196,49.6371 54.3176,53.1251 C53.1366,51.4231 51.9206,21.3361 51.9116,19.5581 C52.4136,18.7411 54.8356,19.3011 55.4736,18.1641 C54.9386,17.3801 53.5346,15.9941 52.5826,15.1581 C51.2916,17.4571 50.3476,17.7971 48.0356,17.7551 C42.9166,17.6621 37.7916,17.5511 32.4186,18.0011 C32.3676,16.3001 32.6386,14.7171 31.3396,13.5681 C30.7686,13.9181 30.2166,14.4101 29.5796,14.6061 C28.4986,14.9461 28.5836,16.1131 28.8736,16.3761 C31.2866,18.6051 25.6436,49.5351 25.2436,51.8061 C25.2596,52.3251 25.2266,52.7941 24.4266,53.2281 C20.1676,49.6281 16.1566,45.6151 12.4666,41.2921 C11.8116,41.2321 11.6496,41.8801 11.1666,42.1091 C9.2696,42.9931 9.3466,44.4061 10.0936,46.1751 C12.4406,51.7481 16.2396,56.3741 19.5986,61.2911 C19.5986,61.2911 19.3326,61.7121 21.5126,62.0431 C23.6916,62.3741 28.0696,62.8771 31.0036,63.0041 C33.9386,63.1311 43.9666,63.3581 43.9666,63.3581 C43.9666,63.3581 52.1536,63.9151 54.2006,64.0421 C56.2506,64.1691 58.9826,64.3481 58.9826,64.3481 L59.3076,63.8521 Z" id="Stroke-4" stroke="#1B204A" stroke-width="0.204" stroke-linecap="round" stroke-linejoin="round"></path>
                <path d="M69.2019,65.2836 C58.4869,64.2196 47.7579,63.5356 37.0019,63.1166 C31.3339,62.8926 25.6039,62.7246 19.9949,61.4476 C17.3089,60.8336 14.6679,61.6826 11.9989,61.4666" id="Stroke-5" stroke="#1B204A" stroke-width="0.5" stroke-linecap="round" stroke-linejoin="round"></path>
            </g>
        </g>
    </g>
</svg>