<?xml version="1.0" encoding="UTF-8"?>
<svg width="69px" height="50px" viewBox="0 0 69 50" version="1.1" xmlns="http://www.w3.org/2000/svg" xmlns:xlink="http://www.w3.org/1999/xlink">
    <title>Group</title>
    <g id="Page-1" stroke="none" stroke-width="1" fill="none" fill-rule="evenodd">
        <g id="Desktop" transform="translate(-531.000000, -3404.000000)">
            <g id="Group" transform="translate(532.000000, 3405.000000)">
                <path d="M3.37919737,21.9707664 L3.49775,25.5931963 L4.04040789,27.4526355 C4.04040789,27.4526355 4.62243421,27.8231776 5.61782895,27.8164486 C6.61322368,27.8097196 13.7277237,27.8155514 13.7277237,27.8155514 L34.6202763,27.8164486 L63.37175,27.5329346 C63.37175,27.5329346 64.5536974,27.3822056 64.550572,26.1122243 C64.5474342,24.842243 64.5358026,21.8097196 64.5358026,21.8097196 L28.8621974,21.8097196 L3.37919737,21.9707664 Z" id="Fill-1" fill="#7F7C89"></path>
                <path d="M12.2806658,1.13154393 L4.24100789,15.8033944 C4.24100789,15.8033944 3.43708684,17.012815 3.39727105,17.6982729 C3.35700789,18.3832822 3.39727105,23.623357 3.39727105,23.623357 C3.39727105,23.623357 3.39727105,27.0493009 4.04013947,27.4525907 C4.68345526,27.8554318 7.37661316,27.8150579 7.37661316,27.8150579 L39.09235,27.8164037 L63.3714816,27.5333383 C63.3714816,27.5333383 64.3762711,27.4122168 64.4970605,26.3642916 C64.6174026,25.3163664 64.4970605,19.2701607 64.4970605,19.2701607 C64.4970605,19.2701607 64.8187184,17.8593196 63.4922711,15.9644411 C61.8777184,13.6590953 53.5231132,1.13154393 53.5231132,1.13154393 C53.5231132,1.13154393 53.0806658,0.244665421 51.8347447,0.244665421 L13.9685868,0.244665421 C13.9685868,0.244665421 12.8197447,0.147319626 12.2806658,1.13154393 Z" id="Stroke-3" stroke="#212348" stroke-width="0.5" stroke-linecap="round" stroke-linejoin="round"></path>
                <path d="M3.37919737,20.2171065 C3.37919737,20.2171065 3.45748684,20.6002093 4.30167105,20.6405832 C5.14540789,20.680957 16.3005395,20.7617047 16.3005395,20.7617047 L33.0629868,20.7617047 L51.5536184,20.7617047 L62.9494342,20.7617047 C62.9494342,20.7617047 64.3143553,20.7603589 64.5161184,20.3777047 L64.5358026,21.8096299 C64.5358026,21.8096299 64.47675,22.3335925 63.1503026,22.3335925 C61.8238553,22.3335925 41.9866447,22.4542654 41.9866447,22.4542654 L4.70340789,22.4542654 C4.70340789,22.4542654 3.50177632,22.4744523 3.37919737,21.9706766 L3.37919737,20.2171065 Z" id="Fill-5" fill="#202347"></path>
                <path d="M3.37919737,20.2171065 C3.37919737,20.2171065 3.45748684,20.6002093 4.30167105,20.6405832 C5.14540789,20.680957 16.3005395,20.7617047 16.3005395,20.7617047 L33.0629868,20.7617047 L51.5536184,20.7617047 L62.9494342,20.7617047 C62.9494342,20.7617047 64.3143553,20.7603589 64.5161184,20.3777047 L64.5358026,21.8096299 C64.5358026,21.8096299 64.47675,22.3335925 63.1503026,22.3335925 C61.8238553,22.3335925 41.9866447,22.4542654 41.9866447,22.4542654 L4.70340789,22.4542654 C4.70340789,22.4542654 3.50177632,22.4744523 3.37919737,21.9706766 L3.37919737,20.2171065 Z" id="Stroke-7" stroke="#212348" stroke-width="0.5" stroke-linecap="round" stroke-linejoin="round"></path>
                <path d="M3.56834474,26.1579364 C2.28439737,27.8554318 0.719502632,29.8947589 0.442581579,30.7282542 C-0.340313158,32.5226467 1.11363421,32.2983477 2.67942368,32.2983477 C4.02152895,32.2983477 68.77945,34.1676561 67.4360026,30.9525533 C67.0007132,29.9122542 65.8402395,28.1748336 64.5173711,26.4634318" id="Stroke-9" stroke="#212348" stroke-width="0.5" stroke-linecap="round" stroke-linejoin="round"></path>
                <path d="M0.359907895,31.9748187 C0.555407895,35.8874916 0.704828947,40.5228561 0.630118421,43.9501458 C5.55117105,43.7258467 61.7321447,44.0744075 67.4360921,43.8501084 C67.4414605,40.597772 67.7353816,35.8874916 67.4360921,30.9529121" id="Stroke-11" stroke="#212348" stroke-width="0.5" stroke-linecap="round" stroke-linejoin="round"></path>
                <path d="M2.11967632,43.8876561 C2.04541316,44.5605533 2.09328158,47.736628 2.09328158,47.736628 C5.26870263,47.6958056 5.40336053,47.6621607 5.83328158,47.6621607 C5.98270263,46.7649645 5.81404474,44.7426841 5.69817632,43.9621234" id="Stroke-13" stroke="#212348" stroke-width="0.5" stroke-linecap="round" stroke-linejoin="round"></path>
                <path d="M61.9184737,43.9156935 C61.9184737,45.1121047 62.0674474,46.6539364 62.2168684,47.7754318 L65.9331579,47.7754318 L65.6468421,43.9502355" id="Stroke-15" stroke="#212348" stroke-width="0.5" stroke-linecap="round" stroke-linejoin="round"></path>
                <path d="M4.26876053,27.5650991 C4.18551053,27.6816491 4.10586053,27.7959491 4.02891053,27.9070991" id="Stroke-17" stroke="#212348" stroke-width="0.5" stroke-linecap="round" stroke-linejoin="round"></path>
                <path d="M3.05194737,29.6976897 C2.77636842,30.5755963 3.24923684,30.7855402 3.99723684,30.828157" id="Stroke-19" stroke="#212348" stroke-width="0.5" stroke-linecap="round" stroke-linejoin="round" stroke-dasharray="0.8216999888420106,2.054699993133545"></path>
                <path d="M5.01880263,30.8309832 C5.09575,30.8305346 5.17269737,30.8296374 5.25053947,30.8296374 C6.49556579,30.8296374 66.5614868,32.5630206 65.3146711,29.5811888 C65.1880658,29.2774879 64.9948026,28.9105346 64.7518816,28.5000673" id="Stroke-21" stroke="#212348" stroke-width="0.5" stroke-linecap="round" stroke-linejoin="round" stroke-dasharray="0.8216999888420106,2.054699993133545,0.8216999888420106,2.054699993133545"></path>
                <path d="M64.2069263,27.6340542 C64.1308763,27.5197542 64.0530263,27.4041042 63.9724763,27.2866542" id="Stroke-23" stroke="#212348" stroke-width="0.5" stroke-linecap="round" stroke-linejoin="round"></path>
            </g>
        </g>
    </g>
</svg>