<?xml version="1.0" encoding="UTF-8"?>
<svg width="78px" height="78px" viewBox="0 0 78 78" version="1.1" xmlns="http://www.w3.org/2000/svg" xmlns:xlink="http://www.w3.org/1999/xlink">
    <title>Group</title>
    <g id="Page-1" stroke="none" stroke-width="1" fill="none" fill-rule="evenodd">
        <g id="Desktop" transform="translate(-291.000000, -823.000000)">
            <g id="Group" transform="translate(291.000000, 823.000000)">
                <path d="M50.6853,38.5818 C51.0863,43.4558 50.9133,48.3298 50.5883,53.1618 C50.2773,57.7518 50.3183,62.3358 50.2493,66.9198 L26.8963,66.0828 C26.8833,58.5128 27.0693,50.9428 27.3113,43.3728 C27.5943,34.6278 27.4983,25.8758 27.5323,17.1298 C27.5403,15.6708 27.6303,14.2058 27.7543,12.7538 C27.6023,9.5458 27.6023,9.5458 29.6553,8.9998 C30.3053,10.0858 30.0903,11.4338 30.6993,12.5468 C34.7643,12.5468 38.8633,12.4218 42.9563,12.5878 C45.7353,12.6988 48.1413,12.4918 49.0883,9.3038 C49.8283,10.0508 50.4573,10.6728 51.1973,11.4058 C48.1963,14.8838 49.5653,19.0378 49.6763,22.9578 C49.8143,28.1778 50.2563,33.3828 50.6853,38.5818 M45.4793,32.1318 C46.5163,27.9908 47.0423,25.1908 44.0003,22.5428 C42.9143,21.5958 41.7743,21.2778 40.1773,21.1678 C38.9263,21.1678 37.8063,21.2918 36.6923,21.6648 C33.7893,22.6328 31.7223,25.8198 32.3313,28.7928 C33.2083,33.0588 35.1643,34.6208 39.6243,34.6278 C40.3843,34.6278 41.1583,34.5648 41.9123,34.6408 C43.8483,34.8348 44.9883,34.0948 45.4793,32.1318" id="Fill-3" fill="#1F2548"></path>
                <path d="M43.8867,24.9345 C43.7087,24.4395 43.6057,23.9175 42.8507,23.9305 C40.6397,23.9695 38.4097,23.1775 36.1857,24.2345 C34.8757,27.0745 35.7807,29.0165 38.9177,29.9085 C40.1117,30.2455 42.7197,28.6805 43.3997,27.3195 C43.7347,26.6385 43.8727,25.6215 43.8867,24.9345 Z" id="Stroke-4" stroke="#1F2548" stroke-linecap="round" stroke-linejoin="round"></path>
                <path d="M33.46,18.91 C33.46,18.91 33.494,19.847 33.707,19.938 M44.375,20.182 C44.375,20.182 44.807,19.324 44.766,18.715" id="Stroke-5" stroke="#FEFEFE" stroke-linecap="round"></path>
            </g>
        </g>
    </g>
</svg>