<?xml version="1.0" encoding="UTF-8"?>
<svg width="75px" height="76px" viewBox="0 0 75 76" version="1.1" xmlns="http://www.w3.org/2000/svg" xmlns:xlink="http://www.w3.org/1999/xlink">
    <title>Group 17</title>
    <g id="Page-1" stroke="none" stroke-width="1" fill="none" fill-rule="evenodd">
        <g id="Desktop" transform="translate(-293.000000, -2211.000000)">
            <g id="Group" transform="translate(288.000000, 2209.000000)">
                <g id="Group-17" transform="translate(5.000000, 2.000000)">
                    <g id="Group-37">
                        <g id="Group-4">
                            <path d="M10.0886,23.3341 C7.0166,22.6161 3.7466,20.9701 0.4996,20.6571 C0.3636,21.4141 0.2456,22.0381 0.1586,22.5351 C3.1166,24.6711 6.0336,26.7681 9.0776,28.9641 C7.3826,40.0131 6.1346,51.1421 3.7226,62.1301 C2.7496,62.6611 1.6476,61.8511 0.6996,62.4191 C0.8036,65.5961 0.9796,65.7111 5.4946,65.5801 C5.3606,65.0431 6.0086,64.8621 6.0626,64.5381 C6.7336,60.4901 9.7106,59.8971 13.0396,59.7361 C16.1796,59.5801 19.2706,58.9451 22.4196,58.8571 C24.8176,58.7941 27.1746,59.2041 29.5556,59.2071 C30.7876,59.2141 31.3746,59.8281 31.7486,60.8621 C32.1776,62.0741 32.6396,63.2751 33.0906,64.5031 C34.6626,65.0531 36.0486,64.3121 37.4596,64.0711 C37.8176,63.2791 37.6386,62.6031 37.5066,61.9131 C36.7206,61.1881 35.8526,62.0391 35.0206,61.7411 C33.3936,54.1401 32.4266,46.3991 31.3776,38.6801 C30.9516,35.5581 29.8866,32.5991 29.3596,29.5051 C29.0446,27.6641 29.3846,26.6111 31.2296,25.7711 C32.8626,25.0251 34.5606,24.2471 36.0016,23.1471 C36.5826,22.7071 37.8276,22.4671 37.2826,21.1041 C36.7306,19.7211 35.6986,20.2621 34.8836,20.4451 C33.4726,20.7621 32.1136,21.3031 30.7296,21.7561 C30.1926,21.9311 29.6526,21.9661 28.9926,21.9041 C28.1496,16.6511 26.4236,11.5311 25.9776,6.1661 C25.8666,4.8941 25.7856,3.7541 26.9616,2.6681 C28.2526,1.4811 26.5916,1.1771 25.9126,0.6021 C25.6146,1.2321 25.3266,1.8541 24.9806,2.5921 C21.3126,2.4801 17.6186,2.3301 13.9496,2.6301 C13.7786,1.9721 13.6406,1.4211 13.5026,0.8691 C12.8846,0.7961 12.3556,0.9311 11.9666,1.5141 C11.9596,1.6211 11.8686,1.9111 11.9456,1.9611 C13.4216,3.0071 13.0456,4.5281 12.7086,5.8051 C11.7196,9.6441 12.1456,13.6321 11.3036,17.4751 C10.8766,19.4191 10.8606,21.4581 10.0886,23.3341" id="Fill-1" fill="#212348"></path>
                            <path d="M10.0886,23.3341 C7.0166,22.6161 3.7466,20.9701 0.4996,20.6571 C0.3636,21.4141 0.2456,22.0381 0.1586,22.5351 C3.1166,24.6711 6.0336,26.7681 9.0776,28.9641 C7.3826,40.0131 6.1346,51.1421 3.7226,62.1301 C2.7496,62.6611 1.6476,61.8511 0.6996,62.4191 C0.8036,65.5961 0.9796,65.7111 5.4946,65.5801 C5.3606,65.0431 6.0086,64.8621 6.0626,64.5381 C6.7336,60.4901 9.7106,59.8971 13.0396,59.7361 C16.1796,59.5801 19.2706,58.9451 22.4196,58.8571 C24.8176,58.7941 27.1746,59.2041 29.5556,59.2071 C30.7876,59.2141 31.3746,59.8281 31.7486,60.8621 C32.1776,62.0741 32.6396,63.2751 33.0906,64.5031 C34.6626,65.0531 36.0486,64.3121 37.4596,64.0711 C37.8176,63.2791 37.6386,62.6031 37.5066,61.9131 C36.7206,61.1881 35.8526,62.0391 35.0206,61.7411 C33.3936,54.1401 32.4266,46.3991 31.3776,38.6801 C30.9516,35.5581 29.8866,32.5991 29.3596,29.5051 C29.0446,27.6641 29.3846,26.6111 31.2296,25.7711 C32.8626,25.0251 34.5606,24.2471 36.0016,23.1471 C36.5826,22.7071 37.8276,22.4671 37.2826,21.1041 C36.7306,19.7211 35.6986,20.2621 34.8836,20.4451 C33.4726,20.7621 32.1136,21.3031 30.7296,21.7561 C30.1926,21.9311 29.6526,21.9661 28.9926,21.9041 C28.1496,16.6511 26.4236,11.5311 25.9776,6.1661 C25.8666,4.8941 25.7856,3.7541 26.9616,2.6681 C28.2526,1.4811 26.5916,1.1771 25.9126,0.6021 C25.6146,1.2321 25.3266,1.8541 24.9806,2.5921 C21.3126,2.4801 17.6186,2.3301 13.9496,2.6301 C13.7786,1.9721 13.6406,1.4211 13.5026,0.8691 C12.8846,0.7961 12.3556,0.9311 11.9666,1.5141 C11.9596,1.6211 11.8686,1.9111 11.9456,1.9611 C13.4216,3.0071 13.0456,4.5281 12.7086,5.8051 C11.7196,9.6441 12.1456,13.6321 11.3036,17.4751 C10.8766,19.4191 10.8606,21.4581 10.0886,23.3341" id="Stroke-3" stroke="#212348" stroke-width="0.316" stroke-linecap="round" stroke-linejoin="round"></path>
                        </g>
                        <path d="M55.0583,36.4062 C54.9523,39.5422 55.3993,42.6552 55.1883,45.7992 C54.6623,53.5722 54.0513,61.3482 54.1153,69.1212 C54.8693,69.5812 55.8923,68.9222 56.5153,69.7902 C56.5063,70.4932 56.5453,71.1912 56.0353,71.8942 C54.6053,71.8472 53.0983,72.2932 51.6683,71.4382 C51.4743,70.1452 51.2633,68.8762 51.0873,67.6012 C50.9293,66.5132 50.4773,65.7952 49.2723,65.5402 C46.9403,65.0572 44.7143,64.1812 42.3523,63.7602 C42.3523,63.7602 37.6283,62.7452 38.0183,59.2742 C38.4093,55.8022 45.8513,34.5142 45.8513,34.5142 L55.0583,36.4062 Z" id="Fill-5" fill="#212348"></path>
                        <path d="M55.0583,36.4062 C54.9523,39.5422 55.3993,42.6552 55.1883,45.7992 C54.6623,53.5722 54.0513,61.3482 54.1153,69.1212 C54.8693,69.5812 55.8923,68.9222 56.5153,69.7902 C56.5063,70.4932 56.5453,71.1912 56.0353,71.8942 C54.6053,71.8472 53.0983,72.2932 51.6683,71.4382 C51.4743,70.1452 51.2633,68.8762 51.0873,67.6012 C50.9293,66.5132 50.4773,65.7952 49.2723,65.5402 C46.9403,65.0572 44.7143,64.1812 42.3523,63.7602 C42.3523,63.7602 37.6283,62.7452 38.0183,59.2742 C38.4093,55.8022 45.8513,34.5142 45.8513,34.5142 L55.0583,36.4062 Z" id="Stroke-7" stroke="#212348" stroke-width="0.316" stroke-linecap="round" stroke-linejoin="round"></path>
                        <g id="Group-12" transform="translate(40.000000, 45.000000)">
                            <path d="M9.7323,0.3979 C7.9983,7.9929 6.1793,15.5789 5.0273,23.2659 C5.7013,23.8379 6.8133,23.3469 7.2933,24.3019 C7.1753,24.9949 7.1043,25.6899 6.4913,26.3049 C5.0853,26.0349 3.5273,26.2399 2.2493,25.1719 C2.2593,23.8649 2.2493,22.5779 2.2743,21.2919 C2.2883,20.1919 2.0953,18.7249 0.9443,18.2849" id="Fill-9" fill="#212348"></path>
                            <path d="M9.7323,0.3979 C7.9983,7.9929 6.1793,15.5789 5.0273,23.2659 C5.7013,23.8379 6.8133,23.3469 7.2933,24.3019 C7.1753,24.9949 7.1043,25.6899 6.4913,26.3049 C5.0853,26.0349 3.5273,26.2399 2.2493,25.1719 C2.2593,23.8649 2.2493,22.5779 2.2743,21.2919 C2.2883,20.1919 2.0953,18.7249 0.9443,18.2849" id="Stroke-11" stroke="#212348" stroke-width="0.316" stroke-linecap="round" stroke-linejoin="round"></path>
                        </g>
                        <path d="M42.8331,24.9863 C42.8361,19.1633 43.5651,13.3403 45.0001,7.6973 C45.2411,6.7483 46.0021,5.9523 45.5661,5.0763 C45.3901,4.7233 45.2231,3.9853 45.1441,3.5993 C45.0211,2.9983 45.3541,2.7833 45.9091,2.5193 C46.4631,2.2553 46.5881,2.2893 47.2001,2.3343 C47.6131,2.3653 47.9501,2.3233 48.2811,2.5713 C49.3631,3.3853 47.8791,4.2843 48.2811,5.5763 C48.5131,6.3213 49.7931,7.5483 50.3421,8.1023 C52.3761,10.1573 54.2241,13.2453 54.2381,16.1363 C54.2521,19.0273 53.8001,21.9343 54.1881,24.7993" id="Fill-13" fill="#212348"></path>
                        <g id="Group-18" transform="translate(14.000000, 10.000000)">
                            <path d="M9.9896,3.8251 C9.5886,3.1031 9.3246,2.3051 8.7196,1.6871 C7.3326,0.2721 5.5726,0.5451 3.8786,0.5831 C3.5626,0.5921 3.2416,0.8761 3.0006,1.2531 C2.2606,2.4001 1.6986,3.6411 1.0466,4.8301 C0.2126,6.3541 1.1556,7.8791 2.8836,7.9591 C4.1616,8.0201 5.4406,8.2041 6.7196,8.2231 C8.9426,8.2471 9.7916,7.4401 9.9856,5.2501 C10.0226,4.8251 9.9896,4.2501 9.9896,3.8251" id="Fill-15" fill="#FEFEFE"></path>
                            <path d="M9.9896,3.8251 C9.5886,3.1031 9.3246,2.3051 8.7196,1.6871 C7.3326,0.2721 5.5726,0.5451 3.8786,0.5831 C3.5626,0.5921 3.2416,0.8761 3.0006,1.2531 C2.2606,2.4001 1.6986,3.6411 1.0466,4.8301 C0.2126,6.3541 1.1556,7.8791 2.8836,7.9591 C4.1616,8.0201 5.4406,8.2041 6.7196,8.2231 C8.9426,8.2471 9.7916,7.4401 9.9856,5.2501 C10.0226,4.8251 9.9896,4.2501 9.9896,3.8251" id="Stroke-17" stroke="#212348" stroke-width="0.354" stroke-linecap="round" stroke-linejoin="round"></path>
                        </g>
                        <path d="M22.286,13.4002 C22.145,13.0932 22.05,12.7872 21.573,12.8202 C20.441,12.9052 19.294,12.8812 18.167,12.9992 C17.784,13.0372 17.166,13.0842 17.19,13.6832 C17.208,14.2072 16.883,14.8252 17.454,15.2452 C18.261,15.8402 19.002,16.5432 20.045,16.8452 C21.187,16.0142 22.692,15.3022 22.286,13.4002" id="Stroke-19" stroke="#212348" stroke-width="0.354" stroke-linecap="round" stroke-linejoin="round"></path>
                        <path d="M17.6696,9.1992 L15.8246,9.1992 M23.6436,9.4872 C23.0726,9.5342 22.5066,9.5812 21.9356,9.6292 M50.9376,11.2912 C50.3666,11.3382 49.7016,11.2442 49.1306,11.2912" id="Stroke-21" stroke="#FEFEFE" stroke-width="0.354" stroke-linecap="round" stroke-linejoin="round"></path>
                        <g id="Group-26" transform="translate(50.000000, 11.000000)">
                            <path d="M3.3927,0.9393 C2.1537,1.5653 2.0597,1.7383 1.4707,2.5633 C1.1677,2.9863 0.9187,4.0863 0.9377,4.6063 C0.9957,6.1743 1.2017,6.4573 2.1657,7.2223 C3.1297,7.9873 5.3207,7.7433 5.6087,7.7293 C7.3217,7.6503 7.1677,4.5293 7.0587,3.6703 C6.9417,2.7533 4.9897,0.7443 3.3927,0.9393" id="Fill-23" fill="#FEFEFE"></path>
                            <path d="M3.3927,0.9393 C2.1537,1.5653 2.0597,1.7383 1.4707,2.5633 C1.1677,2.9863 0.9187,4.0863 0.9377,4.6063 C0.9957,6.1743 1.2017,6.4573 2.1657,7.2223 C3.1297,7.9873 5.3207,7.7433 5.6087,7.7293 C7.3217,7.6503 7.1677,4.5293 7.0587,3.6703 C6.9417,2.7533 4.9897,0.7443 3.3927,0.9393" id="Stroke-25" stroke="#212348" stroke-width="0.316" stroke-linecap="round"></path>
                        </g>
                        <g id="Group-30" transform="translate(55.000000, 14.000000)">
                            <path d="M2.8196,0.7231 C2.7326,0.5351 2.4116,0.4551 2.1196,0.4751 C1.4256,0.5271 1.7326,0.4671 1.0416,0.5391 C0.8076,0.5621 0.4286,0.5911 0.4426,0.9581 C0.4546,1.2791 0.2546,1.6581 0.6046,1.9161 C1.0996,2.2801 1.5536,2.7111 2.1926,2.8961 C2.8926,2.3871 3.0686,1.8891 2.8196,0.7231" id="Fill-27" fill="#FEFEFE"></path>
                            <path d="M2.8196,0.7231 C2.7326,0.5351 2.4116,0.4551 2.1196,0.4751 C1.4256,0.5271 1.7326,0.4671 1.0416,0.5391 C0.8076,0.5621 0.4286,0.5911 0.4426,0.9581 C0.4546,1.2791 0.2546,1.6581 0.6046,1.9161 C1.0996,2.2801 1.5536,2.7111 2.1926,2.8961 C2.8926,2.3871 3.0686,1.8891 2.8196,0.7231" id="Stroke-29" stroke="#212348" stroke-width="0.316" stroke-linecap="round" stroke-linejoin="round"></path>
                        </g>
                        <path d="M57.9567,73.5155 C53.3777,70.2885 49.3527,66.4895 46.2137,61.8495 C40.9337,54.0445 36.8917,47.2165 31.8307,37.9905 C30.6897,35.9095 28.4947,32.6445 26.5057,31.3485 C25.6177,30.7695 23.0547,29.2965 22.3537,28.5015 C20.4297,26.3195 20.5807,25.4745 23.1847,24.1785 C25.7887,22.8825 31.0217,23.2185 33.9127,23.5405 C47.4327,25.0435 61.0807,24.7445 74.6807,24.4425 L74.6807,73.5155 C74.6807,73.5155 63.9647,77.7505 57.9567,73.5155" id="Fill-31" fill="#FEFEFE"></path>
                        <path d="M57.9567,73.5155 C53.3777,70.2885 49.3527,66.4895 46.2137,61.8495 C40.9337,54.0445 36.8917,47.2165 31.8307,37.9905 C30.6897,35.9095 28.4947,32.6445 26.5057,31.3485 C25.6177,30.7695 23.0547,29.2965 22.3537,28.5015 C20.4297,26.3195 20.5807,25.4745 23.1847,24.1785 C25.7887,22.8825 31.0217,23.2185 33.9127,23.5405 C47.4327,25.0435 61.0807,24.7445 74.6807,24.4425 L74.6807,73.5155 C74.6807,73.5155 63.9647,77.7505 57.9567,73.5155 Z" id="Stroke-33" stroke="#212348" stroke-width="0.316" stroke-linecap="round" stroke-linejoin="round"></path>
                        <path d="M45.8055,24.4418 C45.8055,24.4418 43.6915,38.3068 46.1695,38.8868 C48.6475,39.4668 49.5455,24.5768 49.5455,24.5768 L45.8055,24.4418 Z" id="Fill-35" fill="#212348"></path>
                    </g>
                    <polygon id="Fill-38" fill="#1F2446" points="28.2709 23.2571 24.0029 29.7731 26.9569 31.6721 32.4619 23.4001"></polygon>
                    <polygon id="Stroke-39" stroke="#212348" stroke-width="0.316" stroke-linecap="round" stroke-linejoin="round" points="28.2709 23.2571 24.0029 29.7731 26.9569 31.6721 32.4619 23.4001"></polygon>
                </g>
            </g>
        </g>
    </g>
</svg>