<?xml version="1.0" encoding="UTF-8"?>
<svg width="81px" height="81px" viewBox="0 0 81 81" version="1.1" xmlns="http://www.w3.org/2000/svg" xmlns:xlink="http://www.w3.org/1999/xlink">
    <title>Group 2</title>
    <g id="Page-1" stroke="none" stroke-width="1" fill="none" fill-rule="evenodd">
        <g id="Desktop" transform="translate(-644.000000, -648.000000)">
            <g id="Group-2" transform="translate(645.000000, 649.000000)">
                <path d="M42.8696347,23.7329246 C41.0966347,21.2579246 39.7686347,17.9849246 37.6106347,15.6919246 C37.0336347,16.1569246 36.5516347,16.5359246 36.1736347,16.8409246 C36.9656347,20.2749246 37.7526347,23.6529246 38.5686347,27.1839246 C30.3376347,34.1439246 22.3796347,41.4439246 13.6666347,47.9009246 C12.6246347,47.6689246 12.3386347,46.3789246 11.2896347,46.1899246 C9.35263468,48.5669246 9.40763468,48.7629246 12.7656347,51.5369246 C13.0076347,51.0599246 13.5936347,51.3409246 13.8376347,51.1399246 C16.8906347,48.6219246 19.4246347,50.0819246 21.9416347,52.0789246 C24.3166347,53.9619246 26.9606347,55.4639246 29.3016347,57.4009246 C31.0796347,58.8799246 32.5296347,60.6759246 34.2546347,62.1899246 C35.1446347,62.9779246 35.1806347,63.7979246 34.7956347,64.7879246 C34.3396347,65.9409246 33.9126347,67.1079246 33.4626347,68.2879246 C34.2546347,69.6859246 35.7286347,70.0279246 36.9056347,70.7499246 C37.6676347,70.4009246 37.9646347,69.7969246 38.3066347,69.2099246 C38.1966347,68.1839246 37.0266347,68.2519246 36.6116347,67.5069246 C40.2506347,60.9449246 44.4546347,54.6999246 48.5846347,48.4209246 C50.2546347,45.8799246 51.3586347,43.0509246 52.9356347,40.4669246 C53.8736347,38.9259246 54.7876347,38.3769246 56.6586347,38.9389246 C58.3146347,39.4339246 60.0396347,39.9469246 61.7826347,40.0629246 C62.4826347,40.1109246 63.5376347,40.7289246 64.0066347,39.3909246 C64.4816347,38.0349246 63.3906347,37.7719246 62.6836347,37.3869246 C61.4586347,36.7219246 60.1306347,36.2499246 58.8396347,35.7009246 C58.3396347,35.4869246 57.9266347,35.1699246 57.4866347,34.7049246 C60.2036347,30.3489246 62.1976347,25.5289246 65.2736347,21.3439246 C65.9986347,20.3479246 66.6626347,19.4689246 68.2046347,19.4259246 C69.8926347,19.3819246 68.8806347,18.1059246 68.7526347,17.2579246 C68.1366347,17.5269246 67.5346347,17.7959246 66.8156347,18.1129246 C64.2256347,15.6989246 61.6436347,13.2439246 58.7916347,11.1289246 C59.0836347,10.5429246 59.3326347,10.0539246 59.5836347,9.56592459 C59.1816347,9.11892459 58.7116347,8.88192459 58.0596347,9.05892459 C57.9866347,9.13192459 57.7376347,9.28492459 57.7606347,9.36992459 C58.1686347,11.0679246 56.9326347,11.9359246 55.8786347,12.6509246 C52.7276347,14.8129246 50.5106347,17.9849246 47.4646347,20.2439246 C45.9226347,21.3879246 44.6196347,22.8599246 42.8696347,23.7329246" id="Fill-3" fill="#1B204A"></path>
            </g>
        </g>
    </g>
</svg>
